Apfel Grotezk.glyphspackage
{
glyphname = exclam;
layers = (
{
layerId = "8007C042-6FBA-4E49-99B8-8B738A4EBE86";
shapes = (
{
closed = 1;
nodes = (
(134,192,l),
(142,680,l),
(58,680,l),
(66,192,l)
);
},
{
pos = (4,0);
ref = period;
}
);
width = 200;
},
{
layerId = "ADDE491E-C0C4-4659-943C-53377B387F47";
shapes = (
{
closed = 1;
nodes = (
(174,224,l),
(194,680,l),
(46,680,l),
(66,224,l)
);
},
{
ref = period;
}
);
width = 236;
},
{
layerId = "0CF550E6-48ED-4BA5-8C66-195B58FED074";
shapes = (
{
closed = 1;
nodes = (
(200,256,l),
(232,680,l),
(32,680,l),
(64,256,l)
);
},
{
pos = (-4,0);
ref = period;
}
);
width = 264;
},
{
layerId = m004;
shapes = (
{
closed = 1;
nodes = (
(134,192,l),
(142,680,l),
(58,680,l),
(66,192,l)
);
},
{
pos = (4,0);
ref = period;
},
{
pos = (0,320);
ref = inkstem_M;
},
{
pos = (0,194);
ref = inkstem_S;
}
);
width = 200;
}
);
metricRight = "=|";
unicode = 33;
}
{
glyphname = numbersign;
layers = (
{
layerId = "8007C042-6FBA-4E49-99B8-8B738A4EBE86";
shapes = (
{
closed = 1;
nodes = (
(214,-32,l),
(214,618,l),
(136,618,l),
(136,-32,l)
);
},
{
closed = 1;
nodes = (
(444,-32,l),
(444,618,l),
(366,618,l),
(366,-32,l)
);
},
{
closed = 1;
nodes = (
(540,136,l),
(540,212,l),
(40,212,l),
(40,136,l)
);
},
{
closed = 1;
nodes = (
(540,382,l),
(540,456,l),
(40,456,l),
(40,382,l)
);
}
);
width = 580;
},
{
layerId = "ADDE491E-C0C4-4659-943C-53377B387F47";
shapes = (
{
closed = 1;
nodes = (
(253,-32,l),
(253,618,l),
(109,618,l),
(109,-32,l)
);
},
{
closed = 1;
nodes = (
(503,-32,l),
(503,618,l),
(359,618,l),
(359,-32,l)
);
},
{
closed = 1;
nodes = (
(576,112,l),
(576,230,l),
(36,230,l),
(36,112,l)
);
},
{
closed = 1;
nodes = (
(576,364,l),
(576,480,l),
(36,480,l),
(36,364,l)
);
}
);
width = 612;
},
{
layerId = "0CF550E6-48ED-4BA5-8C66-195B58FED074";
shapes = (
{
closed = 1;
nodes = (
(288,-32,l),
(288,618,l),
(88,618,l),
(88,-32,l)
);
},
{
closed = 1;
nodes = (
(556,-32,l),
(556,618,l),
(356,618,l),
(356,-32,l)
);
},
{
closed = 1;
nodes = (
(612,95,l),
(612,249,l),
(32,249,l),
(32,95,l)
);
},
{
closed = 1;
nodes = (
(612,348,l),
(612,500,l),
(32,500,l),
(32,348,l)
);
}
);
width = 644;
},
{
layerId = m004;
shapes = (
{
closed = 1;
nodes = (
(214,-32,l),
(214,136,l),
(314,136,ls),
(326,136,o),
(336,142,o),
(342,151,cs),
(347,159,o),
(356,164,o),
(366,164,cs),
(382,164,o),
(394,152,o),
(394,136,cs),
(394,126,o),
(389,117,o),
(381,112,cs),
(372,106,o),
(366,96,o),
(366,84,cs),
(366,-32,l),
(444,-32,l),
(444,136,l),
(540,136,l),
(540,212,l),
(496,212,ls),
(484,212,o),
(474,206,o),
(468,197,cs),
(463,189,o),
(454,184,o),
(444,184,cs),
(428,184,o),
(416,196,o),
(416,212,cs),
(416,222,o),
(421,231,o),
(429,236,cs),
(438,242,o),
(444,252,o),
(444,264,cs),
(444,382,l),
(540,382,l),
(540,456,l),
(496,456,ls),
(484,456,o),
(474,450,o),
(468,441,cs),
(463,433,o),
(454,428,o),
(444,428,cs),
(428,428,o),
(416,440,o),
(416,456,cs),
(416,466,o),
(421,475,o),
(429,480,cs),
(438,486,o),
(444,496,o),
(444,508,cs),
(444,618,l),
(366,618,l),
(366,456,l),
(266,456,ls),
(254,456,o),
(244,450,o),
(238,441,cs),
(233,433,o),
(224,428,o),
(214,428,cs),
(198,428,o),
(186,440,o),
(186,456,cs),
(186,466,o),
(191,475,o),
(199,480,cs),
(208,486,o),
(214,496,o),
(214,508,cs),
(214,618,l),
(136,618,l),
(136,456,l),
(40,456,l),
(40,382,l),
(84,382,ls),
(96,382,o),
(106,388,o),
(112,397,cs),
(117,405,o),
(126,410,o),
(136,410,cs),
(152,410,o),
(164,398,o),
(164,382,cs),
(164,372,o),
(159,363,o),
(151,358,cs),
(142,352,o),
(136,342,o),
(136,330,cs),
(136,212,l),
(40,212,l),
(40,136,l),
(84,136,ls),
(96,136,o),
(106,142,o),
(112,151,cs),
(117,159,o),
(126,164,o),
(136,164,cs),
(152,164,o),
(164,152,o),
(164,136,cs),
(164,126,o),
(159,117,o),
(151,112,cs),
(142,106,o),
(136,96,o),
(136,84,cs),
(136,-32,l)
);
},
{
closed = 1;
nodes = (
(198,184,o),
(186,196,o),
(186,212,cs),
(186,222,o),
(191,231,o),
(199,236,cs),
(208,242,o),
(214,252,o),
(214,264,cs),
(214,382,l),
(314,382,ls),
(326,382,o),
(336,388,o),
(342,397,cs),
(347,405,o),
(356,410,o),
(366,410,cs),
(382,410,o),
(394,398,o),
(394,382,cs),
(394,372,o),
(389,363,o),
(381,358,cs),
(372,352,o),
(366,342,o),
(366,330,cs),
(366,212,l),
(266,212,ls),
(254,212,o),
(244,206,o),
(238,197,cs),
(233,189,o),
(224,184,o),
(214,184,cs)
);
}
);
width = 580;
}
);
metricRight = "=|";
unicode = 35;
}
{
glyphname = dollar;
kernLeft = dollar;
kernRight = dollar;
layers = (
{
layerId = "8007C042-6FBA-4E49-99B8-8B738A4EBE86";
shapes = (
{
closed = 1;
nodes = (
(335,-108,l),
(335,750,l),
(257,750,l),
(257,-108,l)
);
},
{
ref = S;
}
);
width = 572;
},
{
layerId = "ADDE491E-C0C4-4659-943C-53377B387F47";
shapes = (
{
closed = 1;
nodes = (
(346,-108,l),
(346,750,l),
(250,750,l),
(250,-108,l)
);
},
{
ref = S;
}
);
width = 596;
},
{
layerId = "0CF550E6-48ED-4BA5-8C66-195B58FED074";
shapes = (
{
closed = 1;
nodes = (
(376,590,l),
(376,750,l),
(216,750,l),
(216,590,l)
);
},
{
closed = 1;
nodes = (
(216,67,l),
(216,-108,l),
(376,-108,l),
(376,67,l)
);
},
{
ref = S;
}
);
width = 596;
},
{
layerId = m004;
shapes = (
{
closed = 1;
nodes = (
(335,-108,l),
(335,-10,l),
(456,1,o),
(536,74,o),
(536,176,cs),
(536,273,o),
(465,320,o),
(384,354,cs),
(372,359,o),
(362,358,o),
(354,352,cs),
(349,348,o),
(342,345,o),
(335,345,cs),
(319,345,o),
(307,357,o),
(307,373,cs),
(307,383,o),
(312,392,o),
(320,397,cs),
(329,403,o),
(335,413,o),
(335,425,cs),
(335,571,l),
(383,553,o),
(414,512,o),
(420,462,c),
(512,488,l),
(504,558,o),
(459,613,o),
(393,641,cs),
(376,648,o),
(365,647,o),
(354,637,cs),
(349,633,o),
(342,630,o),
(335,630,cs),
(319,630,o),
(307,642,o),
(307,658,cs),
(307,668,o),
(312,677,o),
(320,682,cs),
(329,688,o),
(335,698,o),
(335,710,cs),
(335,750,l),
(257,750,l),
(257,661,l),
(147,653,o),
(64,589,o),
(64,492,cs),
(64,405,o),
(130,363,o),
(207,332,cs),
(219,327,o),
(230,328,o),
(238,334,cs),
(243,338,o),
(250,341,o),
(257,341,cs),
(273,341,o),
(285,329,o),
(285,313,cs),
(285,303,o),
(280,294,o),
(272,289,cs),
(263,283,o),
(257,273,o),
(257,261,cs),
(257,75,l),
(182,92,o),
(131,151,o),
(128,228,c),
(36,204,l),
(42,108,o),
(104,34,o),
(198,4,cs),
(213,-1,o),
(227,2,o),
(238,12,cs),
(243,16,o),
(250,19,o),
(257,19,cs),
(273,19,o),
(285,7,o),
(285,-9,cs),
(285,-19,o),
(280,-28,o),
(272,-33,cs),
(263,-39,o),
(257,-49,o),
(257,-61,cs),
(257,-108,l)
);
},
{
closed = 1;
nodes = (
(319,45,o),
(307,57,o),
(307,73,cs),
(307,83,o),
(312,92,o),
(320,97,cs),
(329,103,o),
(335,113,o),
(335,125,cs),
(335,285,l),
(396,260,o),
(444,231,o),
(444,176,cs),
(444,136,o),
(417,103,o),
(377,85,cs),
(370,82,o),
(365,75,o),
(362,65,cs),
(359,53,o),
(348,45,o),
(335,45,cs)
);
},
{
closed = 1;
nodes = (
(199,424,o),
(156,450,o),
(156,496,cs),
(156,530,o),
(179,556,o),
(213,570,cs),
(220,573,o),
(227,579,o),
(230,589,cs),
(233,601,o),
(244,609,o),
(257,609,cs),
(273,609,o),
(285,597,o),
(285,581,cs),
(285,571,o),
(280,562,o),
(272,557,cs),
(263,551,o),
(257,541,o),
(257,529,cs),
(257,401,l)
);
},
{
pos = (-6,412);
ref = inkstem_S;
scale = (1,-1);
},
{
pos = (12,220);
ref = inkcurve_S;
},
{
pos = (588,-104);
ref = inkcurve_S;
scale = (-1,1);
},
{
pos = (348,778);
ref = inkstem_S;
scale = (1,-1);
}
);
width = 572;
}
);
metricLeft = S;
metricRight = S;
unicode = 36;
}
{
glyphname = ampersand;
kernLeft = ampersand;
kernRight = ampersand;
layers = (
{
layerId = "8007C042-6FBA-4E49-99B8-8B738A4EBE86";
shapes = (
{
closed = 1;
nodes = (
(404,-12,o),
(490,72,o),
(490,180,cs),
(490,307,l),
(590,307,l),
(590,385,l),
(490,385,l),
(490,512,l),
(414,512,l),
(414,447,ls),
(414,411,o),
(391,385,o),
(360,385,cs),
(270,385,ls),
(204,385,o),
(156,427,o),
(156,486,cs),
(156,545,o),
(204,584,o),
(270,584,cs),
(303,584,o),
(342,572,o),
(362,556,c),
(386,636,l),
(364,651,o),
(316,662,o),
(272,662,cs),
(157,662,o),
(74,589,o),
(74,494,cs),
(74,433,o),
(108,379,o),
(172,348,c),
(92,316,o),
(48,255,o),
(48,180,cs),
(48,67,o),
(147,-12,o),
(274,-12,cs)
);
},
{
closed = 1;
nodes = (
(191,70,o),
(134,120,o),
(134,188,cs),
(134,254,o),
(189,307,o),
(270,307,cs),
(410,307,l),
(410,188,ls),
(410,120,o),
(351,70,o),
(270,70,cs)
);
}
);
width = 612;
},
{
layerId = "ADDE491E-C0C4-4659-943C-53377B387F47";
shapes = (
{
closed = 1;
nodes = (
(438,-12,o),
(544,70,o),
(544,184,cs),
(544,308,l),
(624,308,l),
(624,384,l),
(544,384,l),
(544,504,l),
(402,480,l),
(402,446,ls),
(402,410,o),
(379,384,o),
(348,384,cs),
(292,384,ls),
(246,384,o),
(212,416,o),
(212,460,cs),
(212,504,o),
(249,536,o),
(300,536,cs),
(316,536,o),
(335,533,o),
(352,526,c),
(392,644,l),
(361,656,o),
(332,662,o),
(296,662,cs),
(166,662,o),
(72,586,o),
(72,480,cs),
(72,418,o),
(106,374,o),
(164,344,c),
(86,316,o),
(40,256,o),
(40,184,cs),
(40,70,o),
(146,-12,o),
(292,-12,cs)
);
},
{
closed = 1;
nodes = (
(235,128,o),
(192,166,o),
(192,218,cs),
(192,270,o),
(234,308,o),
(292,308,cs),
(396,308,l),
(396,220,ls),
(396,167,o),
(353,128,o),
(294,128,cs)
);
}
);
width = 648;
},
{
layerId = "0CF550E6-48ED-4BA5-8C66-195B58FED074";
shapes = (
{
closed = 1;
nodes = (
(474,-12,o),
(588,68,o),
(588,184,cs),
(588,308,l),
(648,308,l),
(648,384,l),
(588,384,l),
(588,496,l),
(388,448,l),
(388,448,l),
(388,412,o),
(365,386,o),
(334,386,cs),
(310,386,ls),
(275,386,o),
(252,407,o),
(252,440,cs),
(252,473,o),
(275,494,o),
(310,494,cs),
(326,494,o),
(343,489,o),
(352,480,c),
(424,644,l),
(392,656,o),
(354,662,o),
(312,662,cs),
(167,662,o),
(64,591,o),
(64,484,cs),
(64,420,o),
(98,368,o),
(158,344,c),
(78,320,o),
(32,260,o),
(32,184,cs),
(32,68,o),
(146,-12,o),
(310,-12,cs)
);
},
{
closed = 1;
nodes = (
(271,160,o),
(244,185,o),
(244,225,cs),
(244,265,o),
(270,290,o),
(310,290,cs),
(380,290,l),
(380,225,ls),
(380,185,o),
(353,160,o),
(312,160,cs)
);
}
);
width = 674;
},
{
layerId = m004;
shapes = (
{
closed = 1;
nodes = (
(404,-12,o),
(490,72,o),
(490,180,cs),
(490,307,l),
(590,307,l),
(590,385,l),
(542,385,ls),
(530,385,o),
(520,379,o),
(514,370,cs),
(509,362,o),
(500,357,o),
(490,357,cs),
(474,357,o),
(462,369,o),
(462,385,cs),
(462,395,o),
(467,404,o),
(475,409,cs),
(484,415,o),
(490,425,o),
(490,437,cs),
(490,512,l),
(414,512,l),
(414,447,ls),
(414,411,o),
(391,385,o),
(360,385,cs),
(270,385,ls),
(204,385,o),
(156,427,o),
(156,486,cs),
(156,545,o),
(204,584,o),
(270,584,cs),
(303,584,o),
(342,572,o),
(362,556,c),
(386,636,l),
(364,651,o),
(316,662,o),
(272,662,cs),
(157,662,o),
(74,589,o),
(74,494,cs),
(74,449,o),
(93,407,o),
(129,376,cs),
(141,366,o),
(149,366,o),
(158,372,cs),
(162,375,o),
(167,376,o),
(173,376,cs),
(189,376,o),
(201,364,o),
(201,348,cs),
(201,332,o),
(189,320,o),
(173,320,cs),
(166,320,o),
(159,323,o),
(154,327,cs),
(148,332,o),
(140,333,o),
(132,328,cs),
(78,294,o),
(48,242,o),
(48,180,cs),
(48,67,o),
(147,-12,o),
(274,-12,cs)
);
},
{
closed = 1;
nodes = (
(191,70,o),
(134,120,o),
(134,188,cs),
(134,254,o),
(189,307,o),
(270,307,cs),
(358,307,ls),
(370,307,o),
(380,313,o),
(386,322,cs),
(391,330,o),
(400,335,o),
(410,335,cs),
(426,335,o),
(438,323,o),
(438,307,cs),
(438,297,o),
(433,288,o),
(425,283,cs),
(416,277,o),
(410,267,o),
(410,255,cs),
(410,188,ls),
(410,120,o),
(351,70,o),
(270,70,cs)
);
},
{
pos = (-9,462);
ref = inkcurve_L;
scale = (1,-1);
},
{
angle = 90;
pos = (-4,-72);
ref = inkcurve_L;
scale = (1,-1);
},
{
pos = (16,744);
ref = inkstem_S;
scale = (1,-1);
},
{
angle = -90;
pos = (-6,724);
ref = inkcurve_L;
},
{
pos = (350,-62);
ref = inkstem_S;
}
);
width = 612;
}
);
metricLeft = eight;
unicode = 38;
}
{
glyphname = parenleft;
layers = (
{
layerId = "8007C042-6FBA-4E49-99B8-8B738A4EBE86";
shapes = (
{
closed = 1;
nodes = (
(224,-196,l),
(169,-74,o),
(140,73,o),
(140,238,cs),
(140,401,o),
(168,547,o),
(220,668,c),
(146,684,l),
(82,548,o),
(48,394,o),
(48,240,cs),
(48,88,o),
(83,-68,o),
(148,-212,c)
);
}
);
width = 268;
},
{
layerId = "ADDE491E-C0C4-4659-943C-53377B387F47";
shapes = (
{
closed = 1;
nodes = (
(294,-160,l),
(211,-33,o),
(172,98,o),
(172,244,cs),
(172,392,o),
(211,523,o),
(292,648,c),
(156,708,l),
(77,568,o),
(40,419,o),
(40,246,cs),
(40,72,o),
(78,-78,o),
(158,-220,c)
);
}
);
width = 324;
},
{
layerId = "0CF550E6-48ED-4BA5-8C66-195B58FED074";
shapes = (
{
closed = 1;
nodes = (
(336,-148,l),
(258,-24,o),
(224,90,o),
(224,244,cs),
(224,400,o),
(256,520,o),
(332,636,c),
(128,712,l),
(60,576,o),
(32,438,o),
(32,246,cs),
(32,58,o),
(62,-80,o),
(132,-224,c)
);
}
);
width = 352;
},
{
layerId = m004;
shapes = (
{
closed = 1;
nodes = (
(224,-196,l),
(169,-74,o),
(140,73,o),
(140,238,cs),
(140,401,o),
(168,547,o),
(220,668,c),
(146,684,l),
(82,548,o),
(48,394,o),
(48,240,cs),
(48,88,o),
(83,-68,o),
(148,-212,c)
);
},
{
pos = (60,372);
ref = inkstem_S;
},
{
pos = (64,-402);
ref = inkstem_S;
},
{
angle = 8.56896;
pos = (-34,342);
ref = inkstem_M;
scale = (1,-1);
},
{
angle = 171.79649;
pos = (248,680);
ref = inkstem_L;
}
);
width = 268;
}
);
unicode = 40;
}
{
color = 3;
glyphname = asterisk;
layers = (
{
layerId = "8007C042-6FBA-4E49-99B8-8B738A4EBE86";
shapes = (
{
closed = 1;
nodes = (
(216,368,l),
(198,490,l),
(294,413,l),
(332,479,l),
(217,524,l),
(332,569,l),
(294,635,l),
(198,558,l),
(216,680,l),
(140,680,l),
(158,558,l),
(62,635,l),
(24,569,l),
(139,524,l),
(24,479,l),
(62,413,l),
(158,490,l),
(140,368,l)
);
}
);
width = 356;
},
{
layerId = "ADDE491E-C0C4-4659-943C-53377B387F47";
shapes = (
{
closed = 1;
nodes = (
(244,368,l),
(220,466,l),
(292,396,l),
(348,496,l),
(251,524,l),
(348,552,l),
(292,652,l),
(220,582,l),
(244,680,l),
(128,680,l),
(152,582,l),
(80,652,l),
(24,552,l),
(121,524,l),
(24,496,l),
(80,396,l),
(152,466,l),
(128,368,l)
);
}
);
width = 372;
},
{
layerId = "0CF550E6-48ED-4BA5-8C66-195B58FED074";
shapes = (
{
closed = 1;
nodes = (
(268,368,l),
(217,478,l),
(220,480,l),
(292,382,l),
(366,510,l),
(245,522,l),
(245,526,l),
(366,538,l),
(292,666,l),
(220,568,l),
(217,570,l),
(268,680,l),
(120,680,l),
(171,570,l),
(168,568,l),
(96,666,l),
(22,538,l),
(143,526,l),
(143,522,l),
(22,510,l),
(96,382,l),
(168,480,l),
(171,478,l),
(120,368,l)
);
}
);
width = 388;
},
{
associatedMasterId = "ADDE491E-C0C4-4659-943C-53377B387F47";
layerId = "73A2E8EF-EF1F-43C0-89AC-E24A30801B86";
name = "22 feb 22, 21:01";
shapes = (
{
closed = 1;
nodes = (
(250,368,l),
(234,454,l),
(298,396,l),
(356,496,l),
(274,524,l),
(356,552,l),
(298,652,l),
(234,594,l),
(250,680,l),
(134,680,l),
(150,594,l),
(86,652,l),
(28,552,l),
(110,524,l),
(28,496,l),
(86,396,l),
(150,454,l),
(134,368,l)
);
}
);
width = 384;
},
{
associatedMasterId = "8007C042-6FBA-4E49-99B8-8B738A4EBE86";
layerId = "856829B8-87D6-40F0-9F15-F76DBF26487F";
name = "16 lug 22, 15:18";
shapes = (
{
closed = 1;
nodes = (
(216,368,l),
(204,478,l),
(287,410,l),
(328,482,l),
(230,524,l),
(328,566,l),
(287,638,l),
(204,570,l),
(216,680,l),
(136,680,l),
(148,570,l),
(65,638,l),
(24,566,l),
(122,524,l),
(24,482,l),
(65,410,l),
(148,478,l),
(136,368,l)
);
}
);
width = 352;
},
{
associatedMasterId = "ADDE491E-C0C4-4659-943C-53377B387F47";
layerId = "2E8FC762-9163-4EDD-AFCC-E5CFE4DA0862";
name = "16 lug 22, 15:22";
shapes = (
{
closed = 1;
nodes = (
(242,368,l),
(218,468,l),
(293,398,l),
(348,494,l),
(250,524,l),
(348,554,l),
(293,650,l),
(218,580,l),
(242,680,l),
(130,680,l),
(154,580,l),
(79,650,l),
(24,554,l),
(122,524,l),
(24,494,l),
(79,398,l),
(154,468,l),
(130,368,l)
);
}
);
width = 372;
},
{
associatedMasterId = "0CF550E6-48ED-4BA5-8C66-195B58FED074";
layerId = "CF4A7C46-6824-4980-9076-4CDEE6121E74";
name = "16 lug 22, 15:24";
shapes = (
{
closed = 1;
nodes = (
(266,368,l),
(236,452,l),
(293,384,l),
(364,508,l),
(276,524,l),
(364,540,l),
(293,664,l),
(236,596,l),
(266,680,l),
(122,680,l),
(152,596,l),
(95,664,l),
(24,540,l),
(112,524,l),
(24,508,l),
(95,384,l),
(152,452,l),
(122,368,l)
);
}
);
width = 388;
},
{
layerId = m004;
shapes = (
{
closed = 1;
nodes = (
(216,368,l),
(204,449,ls),
(202,460,o),
(196,461,o),
(187,464,cs),
(177,468,o),
(170,478,o),
(170,490,cs),
(170,506,o),
(182,518,o),
(198,518,cs),
(214,518,o),
(226,506,o),
(226,490,cs),
(226,481,o),
(220,473,o),
(229,465,c),
(294,413,l),
(332,479,l),
(217,524,l),
(332,569,l),
(294,635,l),
(229,583,ls),
(220,575,o),
(226,567,o),
(226,558,cs),
(226,542,o),
(214,530,o),
(198,530,cs),
(182,530,o),
(170,542,o),
(170,558,cs),
(170,570,o),
(177,580,o),
(187,584,cs),
(196,587,o),
(202,588,o),
(204,599,cs),
(216,680,l),
(140,680,l),
(158,558,l),
(62,635,l),
(24,569,l),
(98,540,ls),
(108,536,o),
(113,538,o),
(119,544,cs),
(124,549,o),
(131,552,o),
(139,552,cs),
(155,552,o),
(167,540,o),
(167,524,cs),
(167,508,o),
(155,496,o),
(139,496,cs),
(131,496,o),
(124,499,o),
(119,504,cs),
(113,510,o),
(108,512,o),
(98,508,cs),
(24,479,l),
(62,413,l),
(158,490,l),
(140,368,l)
);
}
);
width = 356;
},
{
associatedMasterId = m004;
layerId = "14B4922E-9151-44C2-9E67-31248CF5E323";
name = "16 lug 22, 15:18";
shapes = (
{
closed = 1;
nodes = (
(216,368,l),
(204,478,l),
(287,410,l),
(328,482,l),
(230,524,l),
(328,566,l),
(287,638,l),
(204,570,l),
(216,680,l),
(136,680,l),
(148,570,l),
(65,638,l),
(24,566,l),
(122,524,l),
(24,482,l),
(65,410,l),
(148,478,l),
(136,368,l)
);
}
);
width = 352;
}
);
metricRight = "=|";
unicode = 42;
}
{
glyphname = plus;
kernLeft = plus;
kernRight = plus;
layers = (
{
layerId = "8007C042-6FBA-4E49-99B8-8B738A4EBE86";
shapes = (
{
closed = 1;
nodes = (
(342,94,l),
(342,542,l),
(258,542,l),
(258,94,l)
);
},
{
ref = minus;
}
);
width = 600;
},
{
layerId = "ADDE491E-C0C4-4659-943C-53377B387F47";
shapes = (
{
closed = 1;
nodes = (
(369,90,l),
(369,546,l),
(231,546,l),
(231,90,l)
);
},
{
ref = minus;
}
);
width = 600;
},
{
layerId = "0CF550E6-48ED-4BA5-8C66-195B58FED074";
shapes = (
{
closed = 1;
nodes = (
(392,90,l),
(392,546,l),
(208,546,l),
(208,90,l)
);
},
{
ref = minus;
}
);
width = 600;
},
{
layerId = m004;
shapes = (
{
closed = 1;
nodes = (
(342,94,l),
(342,278,l),
(520,278,l),
(520,362,l),
(394,362,ls),
(382,362,o),
(372,356,o),
(366,347,cs),
(361,339,o),
(352,334,o),
(342,334,cs),
(326,334,o),
(314,346,o),
(314,362,cs),
(314,372,o),
(319,381,o),
(327,386,cs),
(336,392,o),
(342,402,o),
(342,414,cs),
(342,542,l),
(258,542,l),
(258,362,l),
(80,362,l),
(80,278,l),
(206,278,ls),
(218,278,o),
(228,284,o),
(234,293,cs),
(239,301,o),
(248,306,o),
(258,306,cs),
(274,306,o),
(286,294,o),
(286,278,cs),
(286,268,o),
(281,259,o),
(273,254,cs),
(264,248,o),
(258,238,o),
(258,226,cs),
(258,94,l)
);
},
{
angle = -90;
pos = (-114,420);
ref = inkstem_S;
},
{
angle = -90;
pos = (214,420);
ref = inkstem_S;
},
{
angle = -90;
pos = (50,586);
ref = inkstem_S;
}
);
width = 600;
}
);
metricRight = "=|";
unicode = 43;
}
{
glyphname = comma;
kernLeft = period;
kernRight = period;
layers = (
{
layerId = "8007C042-6FBA-4E49-99B8-8B738A4EBE86";
shapes = (
{
closed = 1;
nodes = (
(164,-42,o),
(164,30,cs),
(164,85,o),
(134,124,o),
(92,124,cs),
(57,124,o),
(32,97,o),
(32,60,cs),
(32,19,o),
(64,-8,o),
(108,-4,c),
(108,-40,o),
(72,-56,o),
(36,-48,c),
(32,-92,l),
(116,-104,o)
);
}
);
width = 204;
},
{
layerId = "ADDE491E-C0C4-4659-943C-53377B387F47";
shapes = (
{
closed = 1;
nodes = (
(208,-64,o),
(208,48,cs),
(208,118,o),
(171,168,o),
(115,168,cs),
(67,168,o),
(32,132,o),
(32,82,cs),
(32,33,o),
(66,-2,o),
(114,-2,c),
(96,-27,o),
(59,-28,o),
(36,-22,c),
(32,-95,l),
(117,-112,o)
);
}
);
width = 248;
},
{
layerId = "0CF550E6-48ED-4BA5-8C66-195B58FED074";
shapes = (
{
closed = 1;
nodes = (
(252,-66,o),
(252,55,cs),
(252,135,o),
(204,192,o),
(136,192,cs),
(77,192,o),
(36,152,o),
(36,96,cs),
(36,44,o),
(76,4,o),
(132,0,c),
(115,-29,o),
(73,-31,o),
(40,-25,c),
(32,-112,l),
(152,-132,o)
);
}
);
width = 292;
},
{
layerId = m004;
shapes = (
{
closed = 1;
nodes = (
(164,-42,o),
(164,30,cs),
(164,85,o),
(134,124,o),
(92,124,cs),
(57,124,o),
(32,97,o),
(32,60,cs),
(32,19,o),
(64,-8,o),
(108,-4,c),
(108,-40,o),
(72,-56,o),
(36,-48,c),
(32,-92,l),
(116,-104,o)
);
},
{
pos = (-4,-192);
ref = inkstem_S;
}
);
width = 204;
}
);
metricLeft = period;
metricRight = period;
unicode = 44;
}
{
color = 10;
glyphname = hyphen;
kernLeft = hyphen;
kernRight = hyphen;
layers = (
{
layerId = "8007C042-6FBA-4E49-99B8-8B738A4EBE86";
shapes = (
{
closed = 1;
nodes = (
(372,219,l),
(372,297,l),
(24,297,l),
(24,219,l)
);
}
);
width = 396;
},
{
layerId = "ADDE491E-C0C4-4659-943C-53377B387F47";
shapes = (
{
closed = 1;
nodes = (
(384,200,l),
(384,312,l),
(20,312,l),
(20,200,l)
);
}
);
width = 404;
},
{
layerId = "0CF550E6-48ED-4BA5-8C66-195B58FED074";
shapes = (
{
closed = 1;
nodes = (
(396,184,l),
(396,328,l),
(16,328,l),
(16,184,l)
);
}
);
width = 412;
},
{
layerId = m004;
shapes = (
{
closed = 1;
nodes = (
(372,219,l),
(372,297,l),
(24,297,l),
(24,219,l)
);
},
{
angle = -90;
pos = (-170,358);
ref = inkstem_S;
},
{
angle = -90;
pos = (66,358);
ref = inkstem_S;
}
);
width = 396;
}
);
metricRight = "=|";
unicode = 45;
}
{
color = 10;
glyphname = period;
kernLeft = period;
kernRight = period;
layers = (
{
layerId = "8007C042-6FBA-4E49-99B8-8B738A4EBE86";
shapes = (
{
closed = 1;
nodes = (
(133,-8,o),
(160,20,o),
(160,58,cs),
(160,96,o),
(133,124,o),
(96,124,cs),
(59,124,o),
(32,96,o),
(32,58,cs),
(32,20,o),
(59,-8,o),
(96,-8,cs)
);
}
);
width = 200;
},
{
layerId = "ADDE491E-C0C4-4659-943C-53377B387F47";
shapes = (
{
closed = 1;
nodes = (
(168,-8,o),
(204,29,o),
(204,80,cs),
(204,131,o),
(168,168,o),
(118,168,cs),
(68,168,o),
(32,131,o),
(32,80,cs),
(32,29,o),
(68,-8,o),
(118,-8,cs)
);
}
);
width = 244;
},
{
layerId = "0CF550E6-48ED-4BA5-8C66-195B58FED074";
shapes = (
{
closed = 1;
nodes = (
(198,-8,o),
(240,32,o),
(240,92,cs),
(240,152,o),
(198,192,o),
(136,192,cs),
(74,192,o),
(32,152,o),
(32,92,cs),
(32,32,o),
(74,-8,o),
(136,-8,cs)
);
}
);
width = 280;
},
{
layerId = m004;
shapes = (
{
closed = 1;
nodes = (
(133,-8,o),
(160,20,o),
(160,58,cs),
(160,96,o),
(133,124,o),
(96,124,cs),
(59,124,o),
(32,96,o),
(32,58,cs),
(32,20,o),
(59,-8,o),
(96,-8,cs)
);
},
{
pos = (-4,-192);
ref = inkstem_S;
}
);
width = 200;
}
);
metricRight = "=|+8";
unicode = 46;
}
{
glyphname = slash;
layers = (
{
layerId = "8007C042-6FBA-4E49-99B8-8B738A4EBE86";
shapes = (
{
closed = 1;
nodes = (
(240,672,l),
(162,684,l),
(-8,-192,l),
(72,-204,l)
);
}
);
width = 244;
},
{
layerId = "ADDE491E-C0C4-4659-943C-53377B387F47";
shapes = (
{
closed = 1;
nodes = (
(308,664,l),
(170,692,l),
(-12,-180,l),
(128,-212,l)
);
}
);
width = 308;
},
{
layerId = "0CF550E6-48ED-4BA5-8C66-195B58FED074";
shapes = (
{
closed = 1;
nodes = (
(384,648,l),
(184,696,l),
(-16,-164,l),
(188,-216,l)
);
}
);
width = 380;
},
{
layerId = m004;
shapes = (
{
closed = 1;
nodes = (
(240,672,l),
(162,684,l),
(-8,-192,l),
(72,-204,l)
);
},
{
angle = 169.01739;
pos = (249,398);
ref = inkstem_L;
},
{
angle = 170.61256;
pos = (192,141);
ref = inkstem_M;
},
{
pos = (90,373);
ref = inkstem_S;
},
{
angle = 168.58467;
pos = (304,671);
ref = inkstem_M;
}
);
width = 244;
}
);
unicode = 47;
}
{
glyphname = zero;
kernLeft = zero;
kernRight = zero;
layers = (
{
layerId = "8007C042-6FBA-4E49-99B8-8B738A4EBE86";
shapes = (
{
closed = 1;
nodes = (
(478,-12,o),
(592,128,o),
(592,325,cs),
(592,522,o),
(478,662,o),
(316,662,cs),
(154,662,o),
(40,522,o),
(40,325,cs),
(40,128,o),
(154,-12,o),
(316,-12,cs)
);
},
{
closed = 1;
nodes = (
(206,72,o),
(128,177,o),
(128,326,cs),
(128,475,o),
(206,580,o),
(316,580,cs),
(426,580,o),
(504,475,o),
(504,326,cs),
(504,177,o),
(426,72,o),
(316,72,cs)
);
}
);
width = 632;
},
{
layerId = "ADDE491E-C0C4-4659-943C-53377B387F47";
shapes = (
{
closed = 1;
nodes = (
(478,-12,o),
(596,129,o),
(596,325,cs),
(596,521,o),
(478,662,o),
(314,662,cs),
(150,662,o),
(32,521,o),
(32,325,cs),
(32,129,o),
(150,-12,o),
(314,-12,cs)
);
},
{
closed = 1;
nodes = (
(238,132,o),
(188,209,o),
(188,327,cs),
(188,445,o),
(238,522,o),
(314,522,cs),
(390,522,o),
(440,445,o),
(440,327,cs),
(440,209,o),
(390,132,o),
(314,132,cs)
);
}
);
width = 628;
},
{
layerId = "0CF550E6-48ED-4BA5-8C66-195B58FED074";
shapes = (
{
closed = 1;
nodes = (
(480,-12,o),
(600,129,o),
(600,325,cs),
(600,521,o),
(480,662,o),
(312,662,cs),
(144,662,o),
(24,521,o),
(24,325,cs),
(24,129,o),
(144,-12,o),
(312,-12,cs)
);
},
{
closed = 1;
nodes = (
(261,182,o),
(228,239,o),
(228,326,cs),
(228,413,o),
(261,470,o),
(312,470,cs),
(363,470,o),
(396,413,o),
(396,326,cs),
(396,239,o),
(363,182,o),
(312,182,cs)
);
}
);
width = 624;
},
{
layerId = m004;
shapes = (
{
closed = 1;
nodes = (
(478,-12,o),
(592,128,o),
(592,325,cs),
(592,522,o),
(478,662,o),
(316,662,cs),
(154,662,o),
(40,522,o),
(40,325,cs),
(40,128,o),
(154,-12,o),
(316,-12,cs)
);
},
{
closed = 1;
nodes = (
(206,72,o),
(128,177,o),
(128,326,cs),
(128,475,o),
(206,580,o),
(316,580,cs),
(426,580,o),
(504,475,o),
(504,326,cs),
(504,177,o),
(426,72,o),
(316,72,cs)
);
},
{
pos = (42,-128);
ref = inkstem_S;
},
{
angle = 90;
pos = (594,-70);
ref = inkcurve_L;
},
{
pos = (-17,47);
ref = inkcurve_L;
},
{
pos = (388,-128);
ref = inkstem_S;
},
{
pos = (44,780);
ref = inkstem_S;
scale = (1,-1);
},
{
pos = (648,48);
ref = inkcurve_L;
scale = (-1,1);
},
{
angle = 90;
pos = (594,722);
ref = inkcurve_L;
scale = (-1,1);
},
{
pos = (387,780);
ref = inkstem_S;
scale = (1,-1);
}
);
width = 632;
}
);
metricRight = "=|";
unicode = 48;
}
{
glyphname = one;
kernLeft = one;
kernRight = one;
layers = (
{
layerId = "8007C042-6FBA-4E49-99B8-8B738A4EBE86";
shapes = (
{
closed = 1;
nodes = (
(224,0,l),
(224,650,l),
(144,650,l),
(144,608,ls),
(144,552,o),
(106,512,o),
(52,512,cs),
(8,512,l),
(8,434,l),
(140,434,l),
(140,0,l)
);
}
);
width = 288;
},
{
layerId = "ADDE491E-C0C4-4659-943C-53377B387F47";
shapes = (
{
closed = 1;
nodes = (
(286,0,l),
(286,650,l),
(142,650,l),
(142,604,ls),
(142,551,o),
(107,516,o),
(54,516,cs),
(14,516,l),
(14,380,l),
(138,380,l),
(138,0,l)
);
}
);
width = 336;
},
{
layerId = "0CF550E6-48ED-4BA5-8C66-195B58FED074";
shapes = (
{
closed = 1;
nodes = (
(348,0,l),
(348,650,l),
(142,650,l),
(142,604,ls),
(142,553,o),
(107,520,o),
(54,520,cs),
(20,520,l),
(20,336,l),
(136,336,l),
(136,0,l)
);
}
);
width = 390;
},
{
layerId = m004;
shapes = (
{
closed = 1;
nodes = (
(224,0,l),
(224,650,l),
(144,650,l),
(144,608,ls),
(144,552,o),
(106,512,o),
(52,512,cs),
(8,512,l),
(8,434,l),
(88,434,ls),
(100,434,o),
(110,440,o),
(116,449,cs),
(121,457,o),
(130,462,o),
(140,462,cs),
(156,462,o),
(168,450,o),
(168,434,cs),
(168,424,o),
(163,415,o),
(155,410,cs),
(146,404,o),
(140,394,o),
(140,382,cs),
(140,0,l)
);
},
{
pos = (82,-194);
ref = inkstem_S;
},
{
pos = (82,344);
ref = inkstem_S;
},
{
pos = (82,-80);
ref = inkstem_L;
}
);
width = 288;
}
);
metricRight = l;
unicode = 49;
}
{
glyphname = two;
kernLeft = two;
kernRight = two;
layers = (
{
layerId = "8007C042-6FBA-4E49-99B8-8B738A4EBE86";
shapes = (
{
closed = 1;
nodes = (
(464,0,l),
(464,86,l),
(128,86,l),
(136,150,o),
(205,196,o),
(293,238,cs),
(385,282,o),
(462,350,o),
(462,460,cs),
(462,580,o),
(376,662,o),
(256,662,cs),
(119,662,o),
(30,560,o),
(46,400,c),
(136,412,l),
(120,504,o),
(176,580,o),
(260,580,cs),
(330,580,o),
(380,527,o),
(380,452,cs),
(380,360,o),
(304,320,o),
(232,288,cs),
(105,232,o),
(36,160,o),
(36,20,cs),
(36,0,l)
);
}
);
width = 496;
},
{
layerId = "ADDE491E-C0C4-4659-943C-53377B387F47";
shapes = (
{
closed = 1;
nodes = (
(476,0,l),
(476,144,l),
(192,144,l),
(212,196,o),
(264,236,o),
(328,268,cs),
(404,306,o),
(480,368,o),
(480,468,cs),
(480,581,o),
(388,662,o),
(260,662,cs),
(124,662,o),
(28,572,o),
(24,448,c),
(176,436,l),
(176,486,o),
(210,526,o),
(256,526,cs),
(298,526,o),
(328,492,o),
(328,444,cs),
(328,396,o),
(296,354,o),
(232,322,cs),
(88,250,o),
(24,168,o),
(24,32,cs),
(24,0,l)
);
}
);
width = 512;
},
{
layerId = "0CF550E6-48ED-4BA5-8C66-195B58FED074";
shapes = (
{
closed = 1;
nodes = (
(498,0,l),
(498,192,l),
(268,192,l),
(286,241,o),
(354,264,o),
(418,308,cs),
(466,341,o),
(508,392,o),
(508,464,cs),
(508,580,o),
(409,662,o),
(270,662,cs),
(130,662,o),
(25,567,o),
(16,432,c),
(216,408,l),
(218,449,o),
(240,476,o),
(272,476,cs),
(299,476,o),
(316,457,o),
(316,428,cs),
(316,400,o),
(299,378,o),
(260,356,cs),
(92,261,o),
(20,188,o),
(20,48,cs),
(20,0,l)
);
}
);
width = 536;
},
{
associatedMasterId = "8007C042-6FBA-4E49-99B8-8B738A4EBE86";
background = {
shapes = (
{
closed = 1;
nodes = (
(460,0,l),
(460,86,l),
(128,86,l),
(132,158,o),
(208,188,o),
(300,240,cs),
(364,276,o),
(458,324,o),
(458,456,cs),
(458,580,o),
(372,662,o),
(252,662,cs),
(129,662,o),
(40,570,o),
(40,442,cs),
(40,428,o),
(41,412,o),
(42,392,c),
(132,402,l),
(129,418,o),
(128,431,o),
(128,442,cs),
(128,521,o),
(181,580,o),
(254,580,cs),
(325,580,o),
(376,525,o),
(376,448,cs),
(376,360,o),
(308,332,o),
(274,314,cs),
(126,238,o),
(32,184,o),
(32,24,cs),
(32,0,l)
);
}
);
};
layerId = "6E0BCBDE-BF78-4298-AFDE-0E4060FD5EC1";
name = "26 giu 22, 16:09";
shapes = (
{
closed = 1;
nodes = (
(460,0,l),
(460,86,l),
(128,86,l),
(132,158,o),
(208,188,o),
(300,240,cs),
(364,276,o),
(458,324,o),
(458,456,cs),
(458,580,o),
(372,662,o),
(252,662,cs),
(129,662,o),
(40,570,o),
(40,442,cs),
(40,428,o),
(41,412,o),
(42,392,c),
(132,402,l),
(129,418,o),
(128,431,o),
(128,442,cs),
(128,521,o),
(181,580,o),
(254,580,cs),
(325,580,o),
(376,525,o),
(376,448,cs),
(376,360,o),
(308,332,o),
(274,314,cs),
(126,238,o),
(32,184,o),
(32,24,cs),
(32,0,l)
);
}
);
width = 496;
},
{
layerId = m004;
shapes = (
{
closed = 1;
nodes = (
(464,0,l),
(464,86,l),
(174,86,ls),
(165,86,o),
(156,81,o),
(153,73,cs),
(149,64,o),
(139,58,o),
(128,58,cs),
(112,58,o),
(100,70,o),
(100,86,cs),
(100,99,o),
(108,110,o),
(120,113,cs),
(130,116,o),
(135,115,o),
(142,127,cs),
(166,167,o),
(221,204,o),
(293,238,cs),
(385,282,o),
(462,350,o),
(462,460,cs),
(462,580,o),
(376,662,o),
(256,662,cs),
(119,662,o),
(30,560,o),
(46,400,c),
(136,412,l),
(120,504,o),
(176,580,o),
(260,580,cs),
(330,580,o),
(380,527,o),
(380,452,cs),
(380,360,o),
(304,320,o),
(232,288,cs),
(105,232,o),
(36,160,o),
(36,20,cs),
(36,0,l)
);
},
{
angle = -90;
pos = (40,143);
ref = inkstem_L;
},
{
pos = (522,178);
ref = inkcurve_L;
scale = (-1,1);
},
{
angle = 90;
pos = (538,721);
ref = inkcurve_L;
scale = (-1,1);
},
{
pos = (-9,213);
ref = inkstem_S;
},
{
angle = -64.80004;
pos = (-6,248);
ref = inkstem_M;
},
{
pos = (54,-52);
ref = inkstem_S;
}
);
width = 496;
},
{
associatedMasterId = m004;
background = {
shapes = (
{
closed = 1;
nodes = (
(460,0,l),
(460,86,l),
(128,86,l),
(132,158,o),
(208,188,o),
(300,240,cs),
(364,276,o),
(458,324,o),
(458,456,cs),
(458,580,o),
(372,662,o),
(252,662,cs),
(129,662,o),
(40,570,o),
(40,442,cs),
(40,428,o),
(41,412,o),
(42,392,c),
(132,402,l),
(129,418,o),
(128,431,o),
(128,442,cs),
(128,521,o),
(181,580,o),
(254,580,cs),
(325,580,o),
(376,525,o),
(376,448,cs),
(376,360,o),
(308,332,o),
(274,314,cs),
(126,238,o),
(32,184,o),
(32,24,cs),
(32,0,l)
);
}
);
};
layerId = "EBE95EB7-3147-45A8-9B6E-E07CE2033912";
name = "26 giu 22, 16:09";
shapes = (
{
closed = 1;
nodes = (
(460,0,l),
(460,86,l),
(128,86,l),
(132,158,o),
(208,188,o),
(300,240,cs),
(364,276,o),
(458,324,o),
(458,456,cs),
(458,580,o),
(372,662,o),
(252,662,cs),
(129,662,o),
(40,570,o),
(40,442,cs),
(40,428,o),
(41,412,o),
(42,392,c),
(132,402,l),
(129,418,o),
(128,431,o),
(128,442,cs),
(128,521,o),
(181,580,o),
(254,580,cs),
(325,580,o),
(376,525,o),
(376,448,cs),
(376,360,o),
(308,332,o),
(274,314,cs),
(126,238,o),
(32,184,o),
(32,24,cs),
(32,0,l)
);
}
);
width = 496;
}
);
unicode = 50;
}
{
glyphname = three;
kernLeft = three;
kernRight = eight;
layers = (
{
layerId = "8007C042-6FBA-4E49-99B8-8B738A4EBE86";
shapes = (
{
closed = 1;
nodes = (
(397,-12,o),
(492,78,o),
(492,204,cs),
(492,324,o),
(404,412,o),
(284,416,c),
(288,404,l),
(472,568,l),
(472,650,l),
(64,650,l),
(64,570,l),
(368,570,l),
(168,388,l),
(224,328,l),
(320,360,o),
(404,298,o),
(404,206,cs),
(404,128,o),
(346,72,o),
(266,72,cs),
(176,72,o),
(113,142,o),
(120,240,c),
(32,214,l),
(32,82,o),
(129,-12,o),
(264,-12,cs)
);
}
);
width = 532;
},
{
layerId = "ADDE491E-C0C4-4659-943C-53377B387F47";
shapes = (
{
closed = 1;
nodes = (
(425,-12,o),
(528,78,o),
(528,204,cs),
(528,316,o),
(450,396,o),
(340,396,c),
(344,380,l),
(504,496,l),
(504,650,l),
(64,650,l),
(64,510,l),
(372,510,l),
(208,392,l),
(256,328,l),
(320,344,o),
(376,300,o),
(376,230,cs),
(376,171,o),
(336,128,o),
(280,128,cs),
(222,128,o),
(182,172,o),
(186,232,c),
(32,208,l),
(32,80,o),
(135,-12,o),
(280,-12,cs)
);
}
);
width = 560;
},
{
layerId = "0CF550E6-48ED-4BA5-8C66-195B58FED074";
shapes = (
{
closed = 1;
nodes = (
(449,-12,o),
(560,75,o),
(560,196,cs),
(560,285,o),
(500,364,o),
(416,384,c),
(416,368,l),
(532,446,l),
(532,650,l),
(64,650,l),
(64,468,l),
(348,468,l),
(208,376,l),
(260,296,l),
(296,320,o),
(348,301,o),
(348,240,cs),
(348,200,o),
(325,172,o),
(292,172,cs),
(259,172,o),
(236,199,o),
(236,236,c),
(28,216,l),
(28,84,o),
(144,-12,o),
(300,-12,cs)
);
}
);
width = 588;
},
{
associatedMasterId = "8007C042-6FBA-4E49-99B8-8B738A4EBE86";
layerId = "EAF28361-CC40-47DA-885B-45FA73BDB08E";
name = "26 giu 22, 16:05";
shapes = (
{
closed = 1;
nodes = (
(395,-12,o),
(492,80,o),
(492,208,cs),
(492,324,o),
(416,408,o),
(304,416,c),
(228,336,l),
(240,342,o),
(256,344,o),
(268,344,cs),
(340,344,o),
(404,292,o),
(404,208,cs),
(404,131,o),
(346,72,o),
(266,72,cs),
(184,72,o),
(126,130,o),
(126,212,cs),
(126,262,l),
(40,262,l),
(40,206,ls),
(40,79,o),
(134,-12,o),
(264,-12,cs)
);
},
{
closed = 1;
nodes = (
(304,416,l),
(472,568,l),
(472,650,l),
(68,650,l),
(68,570,l),
(368,570,l),
(176,396,l),
(228,336,l)
);
}
);
width = 528;
},
{
associatedMasterId = "ADDE491E-C0C4-4659-943C-53377B387F47";
background = {
shapes = (
{
closed = 1;
nodes = (
(419,-12,o),
(520,81,o),
(520,204,cs),
(520,309,o),
(452,389,o),
(356,396,c),
(256,330,l),
(262,331,o),
(268,332,o),
(276,332,cs),
(330,332,o),
(368,290,o),
(368,230,cs),
(368,170,o),
(329,128,o),
(274,128,cs),
(220,128,o),
(182,169,o),
(182,228,cs),
(182,272,l),
(32,272,l),
(32,216,ls),
(32,84,o),
(136,-12,o),
(280,-12,cs)
);
},
{
closed = 1;
nodes = (
(356,396,l),
(496,500,l),
(496,650,l),
(64,650,l),
(64,512,l),
(356,512,l),
(208,384,l),
(256,330,l)
);
}
);
};
layerId = "31B95D53-51B7-4A28-9166-1C96326757AF";
name = "26 giu 22, 19:19";
shapes = (
{
closed = 1;
nodes = (
(419,-12,o),
(520,81,o),
(520,204,cs),
(520,309,o),
(452,389,o),
(356,396,c),
(256,330,l),
(262,331,o),
(268,332,o),
(276,332,cs),
(330,332,o),
(368,290,o),
(368,230,cs),
(368,170,o),
(329,128,o),
(274,128,cs),
(220,128,o),
(182,169,o),
(182,228,cs),
(182,272,l),
(32,272,l),
(32,216,ls),
(32,84,o),
(136,-12,o),
(280,-12,cs)
);
},
{
closed = 1;
nodes = (
(356,396,l),
(496,500,l),
(496,650,l),
(64,650,l),
(64,512,l),
(356,512,l),
(208,384,l),
(256,330,l)
);
}
);
width = 552;
},
{
associatedMasterId = "0CF550E6-48ED-4BA5-8C66-195B58FED074";
background = {
shapes = (
{
closed = 1;
nodes = (
(264,301,o),
(274,304,o),
(286,304,cs),
(322,304,o),
(344,277,o),
(344,236,cs),
(344,197,o),
(323,172,o),
(290,172,cs),
(257,172,o),
(236,197,o),
(236,236,cs),
(236,264,l),
(28,264,l),
(28,216,l),
(28,82,o),
(139,-12,o),
(296,-12,cs),
(446,-12,o),
(552,65,o),
(552,196,cs),
(552,272,o),
(516,352,o),
(424,376,c),
(524,446,l),
(524,650,l),
(64,650,l),
(64,468,l),
(340,468,l),
(204,376,l),
(256,296,l)
);
}
);
};
layerId = "0DD29951-6B16-48C5-93DB-7419CF8AC51E";
name = "26 giu 22, 22:35";
shapes = (
{
closed = 1;
nodes = (
(264,301,o),
(274,304,o),
(286,304,cs),
(322,304,o),
(344,277,o),
(344,236,cs),
(344,197,o),
(323,172,o),
(290,172,cs),
(257,172,o),
(236,197,o),
(236,236,cs),
(236,264,l),
(28,264,l),
(28,216,l),
(28,82,o),
(139,-12,o),
(296,-12,cs),
(446,-12,o),
(552,65,o),
(552,196,cs),
(552,272,o),
(516,352,o),
(424,376,c),
(524,446,l),
(524,650,l),
(64,650,l),
(64,468,l),
(340,468,l),
(204,376,l),
(256,296,l)
);
}
);
width = 580;
},
{
layerId = m004;
shapes = (
{
closed = 1;
nodes = (
(397,-12,o),
(492,78,o),
(492,204,cs),
(492,303,o),
(433,379,o),
(346,406,cs),
(338,408,o),
(329,405,o),
(322,397,cs),
(317,391,o),
(309,387,o),
(300,387,cs),
(284,387,o),
(272,399,o),
(272,415,cs),
(272,431,o),
(284,443,o),
(300,443,cs),
(310,443,o),
(323,435,o),
(335,446,cs),
(472,568,l),
(472,650,l),
(64,650,l),
(64,570,l),
(322,570,ls),
(330,570,o),
(339,576,o),
(344,585,cs),
(349,593,o),
(358,598,o),
(368,598,cs),
(384,598,o),
(396,586,o),
(396,570,cs),
(396,554,o),
(384,542,o),
(368,542,cs),
(356,542,o),
(348,552,o),
(335,540,cs),
(168,388,l),
(224,328,l),
(320,360,o),
(404,298,o),
(404,206,cs),
(404,128,o),
(346,72,o),
(266,72,cs),
(176,72,o),
(113,142,o),
(120,240,c),
(32,214,l),
(32,82,o),
(129,-12,o),
(264,-12,cs)
);
},
{
pos = (-18,-78);
ref = inkstem_S;
},
{
angle = 90;
pos = (544,-71);
ref = inkcurve_L;
},
{
pos = (548,-78);
ref = inkcurve_L;
scale = (-1,1);
},
{
angle = -90;
pos = (-132,710);
ref = inkstem_L;
},
{
pos = (292,84);
ref = inkstem_S;
}
);
width = 532;
},
{
associatedMasterId = m004;
layerId = "98739BAD-D228-4E9A-9513-9498553329A2";
name = "26 giu 22, 16:05";
shapes = (
{
closed = 1;
nodes = (
(395,-12,o),
(492,80,o),
(492,208,cs),
(492,324,o),
(416,408,o),
(304,416,c),
(228,336,l),
(240,342,o),
(256,344,o),
(268,344,cs),
(340,344,o),
(404,292,o),
(404,208,cs),
(404,131,o),
(346,72,o),
(266,72,cs),
(184,72,o),
(126,130,o),
(126,212,cs),
(126,262,l),
(40,262,l),
(40,206,ls),
(40,79,o),
(134,-12,o),
(264,-12,cs)
);
},
{
closed = 1;
nodes = (
(304,416,l),
(472,568,l),
(472,650,l),
(68,650,l),
(68,570,l),
(368,570,l),
(176,396,l),
(228,336,l)
);
}
);
width = 528;
}
);
unicode = 51;
}
{
glyphname = four;
kernLeft = four;
kernRight = four;
layers = (
{
layerId = "8007C042-6FBA-4E49-99B8-8B738A4EBE86";
shapes = (
{
closed = 1;
nodes = (
(528,152,l),
(528,232,l),
(104,232,l),
(192,308,o),
(248,440,o),
(248,592,cs),
(248,650,l),
(164,650,l),
(164,568,ls),
(164,427,o),
(109,305,o),
(16,240,c),
(16,152,l)
);
},
{
closed = 1;
nodes = (
(420,0,l),
(420,540,l),
(336,524,l),
(336,0,l)
);
}
);
width = 532;
},
{
layerId = "ADDE491E-C0C4-4659-943C-53377B387F47";
shapes = (
{
closed = 1;
nodes = (
(544,128,l),
(544,260,l),
(140,260,l),
(242,332,o),
(290,451,o),
(290,628,cs),
(290,650,l),
(134,650,l),
(134,608,ls),
(134,463,o),
(95,347,o),
(20,272,c),
(20,128,l)
);
},
{
closed = 1;
nodes = (
(468,0,l),
(468,516,l),
(326,484,l),
(326,0,l)
);
}
);
width = 552;
},
{
layerId = "0CF550E6-48ED-4BA5-8C66-195B58FED074";
shapes = (
{
closed = 1;
nodes = (
(584,108,l),
(584,288,l),
(184,288,l),
(293,350,o),
(340,459,o),
(340,650,cs),
(340,650,l),
(128,650,l),
(128,630,ls),
(128,476,o),
(98,382,o),
(28,316,c),
(28,108,l)
);
},
{
closed = 1;
nodes = (
(520,0,l),
(520,468,l),
(328,420,l),
(328,0,l)
);
}
);
width = 592;
},
{
layerId = m004;
shapes = (
{
closed = 1;
nodes = (
(420,0,l),
(420,100,ls),
(420,112,o),
(414,122,o),
(405,128,cs),
(397,133,o),
(392,142,o),
(392,152,cs),
(392,168,o),
(404,180,o),
(420,180,cs),
(430,180,o),
(439,175,o),
(444,167,cs),
(450,158,o),
(460,152,o),
(472,152,cs),
(528,152,l),
(528,232,l),
(420,232,l),
(420,540,l),
(336,524,l),
(336,284,ls),
(336,272,o),
(342,262,o),
(351,256,cs),
(359,251,o),
(364,242,o),
(364,232,cs),
(364,216,o),
(352,204,o),
(336,204,cs),
(326,204,o),
(317,209,o),
(312,217,cs),
(306,226,o),
(296,232,o),
(284,232,cs),
(158,232,ls),
(144,232,o),
(134,226,o),
(128,217,cs),
(123,209,o),
(114,204,o),
(104,204,cs),
(88,204,o),
(76,216,o),
(76,232,cs),
(76,248,o),
(88,260,o),
(104,260,cs),
(118,260,o),
(124,250,o),
(137,265,cs),
(206,343,o),
(248,460,o),
(248,592,cs),
(248,650,l),
(164,650,l),
(164,568,ls),
(164,427,o),
(109,305,o),
(16,240,c),
(16,152,l),
(336,152,l),
(336,0,l)
);
},
{
pos = (278,-194);
ref = inkstem_S;
},
{
angle = -14.99999;
pos = (21,208);
ref = inkstem_M;
},
{
angle = 180;
pos = (478,728);
ref = inkstem_L;
},
{
pos = (106,344);
ref = inkstem_S;
}
);
width = 532;
}
);
unicode = 52;
}
{
glyphname = five;
kernLeft = five;
kernRight = five;
layers = (
{
layerId = "8007C042-6FBA-4E49-99B8-8B738A4EBE86";
shapes = (
{
closed = 1;
nodes = (
(411,-12,o),
(508,83,o),
(508,216,cs),
(508,349,o),
(415,444,o),
(286,444,cs),
(226,444,o),
(165,422,o),
(136,388,c),
(148,384,l),
(176,570,l),
(480,570,l),
(480,650,l),
(104,650,l),
(64,332,l),
(152,308,l),
(176,344,o),
(224,368,o),
(276,368,cs),
(360,368,o),
(420,306,o),
(420,220,cs),
(420,134,o),
(359,72,o),
(274,72,cs),
(184,72,o),
(120,144,o),
(128,240,c),
(40,214,l),
(40,82,o),
(141,-12,o),
(276,-12,cs)
);
}
);
width = 544;
},
{
layerId = "ADDE491E-C0C4-4659-943C-53377B387F47";
shapes = (
{
closed = 1;
nodes = (
(437,-12,o),
(540,83,o),
(540,216,cs),
(540,344,o),
(447,436,o),
(316,436,cs),
(252,436,o),
(187,411,o),
(160,376,c),
(180,368,l),
(188,512,l),
(504,512,l),
(504,650,l),
(96,650,l),
(68,332,l),
(200,300,l),
(210,330,o),
(246,352,o),
(286,352,cs),
(342,352,o),
(382,305,o),
(382,240,cs),
(382,175,o),
(342,128,o),
(286,128,cs),
(230,128,o),
(192,171,o),
(196,232,c),
(36,216,l),
(36,83,o),
(143,-12,o),
(292,-12,cs)
);
}
);
width = 568;
},
{
layerId = "0CF550E6-48ED-4BA5-8C66-195B58FED074";
shapes = (
{
closed = 1;
nodes = (
(440,-12,o),
(548,81,o),
(548,212,cs),
(548,333,o),
(455,420,o),
(326,420,cs),
(264,420,o),
(206,398,o),
(168,360,c),
(180,352,l),
(186,468,l),
(510,468,l),
(510,650,l),
(90,650,l),
(58,312,l),
(224,268,l),
(234,296,o),
(257,312,o),
(282,312,cs),
(316,312,o),
(340,283,o),
(340,242,cs),
(340,201,o),
(317,172,o),
(284,172,cs),
(254,172,o),
(232,196,o),
(232,232,c),
(24,216,l),
(24,83,o),
(134,-12,o),
(288,-12,cs)
);
}
);
width = 568;
},
{
layerId = m004;
shapes = (
{
closed = 1;
nodes = (
(411,-12,o),
(508,83,o),
(508,216,cs),
(508,349,o),
(415,444,o),
(286,444,cs),
(253,444,o),
(220,437,o),
(192,426,cs),
(183,423,o),
(177,414,o),
(177,402,cs),
(177,386,o),
(165,374,o),
(149,374,cs),
(133,374,o),
(121,386,o),
(121,402,cs),
(121,415,o),
(129,426,o),
(141,429,cs),
(149,431,o),
(155,437,o),
(157,444,cs),
(168,517,ls),
(173,553,o),
(148,544,o),
(148,570,cs),
(148,586,o),
(160,598,o),
(176,598,cs),
(186,598,o),
(195,593,o),
(200,585,cs),
(206,576,o),
(216,570,o),
(228,570,cs),
(480,570,l),
(480,650,l),
(104,650,l),
(64,332,l),
(152,308,l),
(176,344,o),
(224,368,o),
(276,368,cs),
(360,368,o),
(420,306,o),
(420,220,cs),
(420,134,o),
(359,72,o),
(274,72,cs),
(184,72,o),
(120,144,o),
(128,240,c),
(40,214,l),
(40,82,o),
(141,-12,o),
(276,-12,cs)
);
},
{
pos = (-11,-78);
ref = inkstem_S;
},
{
angle = 90;
pos = (-2,-71);
ref = inkcurve_L;
scale = (1,-1);
},
{
pos = (565,-64);
ref = inkcurve_L;
scale = (-1,1);
},
{
angle = -90;
pos = (2,506);
ref = inkcurve_L;
},
{
pos = (314,99);
ref = inkstem_S;
},
{
angle = -90;
pos = (56,710);
ref = inkstem_L;
}
);
width = 544;
}
);
note = alto;
unicode = 53;
}
{
glyphname = six;
kernLeft = zero;
kernRight = six;
layers = (
{
layerId = "8007C042-6FBA-4E49-99B8-8B738A4EBE86";
shapes = (
{
closed = 1;
nodes = (
(427,-12,o),
(524,86,o),
(524,220,cs),
(524,350,o),
(433,444,o),
(306,444,cs),
(219,444,o),
(146,401,o),
(122,336,c),
(128,334,l),
(128,475,o),
(205,582,o),
(304,582,cs),
(363,582,o),
(410,541,o),
(420,474,c),
(516,502,l),
(492,600,o),
(410,662,o),
(312,662,cs),
(158,662,o),
(44,521,o),
(44,320,cs),
(44,125,o),
(147,-12,o),
(294,-12,cs)
);
},
{
closed = 1;
nodes = (
(212,72,o),
(148,137,o),
(148,219,cs),
(148,303,o),
(210,366,o),
(294,366,cs),
(377,366,o),
(436,305,o),
(436,219,cs),
(436,134,o),
(376,72,o),
(294,72,cs)
);
}
);
width = 564;
},
{
layerId = "ADDE491E-C0C4-4659-943C-53377B387F47";
shapes = (
{
closed = 1;
nodes = (
(446,-12,o),
(544,79,o),
(544,208,cs),
(544,335,o),
(455,424,o),
(328,424,cs),
(260,424,o),
(196,399,o),
(164,351,c),
(172,348,l),
(172,451,o),
(225,536,o),
(300,536,cs),
(344,536,o),
(384,512,o),
(396,468,c),
(536,500,l),
(524,595,o),
(436,662,o),
(324,662,cs),
(155,662,o),
(36,517,o),
(36,312,cs),
(36,120,o),
(144,-12,o),
(308,-12,cs)
);
},
{
closed = 1;
nodes = (
(240,128,o),
(200,173,o),
(200,236,cs),
(200,299,o),
(240,344,o),
(296,344,cs),
(352,344,o),
(392,299,o),
(392,236,cs),
(392,173,o),
(352,128,o),
(296,128,cs)
);
}
);
width = 576;
},
{
layerId = "0CF550E6-48ED-4BA5-8C66-195B58FED074";
shapes = (
{
closed = 1;
nodes = (
(460,-12,o),
(564,78,o),
(564,204,cs),
(564,324,o),
(468,408,o),
(332,408,cs),
(283,408,o),
(239,397,o),
(204,378,c),
(220,368,l),
(220,441,o),
(251,488,o),
(300,488,cs),
(333,488,o),
(356,468,o),
(360,436,c),
(556,472,l),
(548,584,o),
(452,662,o),
(324,662,cs),
(151,662,o),
(28,519,o),
(28,316,cs),
(28,116,o),
(144,-12,o),
(316,-12,cs)
);
},
{
closed = 1;
nodes = (
(269,172,o),
(248,199,o),
(248,240,cs),
(248,281,o),
(269,308,o),
(302,308,cs),
(335,308,o),
(356,281,o),
(356,240,cs),
(356,199,o),
(335,172,o),
(302,172,cs)
);
}
);
width = 588;
},
{
layerId = m004;
shapes = (
{
closed = 1;
nodes = (
(427,-12,o),
(524,86,o),
(524,220,cs),
(524,350,o),
(433,444,o),
(306,444,cs),
(247,444,o),
(193,424,o),
(158,390,cs),
(142,375,o),
(156,365,o),
(156,351,cs),
(156,335,o),
(144,323,o),
(128,323,cs),
(112,323,o),
(100,335,o),
(100,351,cs),
(100,363,o),
(107,373,o),
(117,377,cs),
(125,380,o),
(131,387,o),
(133,398,cs),
(153,505,o),
(221,582,o),
(304,582,cs),
(363,582,o),
(410,541,o),
(420,474,c),
(516,502,l),
(492,600,o),
(410,662,o),
(312,662,cs),
(158,662,o),
(44,521,o),
(44,320,cs),
(44,125,o),
(147,-12,o),
(294,-12,cs)
);
},
{
closed = 1;
nodes = (
(212,72,o),
(148,137,o),
(148,219,cs),
(148,303,o),
(210,366,o),
(294,366,cs),
(377,366,o),
(436,305,o),
(436,219,cs),
(436,134,o),
(376,72,o),
(294,72,cs)
);
},
{
pos = (3,-31);
ref = inkstem_S;
},
{
angle = 90;
pos = (16,-70);
ref = inkcurve_L;
scale = (1,-1);
},
{
pos = (580,-58);
ref = inkcurve_L;
scale = (-1,1);
},
{
angle = -90;
pos = (20,506);
ref = inkcurve_L;
},
{
pos = (330,98);
ref = inkstem_S;
},
{
angle = -90;
pos = (28,722);
ref = inkcurve_L;
},
{
pos = (348,288);
ref = inkstem_S;
},
{
pos = (44,780);
ref = inkstem_S;
scale = (1,-1);
}
);
width = 564;
}
);
metricLeft = "=zero+4";
unicode = 54;
}
{
glyphname = seven;
kernLeft = seven;
kernRight = seven;
layers = (
{
layerId = "8007C042-6FBA-4E49-99B8-8B738A4EBE86";
shapes = (
{
closed = 1;
nodes = (
(212,0,l),
(212,4,ls),
(212,232,o),
(296,428,o),
(444,564,c),
(444,650,l),
(12,650,l),
(12,568,l),
(364,568,l),
(208,432,o),
(120,232,o),
(120,0,c)
);
}
);
width = 448;
},
{
layerId = "ADDE491E-C0C4-4659-943C-53377B387F47";
shapes = (
{
closed = 1;
nodes = (
(272,0,l),
(272,12,ls),
(272,219,o),
(339,379,o),
(480,504,c),
(480,650,l),
(12,650,l),
(12,512,l),
(372,512,l),
(182,381,o),
(100,215,o),
(100,0,c)
);
}
);
width = 484;
},
{
layerId = "0CF550E6-48ED-4BA5-8C66-195B58FED074";
shapes = (
{
closed = 1;
nodes = (
(340,0,l),
(340,20,ls),
(340,224,o),
(388,358,o),
(504,454,c),
(504,650,l),
(12,650,l),
(12,466,l),
(368,466,l),
(180,382,o),
(100,240,o),
(100,0,c)
);
}
);
width = 508;
},
{
layerId = m004;
shapes = (
{
closed = 1;
nodes = (
(212,0,l),
(212,4,ls),
(212,232,o),
(296,428,o),
(444,564,c),
(444,650,l),
(12,650,l),
(12,568,l),
(312,568,ls),
(324,568,o),
(334,574,o),
(340,583,cs),
(345,591,o),
(354,596,o),
(364,596,cs),
(380,596,o),
(392,584,o),
(392,568,cs),
(392,552,o),
(380,540,o),
(364,540,cs),
(348,540,o),
(343,549,o),
(331,537,cs),
(196,403,o),
(120,215,o),
(120,0,c)
);
},
{
angle = 180;
pos = (268,306);
ref = inkstem_S;
},
{
angle = 165.00001;
pos = (358,442);
ref = inkstem_M;
},
{
pos = (173,155);
ref = inkstem_S;
},
{
angle = -90;
pos = (-184,710);
ref = inkstem_M;
},
{
angle = -90;
pos = (-14,710);
ref = inkstem_S;
}
);
width = 448;
}
);
unicode = 55;
}
{
glyphname = eight;
kernLeft = eight;
kernRight = eight;
layers = (
{
layerId = "8007C042-6FBA-4E49-99B8-8B738A4EBE86";
shapes = (
{
closed = 1;
nodes = (
(405,-12,o),
(500,66,o),
(500,178,cs),
(500,257,o),
(452,322,o),
(378,348,c),
(440,372,o),
(476,423,o),
(476,488,cs),
(476,589,o),
(390,662,o),
(274,662,cs),
(159,662,o),
(72,589,o),
(72,488,cs),
(72,423,o),
(108,372,o),
(170,348,c),
(96,322,o),
(48,257,o),
(48,178,cs),
(48,66,o),
(143,-12,o),
(274,-12,cs)
);
},
{
closed = 1;
nodes = (
(192,70,o),
(134,119,o),
(134,188,cs),
(134,258,o),
(192,308,o),
(274,308,cs),
(356,308,o),
(414,258,o),
(414,188,cs),
(414,119,o),
(356,70,o),
(274,70,cs)
);
},
{
closed = 1;
nodes = (
(204,384,o),
(154,425,o),
(154,484,cs),
(154,543,o),
(204,584,o),
(274,584,cs),
(344,584,o),
(394,543,o),
(394,484,cs),
(394,425,o),
(344,384,o),
(274,384,cs)
);
}
);
width = 548;
},
{
layerId = "ADDE491E-C0C4-4659-943C-53377B387F47";
shapes = (
{
closed = 1;
nodes = (
(438,-12,o),
(544,70,o),
(544,184,cs),
(544,256,o),
(498,316,o),
(420,344,c),
(478,374,o),
(516,418,o),
(516,480,cs),
(516,583,o),
(420,662,o),
(292,662,cs),
(164,662,o),
(68,583,o),
(68,480,cs),
(68,418,o),
(106,374,o),
(164,344,c),
(86,316,o),
(40,256,o),
(40,184,cs),
(40,70,o),
(146,-12,o),
(292,-12,cs)
);
},
{
closed = 1;
nodes = (
(231,120,o),
(192,156,o),
(192,212,cs),
(192,268,o),
(231,304,o),
(292,304,cs),
(353,304,o),
(392,268,o),
(392,212,cs),
(392,156,o),
(353,120,o),
(292,120,cs)
);
},
{
closed = 1;
nodes = (
(243,388,o),
(212,417,o),
(212,462,cs),
(212,507,o),
(243,536,o),
(292,536,cs),
(341,536,o),
(372,507,o),
(372,462,cs),
(372,417,o),
(341,388,o),
(292,388,cs)
);
}
);
width = 584;
},
{
layerId = "0CF550E6-48ED-4BA5-8C66-195B58FED074";
shapes = (
{
closed = 1;
nodes = (
(474,-12,o),
(588,68,o),
(588,184,cs),
(588,260,o),
(542,320,o),
(462,344,c),
(522,368,o),
(556,420,o),
(556,480,cs),
(556,587,o),
(454,662,o),
(310,662,cs),
(166,662,o),
(64,587,o),
(64,480,cs),
(64,420,o),
(98,368,o),
(158,344,c),
(78,320,o),
(32,260,o),
(32,184,cs),
(32,68,o),
(146,-12,o),
(310,-12,cs)
);
},
{
closed = 1;
nodes = (
(270,160,o),
(244,185,o),
(244,225,cs),
(244,265,o),
(270,290,o),
(310,290,cs),
(350,290,o),
(376,265,o),
(376,225,cs),
(376,185,o),
(350,160,o),
(310,160,cs)
);
},
{
closed = 1;
nodes = (
(275,386,o),
(252,407,o),
(252,440,cs),
(252,473,o),
(275,494,o),
(310,494,cs),
(345,494,o),
(368,473,o),
(368,440,cs),
(368,407,o),
(345,386,o),
(310,386,cs)
);
}
);
width = 620;
},
{
layerId = m004;
shapes = (
{
closed = 1;
nodes = (
(405,-12,o),
(500,66,o),
(500,178,cs),
(500,241,o),
(468,295,o),
(419,328,cs),
(411,333,o),
(403,332,o),
(397,327,cs),
(392,323,o),
(385,320,o),
(378,320,cs),
(362,320,o),
(350,332,o),
(350,348,cs),
(350,364,o),
(362,376,o),
(378,376,cs),
(384,376,o),
(389,375,o),
(393,372,cs),
(402,366,o),
(412,366,o),
(422,373,cs),
(457,401,o),
(476,441,o),
(476,488,cs),
(476,589,o),
(390,662,o),
(274,662,cs),
(159,662,o),
(72,589,o),
(72,488,cs),
(72,440,o),
(91,400,o),
(126,373,cs),
(136,366,o),
(146,366,o),
(155,372,cs),
(159,375,o),
(164,376,o),
(170,376,cs),
(186,376,o),
(198,364,o),
(198,348,cs),
(198,332,o),
(186,320,o),
(170,320,cs),
(163,320,o),
(156,323,o),
(151,327,cs),
(145,332,o),
(137,333,o),
(129,328,cs),
(79,295,o),
(48,241,o),
(48,178,cs),
(48,66,o),
(143,-12,o),
(274,-12,cs)
);
},
{
closed = 1;
nodes = (
(192,70,o),
(134,119,o),
(134,188,cs),
(134,258,o),
(192,308,o),
(274,308,cs),
(356,308,o),
(414,258,o),
(414,188,cs),
(414,119,o),
(356,70,o),
(274,70,cs)
);
},
{
closed = 1;
nodes = (
(204,384,o),
(154,425,o),
(154,484,cs),
(154,543,o),
(204,584,o),
(274,584,cs),
(344,584,o),
(394,543,o),
(394,484,cs),
(394,425,o),
(344,384,o),
(274,384,cs)
);
},
{
pos = (-9,462);
ref = inkcurve_L;
scale = (1,-1);
},
{
angle = 90;
pos = (-4,-72);
ref = inkcurve_L;
scale = (1,-1);
},
{
pos = (14,744);
ref = inkstem_S;
scale = (1,-1);
},
{
angle = 180;
pos = (556,462);
ref = inkcurve_L;
},
{
angle = -90;
pos = (-4,723);
ref = inkcurve_L;
},
{
pos = (333,744);
ref = inkstem_S;
scale = (1,-1);
}
);
width = 548;
}
);
metricRight = "=|";
unicode = 56;
}
{
glyphname = nine;
kernLeft = nine;
kernRight = zero;
layers = (
{
layerId = "8007C042-6FBA-4E49-99B8-8B738A4EBE86";
shapes = (
{
closed = 1;
nodes = (
(394,-12,o),
(498,123,o),
(498,336,cs),
(498,540,o),
(408,662,o),
(260,662,cs),
(134,662,o),
(40,569,o),
(40,442,cs),
(40,315,o),
(136,224,o),
(254,224,cs),
(333,224,o),
(397,265,o),
(420,323,c),
(418,324,l),
(414,168,o),
(342,70,o),
(244,70,cs),
(179,70,o),
(134,115,o),
(132,188,c),
(36,164,l),
(47,59,o),
(131,-12,o),
(240,-12,cs)
);
},
{
closed = 1;
nodes = (
(182,304,o),
(126,363,o),
(126,444,cs),
(126,525,o),
(182,584,o),
(260,584,cs),
(338,584,o),
(394,525,o),
(394,444,cs),
(394,363,o),
(338,304,o),
(260,304,cs)
);
}
);
width = 542;
},
{
layerId = "ADDE491E-C0C4-4659-943C-53377B387F47";
shapes = (
{
closed = 1;
nodes = (
(412,-12,o),
(524,136,o),
(524,336,cs),
(524,528,o),
(420,662,o),
(264,662,cs),
(132,662,o),
(36,573,o),
(36,448,cs),
(36,324,o),
(126,236,o),
(252,236,cs),
(318,236,o),
(374,261,o),
(407,301,c),
(394,308,l),
(394,203,o),
(339,128,o),
(266,128,cs),
(222,128,o),
(184,156,o),
(180,196,c),
(32,164,l),
(44,60,o),
(136,-12,o),
(248,-12,cs)
);
},
{
closed = 1;
nodes = (
(222,320,o),
(184,365,o),
(184,428,cs),
(184,491,o),
(222,536,o),
(276,536,cs),
(330,536,o),
(368,491,o),
(368,428,cs),
(368,365,o),
(330,320,o),
(276,320,cs)
);
}
);
width = 560;
},
{
layerId = "0CF550E6-48ED-4BA5-8C66-195B58FED074";
shapes = (
{
closed = 1;
nodes = (
(436,-12,o),
(552,128,o),
(552,332,cs),
(552,532,o),
(444,662,o),
(272,662,cs),
(131,662,o),
(32,573,o),
(32,448,cs),
(32,329,o),
(126,244,o),
(260,244,cs),
(306,244,o),
(348,254,o),
(381,273,c),
(360,282,l),
(360,209,o),
(333,168,o),
(284,168,cs),
(251,168,o),
(228,188,o),
(224,220,c),
(28,178,l),
(40,67,o),
(139,-12,o),
(268,-12,cs)
);
},
{
closed = 1;
nodes = (
(249,348,o),
(224,375,o),
(224,416,cs),
(224,457,o),
(249,484,o),
(284,484,cs),
(319,484,o),
(344,457,o),
(344,416,cs),
(344,375,o),
(319,348,o),
(284,348,cs)
);
}
);
width = 580;
},
{
associatedMasterId = "ADDE491E-C0C4-4659-943C-53377B387F47";
layerId = "8834280F-C497-4B6D-8D53-4977FD90203B";
name = "7 feb 22, 15:34";
shapes = (
{
closed = 1;
nodes = (
(414,-12,o),
(524,136,o),
(524,336,cs),
(524,528,o),
(420,662,o),
(264,662,cs),
(132,662,o),
(36,572,o),
(36,448,cs),
(36,324,o),
(127,234,o),
(252,234,cs),
(357,234,o),
(436,299,o),
(440,388,c),
(368,422,l),
(368,356,o),
(330,314,o),
(272,314,cs),
(214,314,o),
(176,356,o),
(176,422,cs),
(176,488,o),
(214,530,o),
(272,530,cs),
(330,530,o),
(368,488,o),
(368,422,c),
(377,379,o),
(398,340,o),
(396,296,cs),
(392,196,o),
(340,124,o),
(272,124,cs),
(236,124,o),
(204,148,o),
(196,184,c),
(48,156,l),
(60,59,o),
(147,-12,o),
(256,-12,cs)
);
}
);
width = 560;
},
{
layerId = m004;
shapes = (
{
closed = 1;
nodes = (
(394,-12,o),
(498,123,o),
(498,336,cs),
(498,540,o),
(408,662,o),
(260,662,cs),
(134,662,o),
(40,569,o),
(40,442,cs),
(40,315,o),
(136,224,o),
(254,224,cs),
(309,224,o),
(356,244,o),
(388,275,cs),
(404,290,o),
(390,300,o),
(390,314,cs),
(390,330,o),
(402,342,o),
(418,342,cs),
(434,342,o),
(446,330,o),
(446,314,cs),
(446,302,o),
(439,292,o),
(429,288,cs),
(421,285,o),
(415,278,o),
(413,267,cs),
(395,144,o),
(330,70,o),
(244,70,cs),
(179,70,o),
(134,115,o),
(132,188,c),
(36,164,l),
(47,59,o),
(131,-12,o),
(240,-12,cs)
);
},
{
closed = 1;
nodes = (
(182,304,o),
(126,363,o),
(126,444,cs),
(126,525,o),
(182,584,o),
(260,584,cs),
(338,584,o),
(394,525,o),
(394,444,cs),
(394,363,o),
(338,304,o),
(260,304,cs)
);
},
{
pos = (-4,376);
ref = inkstem_S;
scale = (1,-1);
},
{
angle = 90;
pos = (-32,-72);
ref = inkcurve_L;
scale = (1,-1);
},
{
angle = 90;
pos = (-20,164);
ref = inkcurve_L;
scale = (1,-1);
},
{
pos = (-18,165);
ref = inkcurve_L;
},
{
pos = (32,820);
ref = inkstem_S;
scale = (1,-1);
},
{
angle = -90;
pos = (-18,723);
ref = inkcurve_L;
},
{
pos = (339,193);
ref = inkstem_S;
},
{
pos = (304,-128);
ref = inkstem_S;
}
);
width = 542;
}
);
metricRight = "=zero+4";
unicode = 57;
}
{
glyphname = equal;
kernLeft = equal;
kernRight = equal;
layers = (
{
layerId = "8007C042-6FBA-4E49-99B8-8B738A4EBE86";
shapes = (
{
closed = 1;
nodes = (
(508,367,l),
(508,450,l),
(92,450,l),
(92,367,l)
);
},
{
closed = 1;
nodes = (
(508,190,l),
(508,274,l),
(92,274,l),
(92,190,l)
);
}
);
width = 600;
},
{
layerId = "ADDE491E-C0C4-4659-943C-53377B387F47";
shapes = (
{
closed = 1;
nodes = (
(508,352,l),
(508,488,l),
(92,488,l),
(92,352,l)
);
},
{
closed = 1;
nodes = (
(508,152,l),
(508,290,l),
(92,290,l),
(92,152,l)
);
}
);
width = 600;
},
{
layerId = "0CF550E6-48ED-4BA5-8C66-195B58FED074";
shapes = (
{
closed = 1;
nodes = (
(508,140,l),
(508,300,l),
(92,300,l),
(92,140,l)
);
},
{
closed = 1;
nodes = (
(508,341,l),
(508,500,l),
(92,500,l),
(92,341,l)
);
}
);
width = 600;
},
{
layerId = m004;
shapes = (
{
closed = 1;
nodes = (
(508,367,l),
(508,450,l),
(92,450,l),
(92,367,l)
);
},
{
closed = 1;
nodes = (
(508,190,l),
(508,274,l),
(92,274,l),
(92,190,l)
);
},
{
angle = -90;
pos = (-102,509);
ref = inkstem_S;
},
{
angle = -90;
pos = (202,509);
ref = inkstem_S;
},
{
angle = -90;
pos = (-102,332);
ref = inkstem_S;
},
{
angle = -90;
pos = (202,332);
ref = inkstem_S;
}
);
width = 600;
}
);
metricRight = "=|";
unicode = 61;
}
{
glyphname = greater;
kernLeft = greater;
kernRight = greater;
layers = (
{
layerId = "8007C042-6FBA-4E49-99B8-8B738A4EBE86";
shapes = (
{
closed = 1;
nodes = (
(520,268,l),
(520,360,l),
(102,524,l),
(94,436,l),
(416,316,l),
(92,204,l),
(100,112,l)
);
}
);
width = 600;
},
{
layerId = "ADDE491E-C0C4-4659-943C-53377B387F47";
shapes = (
{
closed = 1;
nodes = (
(520,250,l),
(520,386,l),
(126,532,l),
(94,388,l),
(380,324,l),
(92,260,l),
(124,114,l)
);
}
);
width = 600;
},
{
layerId = "0CF550E6-48ED-4BA5-8C66-195B58FED074";
shapes = (
{
closed = 1;
nodes = (
(520,228,l),
(520,408,l),
(158,572,l),
(94,376,l),
(344,324,l),
(92,272,l),
(156,74,l)
);
}
);
width = 600;
},
{
layerId = m004;
shapes = (
{
closed = 1;
nodes = (
(520,268,l),
(520,360,l),
(102,524,l),
(94,436,l),
(363,336,ls),
(375,331,o),
(388,333,o),
(401,340,cs),
(405,342,o),
(410,344,o),
(416,344,cs),
(432,344,o),
(444,332,o),
(444,316,cs),
(444,300,o),
(432,288,o),
(416,288,cs),
(410,288,o),
(405,290,o),
(401,292,cs),
(388,299,o),
(373,301,o),
(361,297,cs),
(92,204,l),
(100,112,l)
);
},
{
angle = 69.09256;
pos = (-117,456);
ref = inkstem_M;
scale = (1,-1);
},
{
pos = (50,428);
ref = inkstem_S;
scale = (1,-1);
}
);
width = 600;
}
);
metricLeft = equal;
metricRight = minus;
unicode = 62;
}
{
color = 3;
glyphname = question;
layers = (
{
layerId = "8007C042-6FBA-4E49-99B8-8B738A4EBE86";
shapes = (
{
closed = 1;
nodes = (
(232,192,l),
(244,320,o),
(426,324,o),
(426,500,cs),
(426,612,o),
(350,692,o),
(232,692,cs),
(96,692,o),
(6,588,o),
(22,432,c),
(114,440,l),
(98,528,o),
(136,610,o),
(228,610,cs),
(295,610,o),
(340,568,o),
(340,496,cs),
(340,360,o),
(164,356,o),
(164,200,cs),
(164,192,l)
);
},
{
pos = (108,0);
ref = period;
}
);
width = 444;
},
{
layerId = "ADDE491E-C0C4-4659-943C-53377B387F47";
shapes = (
{
closed = 1;
nodes = (
(272,216,l),
(295,333,o),
(468,328,o),
(468,496,cs),
(468,615,o),
(383,692,o),
(252,692,cs),
(116,692,o),
(20,606,o),
(12,482,c),
(168,466,l),
(168,518,o),
(200,556,o),
(244,556,cs),
(285,556,o),
(312,524,o),
(312,476,cs),
(312,368,o),
(168,354,o),
(168,222,cs),
(168,216,l)
);
},
{
pos = (108,0);
ref = period;
}
);
width = 484;
},
{
layerId = "0CF550E6-48ED-4BA5-8C66-195B58FED074";
shapes = (
{
closed = 1;
nodes = (
(302,240,l),
(322,324,o),
(498,336,o),
(498,492,cs),
(498,608,o),
(400,692,o),
(262,692,cs),
(116,692,o),
(10,597,o),
(6,462,c),
(210,438,l),
(210,479,o),
(230,506,o),
(262,506,cs),
(289,506,o),
(306,487,o),
(306,458,cs),
(306,374,o),
(162,372,o),
(162,244,c),
(162,240,l)
);
},
{
pos = (106,0);
ref = period;
}
);
width = 512;
},
{
layerId = m004;
shapes = (
{
closed = 1;
nodes = (
(232,192,l),
(244,320,o),
(426,324,o),
(426,500,cs),
(426,612,o),
(350,692,o),
(232,692,cs),
(96,692,o),
(6,588,o),
(22,432,c),
(114,440,l),
(98,528,o),
(136,610,o),
(228,610,cs),
(295,610,o),
(340,568,o),
(340,496,cs),
(340,360,o),
(164,356,o),
(164,200,cs),
(164,192,l)
);
},
{
pos = (108,0);
ref = period;
},
{
pos = (483,218);
ref = inkcurve_L;
scale = (-1,1);
},
{
angle = 90;
pos = (508,751);
ref = inkcurve_L;
scale = (-1,1);
},
{
pos = (-34,242);
ref = inkstem_S;
},
{
pos = (109,-2);
ref = inkstem_S;
},
{
pos = (228,124);
ref = inkstem_S;
}
);
width = 444;
}
);
unicode = 63;
}
{
glyphname = at;
kernLeft = at;
kernRight = at;
layers = (
{
layerId = "8007C042-6FBA-4E49-99B8-8B738A4EBE86";
shapes = (
{
closed = 1;
nodes = (
(464,-56,o),
(545,-35,o),
(586,-6,c),
(538,66,l),
(507,42,o),
(446,24,o),
(387,24,cs),
(242,24,o),
(120,135,o),
(120,306,cs),
(120,470,o),
(234,588,o),
(391,588,cs),
(553,588,o),
(658,462,o),
(658,311,cs),
(658,231,o),
(625,176,o),
(586,176,cs),
(566,176,o),
(558,187,o),
(558,212,cs),
(558,488,l),
(490,488,l),
(484,415,l),
(515,307,l),
(492,182,l),
(492,133,o),
(526,102,o),
(574,102,cs),
(663,102,o),
(740,191,o),
(740,321,cs),
(740,508,o),
(602,666,o),
(391,666,cs),
(185,666,o),
(36,514,o),
(36,305,cs),
(36,91,o),
(191,-56,o),
(389,-56,cs)
);
},
{
closed = 1;
nodes = (
(476,105,o),
(532,189,o),
(532,302,cs),
(532,417,o),
(475,499,o),
(376,499,cs),
(278,499,o),
(196,418,o),
(196,302,cs),
(196,186,o),
(276,105,o),
(376,105,cs)
);
},
{
closed = 1;
nodes = (
(323,183,o),
(278,232,o),
(278,302,cs),
(278,372,o),
(323,423,o),
(388,423,cs),
(453,423,o),
(498,373,o),
(498,303,cs),
(498,233,o),
(453,183,o),
(388,183,cs)
);
}
);
width = 776;
},
{
layerId = "ADDE491E-C0C4-4659-943C-53377B387F47";
shapes = (
{
closed = 1;
nodes = (
(460,-56,o),
(528,-36,o),
(580,0,c),
(528,84,l),
(488,53,o),
(437,38,o),
(380,38,cs),
(236,38,o),
(132,151,o),
(132,306,cs),
(132,461,o),
(236,576,o),
(380,576,cs),
(526,576,o),
(632,465,o),
(632,312,cs),
(632,235,o),
(608,180,o),
(574,180,cs),
(559,180,o),
(548,192,o),
(548,208,cs),
(548,488,l),
(474,488,l),
(450,424,l),
(468,300,l),
(450,204,l),
(450,141,o),
(500,96,o),
(568,96,cs),
(663,96,o),
(732,188,o),
(732,316,cs),
(732,525,o),
(580,666,o),
(376,666,cs),
(172,666,o),
(28,514,o),
(28,305,cs),
(28,96,o),
(176,-56,o),
(384,-56,cs)
);
},
{
closed = 1;
nodes = (
(438,100,o),
(504,184,o),
(504,300,cs),
(504,414,o),
(438,496,o),
(348,496,cs),
(253,496,o),
(184,412,o),
(184,296,cs),
(184,182,o),
(253,100,o),
(348,100,cs)
);
},
{
closed = 1;
nodes = (
(337,226,o),
(312,257,o),
(312,300,cs),
(312,342,o),
(337,373,o),
(372,373,cs),
(407,373,o),
(433,342,o),
(433,300,cs),
(433,257,o),
(407,226,o),
(372,226,cs)
);
}
);
width = 760;
},
{
layerId = "0CF550E6-48ED-4BA5-8C66-195B58FED074";
shapes = (
{
closed = 1;
nodes = (
(448,-56,o),
(500,-44,o),
(544,-20,c),
(496,84,l),
(461,61,o),
(405,56,o),
(380,56,cs),
(236,56,o),
(144,149,o),
(144,304,cs),
(144,459,o),
(232,556,o),
(376,556,cs),
(522,556,o),
(616,453,o),
(616,300,cs),
(616,232,o),
(602,192,o),
(574,192,cs),
(558,192,o),
(546,204,o),
(546,226,cs),
(546,488,l),
(456,488,l),
(428,448,l),
(468,300,l),
(436,176,l),
(452,124,o),
(502,90,o),
(562,90,cs),
(662,90,o),
(736,184,o),
(736,320,cs),
(736,524,o),
(581,666,o),
(372,666,cs),
(168,666,o),
(20,513,o),
(20,302,cs),
(20,91,o),
(175,-56,o),
(384,-56,cs)
);
},
{
closed = 1;
nodes = (
(438,100,o),
(504,184,o),
(504,300,cs),
(504,414,o),
(438,496,o),
(348,496,cs),
(253,496,o),
(184,412,o),
(184,296,cs),
(184,182,o),
(253,100,o),
(348,100,cs)
);
},
{
closed = 1;
nodes = (
(348,243,o),
(332,265,o),
(332,300,cs),
(332,335,o),
(348,357,o),
(374,356,cs),
(400,357,o),
(416,335,o),
(416,300,cs),
(416,265,o),
(400,243,o),
(374,244,cs)
);
}
);
width = 756;
},
{
layerId = m004;
shapes = (
{
closed = 1;
nodes = (
(464,-56,o),
(545,-35,o),
(586,-6,c),
(538,66,l),
(507,42,o),
(446,24,o),
(387,24,cs),
(242,24,o),
(120,135,o),
(120,306,cs),
(120,470,o),
(234,588,o),
(391,588,cs),
(553,588,o),
(658,462,o),
(658,311,cs),
(658,231,o),
(625,176,o),
(586,176,cs),
(566,176,o),
(558,187,o),
(558,212,cs),
(558,488,l),
(490,488,l),
(489,478,o),
(492,474,o),
(500,470,cs),
(509,465,o),
(515,456,o),
(515,445,cs),
(515,429,o),
(503,417,o),
(487,417,cs),
(471,417,o),
(459,429,o),
(459,445,cs),
(459,461,o),
(471,469,o),
(447,482,cs),
(427,493,o),
(403,499,o),
(376,499,cs),
(278,499,o),
(196,418,o),
(196,302,cs),
(196,186,o),
(276,105,o),
(376,105,cs),
(411,105,o),
(440,115,o),
(464,133,cs),
(478,144,o),
(466,156,o),
(466,168,cs),
(466,184,o),
(478,196,o),
(494,196,cs),
(510,196,o),
(522,184,o),
(522,168,cs),
(522,153,o),
(510,148,o),
(510,133,cs),
(510,115,o),
(542,102,o),
(574,102,cs),
(663,102,o),
(740,191,o),
(740,321,cs),
(740,508,o),
(602,666,o),
(391,666,cs),
(185,666,o),
(36,514,o),
(36,305,cs),
(36,91,o),
(191,-56,o),
(389,-56,cs)
);
},
{
closed = 1;
nodes = (
(323,183,o),
(278,232,o),
(278,302,cs),
(278,372,o),
(323,423,o),
(388,423,cs),
(453,423,o),
(498,373,o),
(498,303,cs),
(498,233,o),
(453,183,o),
(388,183,cs)
);
},
{
pos = (60,-170);
ref = inkstem_S;
},
{
angle = 90;
pos = (665,-118);
ref = inkcurve_L;
},
{
pos = (-23,28);
ref = inkcurve_L;
},
{
pos = (232,-96);
ref = inkstem_S;
},
{
pos = (137,24);
ref = inkcurve_L;
},
{
pos = (60,778);
ref = inkstem_S;
scale = (1,-1);
},
{
pos = (232,201);
ref = inkstem_S;
},
{
angle = 90;
pos = (668,728);
ref = inkcurve_L;
scale = (-1,1);
},
{
pos = (800,48);
ref = inkcurve_L;
scale = (-1,1);
},
{
pos = (512,786);
ref = inkstem_S;
scale = (1,-1);
}
);
width = 776;
}
);
metricLeft = O;
metricRight = O;
unicode = 64;
}
{
color = 10;
glyphname = A;
kernLeft = A;
kernRight = A;
layers = (
{
anchors = (
{
name = ogonek;
pos = (564,0);
},
{
name = top;
pos = (304,650);
}
);
layerId = "8007C042-6FBA-4E49-99B8-8B738A4EBE86";
shapes = (
{
closed = 1;
nodes = (
(100,0,l),
(302,540,l),
(508,0,l),
(604,0,l),
(348,650,l),
(260,650,l),
(4,0,l)
);
},
{
closed = 1;
nodes = (
(464,176,l),
(464,256,l),
(144,256,l),
(144,176,l)
);
}
);
width = 608;
},
{
anchors = (
{
name = ogonek;
pos = (564,0);
},
{
name = top;
pos = (324,650);
}
);
layerId = "ADDE491E-C0C4-4659-943C-53377B387F47";
shapes = (
{
closed = 1;
nodes = (
(166,0,l),
(322,500,l),
(484,0,l),
(644,0,l),
(414,650,l),
(234,650,l),
(4,0,l)
);
},
{
closed = 1;
nodes = (
(456,148,l),
(456,252,l),
(192,252,l),
(192,148,l)
);
}
);
width = 648;
},
{
anchors = (
{
name = ogonek;
pos = (540,0);
},
{
name = top;
pos = (334,650);
}
);
layerId = "0CF550E6-48ED-4BA5-8C66-195B58FED074";
shapes = (
{
closed = 1;
nodes = (
(232,0,l),
(332,468,l),
(440,0,l),
(672,0,l),
(466,650,l),
(202,650,l),
(0,0,l)
);
},
{
closed = 1;
nodes = (
(474,132,l),
(474,232,l),
(194,232,l),
(194,132,l)
);
}
);
width = 672;
},
{
anchors = (
{
name = ogonek;
pos = (564,0);
},
{
name = top;
pos = (304,650);
}
);
layerId = m004;
shapes = (
{
closed = 1;
nodes = (
(100,0,l),
(153,142,ls),
(156,149,o),
(153,156,o),
(147,159,cs),
(138,163,o),
(132,173,o),
(132,184,cs),
(132,200,o),
(144,212,o),
(160,212,cs),
(175,212,o),
(186,202,o),
(188,187,cs),
(189,181,o),
(193,176,o),
(203,176,cs),
(404,176,ls),
(414,176,o),
(418,181,o),
(419,187,cs),
(421,202,o),
(432,212,o),
(447,212,cs),
(463,212,o),
(475,200,o),
(475,184,cs),
(475,173,o),
(469,163,o),
(460,159,cs),
(454,156,o),
(451,149,o),
(454,142,cs),
(508,0,l),
(604,0,l),
(348,650,l),
(260,650,l),
(4,0,l)
);
},
{
closed = 1;
nodes = (
(174,226,o),
(162,238,o),
(162,254,cs),
(162,270,o),
(174,282,o),
(190,282,cs),
(198,282,o),
(207,286,o),
(210,294,cs),
(287,502,ls),
(290,509,o),
(288,515,o),
(284,518,cs),
(278,523,o),
(274,531,o),
(274,540,cs),
(274,556,o),
(286,568,o),
(302,568,cs),
(318,568,o),
(330,556,o),
(330,540,cs),
(330,531,o),
(326,523,o),
(319,518,cs),
(315,515,o),
(314,509,o),
(317,502,cs),
(396,294,ls),
(399,286,o),
(408,282,o),
(416,282,cs),
(432,282,o),
(444,270,o),
(444,254,cs),
(444,238,o),
(432,226,o),
(416,226,cs),
(403,226,o),
(394,234,o),
(390,244,cs),
(387,252,o),
(382,256,o),
(374,256,cs),
(232,256,ls),
(224,256,o),
(219,252,o),
(216,244,cs),
(212,234,o),
(203,226,o),
(190,226,cs)
);
},
{
pos = (-26,-194);
ref = inkstem_S;
},
{
pos = (434,-194);
ref = inkstem_S;
},
{
angle = -21.00012;
pos = (20,194);
ref = inkstem_M;
},
{
angle = -158.99988;
pos = (587,194);
ref = inkstem_M;
scale = (1,-1);
}
);
width = 608;
}
);
metricRight = "=|A";
unicode = 65;
}
{
color = 10;
glyphname = B;
kernLeft = l;
kernRight = B;
layers = (
{
layerId = "8007C042-6FBA-4E49-99B8-8B738A4EBE86";
shapes = (
{
closed = 1;
nodes = (
(372,0,ls),
(482,0,o),
(560,73,o),
(560,176,cs),
(560,256,o),
(508,318,o),
(428,338,c),
(496,358,o),
(538,416,o),
(538,484,cs),
(538,581,o),
(459,650,o),
(348,650,cs),
(128,650,l),
(128,570,l),
(340,570,ls),
(405,570,o),
(452,528,o),
(452,471,cs),
(452,414,o),
(405,372,o),
(340,372,cs),
(128,372,l),
(128,292,l),
(356,292,ls),
(424,292,o),
(474,248,o),
(474,187,cs),
(474,126,o),
(424,82,o),
(356,82,cs),
(128,82,l),
(128,0,l)
);
},
{
closed = 1;
nodes = (
(148,0,l),
(148,650,l),
(64,650,l),
(64,0,l)
);
}
);
width = 592;
},
{
layerId = "ADDE491E-C0C4-4659-943C-53377B387F47";
shapes = (
{
closed = 1;
nodes = (
(400,0,ls),
(502,0,o),
(574,73,o),
(574,176,cs),
(574,260,o),
(520,324,o),
(436,340,c),
(503,360,o),
(546,418,o),
(546,488,cs),
(546,583,o),
(479,650,o),
(384,650,cs),
(178,650,l),
(178,520,l),
(332,520,ls),
(371,520,o),
(398,492,o),
(398,452,cs),
(398,412,o),
(370,384,o),
(330,384,cs),
(178,384,l),
(178,280,l),
(350,280,ls),
(392,280,o),
(422,249,o),
(422,206,cs),
(422,163,o),
(391,132,o),
(348,132,cs),
(178,132,l),
(178,0,l)
);
},
{
closed = 1;
nodes = (
(198,0,l),
(198,650,l),
(50,650,l),
(50,0,l)
);
}
);
width = 600;
},
{
layerId = "0CF550E6-48ED-4BA5-8C66-195B58FED074";
shapes = (
{
closed = 1;
nodes = (
(424,0,ls),
(526,0,o),
(598,71,o),
(598,172,cs),
(598,258,o),
(538,326,o),
(452,342,c),
(520,362,o),
(568,419,o),
(568,490,cs),
(568,584,o),
(498,650,o),
(400,650,cs),
(234,650,l),
(234,490,l),
(304,490,ls),
(339,490,o),
(362,468,o),
(362,434,cs),
(362,400,o),
(338,378,o),
(300,378,cs),
(234,378,l),
(234,286,l),
(324,286,ls),
(363,286,o),
(388,262,o),
(388,224,cs),
(388,186,o),
(362,162,o),
(322,162,cs),
(234,162,l),
(234,0,l)
);
},
{
closed = 1;
nodes = (
(254,0,l),
(254,650,l),
(42,650,l),
(42,0,l)
);
}
);
width = 612;
},
{
layerId = m004;
shapes = (
{
closed = 1;
nodes = (
(372,0,ls),
(482,0,o),
(560,73,o),
(560,176,cs),
(560,241,o),
(526,294,o),
(470,322,cs),
(463,325,o),
(455,324,o),
(448,318,cs),
(443,314,o),
(435,311,o),
(428,311,cs),
(412,311,o),
(400,323,o),
(400,339,cs),
(400,355,o),
(412,367,o),
(428,367,cs),
(435,367,o),
(442,364,o),
(447,360,cs),
(454,353,o),
(462,352,o),
(469,356,cs),
(512,384,o),
(538,431,o),
(538,484,cs),
(538,581,o),
(459,650,o),
(348,650,cs),
(64,650,l),
(64,0,l)
);
},
{
closed = 1;
nodes = (
(132,54,o),
(120,66,o),
(120,82,cs),
(120,92,o),
(125,101,o),
(133,106,cs),
(142,112,o),
(148,122,o),
(148,134,cs),
(148,240,ls),
(148,252,o),
(142,262,o),
(133,268,cs),
(125,273,o),
(120,282,o),
(120,292,cs),
(120,308,o),
(132,320,o),
(148,320,cs),
(158,320,o),
(167,315,o),
(172,307,cs),
(178,298,o),
(188,292,o),
(200,292,cs),
(356,292,ls),
(424,292,o),
(474,248,o),
(474,187,cs),
(474,126,o),
(424,82,o),
(356,82,cs),
(200,82,ls),
(188,82,o),
(178,76,o),
(172,67,cs),
(167,59,o),
(158,54,o),
(148,54,cs)
);
},
{
closed = 1;
nodes = (
(132,344,o),
(120,356,o),
(120,372,cs),
(120,382,o),
(125,391,o),
(133,396,cs),
(142,402,o),
(148,412,o),
(148,424,cs),
(148,518,ls),
(148,530,o),
(142,540,o),
(133,546,cs),
(125,551,o),
(120,560,o),
(120,570,cs),
(120,586,o),
(132,598,o),
(148,598,cs),
(158,598,o),
(167,593,o),
(172,585,cs),
(178,576,o),
(188,570,o),
(200,570,cs),
(340,570,ls),
(405,570,o),
(452,528,o),
(452,471,cs),
(452,414,o),
(405,372,o),
(340,372,cs),
(200,372,ls),
(188,372,o),
(178,366,o),
(172,357,cs),
(167,349,o),
(158,344,o),
(148,344,cs)
);
},
{
angle = -90;
pos = (40,142);
ref = inkstem_M;
},
{
pos = (180,82);
ref = inkstem_S;
},
{
pos = (412,-96);
ref = inkstem_S;
},
{
angle = -90;
pos = (16,710);
ref = inkstem_M;
},
{
pos = (592,196);
ref = inkcurve_S;
scale = (-1,1);
}
);
width = 592;
}
);
metricLeft = l;
unicode = 66;
}
{
color = 10;
glyphname = C;
kernLeft = O;
kernRight = C;
layers = (
{
anchors = (
{
name = bottom;
pos = (348,0);
},
{
name = top;
pos = (344,650);
}
);
layerId = "8007C042-6FBA-4E49-99B8-8B738A4EBE86";
shapes = (
{
closed = 1;
nodes = (
(498,-12,o),
(608,84,o),
(632,224,c),
(542,252,l),
(530,144,o),
(453,72,o),
(350,72,cs),
(220,72,o),
(126,178,o),
(126,325,cs),
(126,473,o),
(218,580,o),
(344,580,cs),
(439,580,o),
(520,508,o),
(536,408,c),
(624,440,l),
(600,572,o),
(485,662,o),
(344,662,cs),
(165,662,o),
(36,520,o),
(36,325,cs),
(36,130,o),
(168,-12,o),
(350,-12,cs)
);
}
);
width = 664;
},
{
anchors = (
{
name = bottom;
pos = (338,0);
},
{
name = top;
pos = (346,650);
}
);
layerId = "ADDE491E-C0C4-4659-943C-53377B387F47";
shapes = (
{
closed = 1;
nodes = (
(488,-12,o),
(606,72,o),
(634,196,c),
(488,260,l),
(480,184,o),
(422,132,o),
(346,132,cs),
(252,132,o),
(188,211,o),
(188,325,cs),
(188,440,o),
(253,522,o),
(346,522,cs),
(418,522,o),
(470,472,o),
(482,392,c),
(626,428,l),
(614,556,o),
(500,662,o),
(344,662,cs),
(160,662,o),
(28,522,o),
(28,325,cs),
(28,128,o),
(159,-12,o),
(344,-12,cs)
);
}
);
width = 662;
},
{
anchors = (
{
name = bottom;
pos = (332,0);
},
{
name = top;
pos = (344,650);
}
);
layerId = "0CF550E6-48ED-4BA5-8C66-195B58FED074";
shapes = (
{
closed = 1;
nodes = (
(486,-12,o),
(608,72,o),
(636,200,c),
(448,278,l),
(441,220,o),
(401,182,o),
(346,182,cs),
(279,182,o),
(236,239,o),
(236,328,cs),
(236,414,o),
(277,470,o),
(342,470,cs),
(395,470,o),
(432,433,o),
(436,376,c),
(632,425,l),
(608,564,o),
(488,662,o),
(342,662,cs),
(153,662,o),
(20,522,o),
(20,324,cs),
(20,127,o),
(153,-12,o),
(342,-12,cs)
);
}
);
width = 656;
},
{
anchors = (
{
name = bottom;
pos = (348,0);
},
{
name = top;
pos = (344,650);
}
);
layerId = m004;
shapes = (
{
closed = 1;
nodes = (
(498,-12,o),
(608,84,o),
(632,224,c),
(542,252,l),
(530,144,o),
(453,72,o),
(350,72,cs),
(220,72,o),
(126,178,o),
(126,325,cs),
(126,473,o),
(218,580,o),
(344,580,cs),
(439,580,o),
(520,508,o),
(536,408,c),
(624,440,l),
(600,572,o),
(485,662,o),
(344,662,cs),
(165,662,o),
(36,520,o),
(36,325,cs),
(36,130,o),
(168,-12,o),
(350,-12,cs)
);
},
{
pos = (50,-128);
ref = inkstem_S;
},
{
angle = 90;
pos = (632,-70);
ref = inkcurve_L;
},
{
pos = (-21,47);
ref = inkcurve_L;
},
{
pos = (52,780);
ref = inkstem_S;
scale = (1,-1);
},
{
pos = (471,-66);
ref = inkstem_S;
},
{
angle = 90;
pos = (620,722);
ref = inkcurve_L;
scale = (-1,1);
},
{
pos = (463,728);
ref = inkstem_S;
scale = (1,-1);
}
);
width = 664;
}
);
metricLeft = O;
unicode = 67;
}
{
glyphname = D;
kernLeft = l;
kernRight = O;
layers = (
{
anchors = (
{
name = top;
pos = (292,650);
}
);
layerId = "8007C042-6FBA-4E49-99B8-8B738A4EBE86";
shapes = (
{
closed = 1;
nodes = (
(324,0,ls),
(501,0,o),
(624,142,o),
(624,326,cs),
(624,520,o),
(487,650,o),
(308,650,cs),
(128,650,l),
(128,570,l),
(304,570,ls),
(439,570,o),
(536,467,o),
(536,324,cs),
(536,184,o),
(444,82,o),
(316,82,cs),
(128,82,l),
(128,0,l)
);
},
{
closed = 1;
nodes = (
(148,0,l),
(148,650,l),
(64,650,l),
(64,0,l)
);
}
);
width = 660;
},
{
anchors = (
{
name = top;
pos = (284,650);
}
);
layerId = "ADDE491E-C0C4-4659-943C-53377B387F47";
shapes = (
{
closed = 1;
nodes = (
(310,0,ls),
(490,0,o),
(622,137,o),
(622,325,cs),
(622,515,o),
(487,650,o),
(298,650,cs),
(178,650,l),
(178,516,l),
(294,516,ls),
(394,516,o),
(466,437,o),
(466,326,cs),
(466,216,o),
(397,136,o),
(302,136,cs),
(178,136,l),
(178,0,l)
);
},
{
closed = 1;
nodes = (
(198,0,l),
(198,650,l),
(50,650,l),
(50,0,l)
);
}
);
width = 650;
},
{
anchors = (
{
name = top;
pos = (302,650);
}
);
layerId = "0CF550E6-48ED-4BA5-8C66-195B58FED074";
shapes = (
{
closed = 1;
nodes = (
(320,0,ls),
(503,0,o),
(632,135,o),
(632,325,cs),
(632,515,o),
(503,650,o),
(320,650,cs),
(234,650,l),
(234,474,l),
(304,474,ls),
(372,474,o),
(416,416,o),
(416,326,cs),
(416,236,o),
(372,178,o),
(304,178,cs),
(234,178,l),
(234,0,l)
);
},
{
closed = 1;
nodes = (
(254,0,l),
(254,650,l),
(42,650,l),
(42,0,l)
);
}
);
width = 652;
},
{
anchors = (
{
name = top;
pos = (292,650);
}
);
layerId = m004;
shapes = (
{
closed = 1;
nodes = (
(324,0,ls),
(501,0,o),
(624,142,o),
(624,326,cs),
(624,520,o),
(487,650,o),
(308,650,cs),
(64,650,l),
(64,0,l)
);
},
{
closed = 1;
nodes = (
(132,54,o),
(120,66,o),
(120,82,cs),
(120,92,o),
(125,101,o),
(133,106,cs),
(142,112,o),
(148,122,o),
(148,134,cs),
(148,518,ls),
(148,530,o),
(142,540,o),
(133,546,cs),
(125,551,o),
(120,560,o),
(120,570,cs),
(120,586,o),
(132,598,o),
(148,598,cs),
(158,598,o),
(167,593,o),
(172,585,cs),
(178,576,o),
(188,570,o),
(200,570,cs),
(304,570,ls),
(439,570,o),
(536,467,o),
(536,324,cs),
(536,184,o),
(444,82,o),
(316,82,cs),
(200,82,ls),
(188,82,o),
(178,76,o),
(172,67,cs),
(167,59,o),
(158,54,o),
(148,54,cs)
);
},
{
angle = -90;
pos = (40,142);
ref = inkstem_M;
},
{
pos = (6,47);
ref = inkstem_L;
},
{
pos = (405,-128);
ref = inkstem_S;
},
{
pos = (681,47);
ref = inkcurve_L;
scale = (-1,1);
},
{
angle = -90;
pos = (16,710);
ref = inkstem_M;
},
{
pos = (401,780);
ref = inkstem_S;
scale = (1,-1);
}
);
width = 660;
}
);
metricLeft = l;
metricRight = O;
unicode = 68;
}
{
color = 10;
glyphname = E;
kernLeft = l;
kernRight = E;
layers = (
{
anchors = (
{
name = ogonek;
pos = (516,0);
},
{
name = top;
pos = (288,650);
}
);
layerId = "8007C042-6FBA-4E49-99B8-8B738A4EBE86";
shapes = (
{
closed = 1;
nodes = (
(148,0,l),
(148,650,l),
(64,650,l),
(64,0,l)
);
},
{
closed = 1;
nodes = (
(516,0,l),
(516,82,l),
(128,82,l),
(128,0,l)
);
},
{
closed = 1;
nodes = (
(460,292,l),
(460,372,l),
(128,372,l),
(128,292,l)
);
},
{
closed = 1;
nodes = (
(508,570,l),
(508,650,l),
(128,650,l),
(128,570,l)
);
}
);
width = 548;
},
{
anchors = (
{
name = ogonek;
pos = (526,0);
},
{
name = top;
pos = (288,650);
}
);
layerId = "ADDE491E-C0C4-4659-943C-53377B387F47";
shapes = (
{
closed = 1;
nodes = (
(198,0,l),
(198,650,l),
(50,650,l),
(50,0,l)
);
},
{
closed = 1;
nodes = (
(526,0,l),
(526,136,l),
(178,136,l),
(178,0,l)
);
},
{
closed = 1;
nodes = (
(458,280,l),
(458,384,l),
(178,384,l),
(178,280,l)
);
},
{
closed = 1;
nodes = (
(516,516,l),
(516,650,l),
(178,650,l),
(178,516,l)
);
}
);
width = 554;
},
{
anchors = (
{
name = ogonek;
pos = (528,0);
},
{
name = top;
pos = (288,650);
}
);
layerId = "0CF550E6-48ED-4BA5-8C66-195B58FED074";
shapes = (
{
closed = 1;
nodes = (
(254,0,l),
(254,650,l),
(42,650,l),
(42,0,l)
);
},
{
closed = 1;
nodes = (
(528,0,l),
(528,170,l),
(234,170,l),
(234,0,l)
);
},
{
closed = 1;
nodes = (
(448,276,l),
(448,388,l),
(234,388,l),
(234,276,l)
);
},
{
closed = 1;
nodes = (
(516,482,l),
(516,650,l),
(234,650,l),
(234,482,l)
);
}
);
width = 552;
},
{
anchors = (
{
name = ogonek;
pos = (516,0);
},
{
name = top;
pos = (288,650);
}
);
layerId = m004;
shapes = (
{
closed = 1;
nodes = (
(516,0,l),
(516,82,l),
(200,82,ls),
(188,82,o),
(178,76,o),
(172,67,cs),
(167,59,o),
(158,54,o),
(148,54,cs),
(132,54,o),
(120,66,o),
(120,82,cs),
(120,92,o),
(125,101,o),
(133,106,cs),
(142,112,o),
(148,122,o),
(148,134,cs),
(148,240,ls),
(148,252,o),
(142,262,o),
(133,268,cs),
(125,273,o),
(120,282,o),
(120,292,cs),
(120,308,o),
(132,320,o),
(148,320,cs),
(158,320,o),
(167,315,o),
(172,307,cs),
(178,298,o),
(188,292,o),
(200,292,cs),
(460,292,l),
(460,372,l),
(200,372,ls),
(188,372,o),
(178,366,o),
(172,357,cs),
(167,349,o),
(158,344,o),
(148,344,cs),
(132,344,o),
(120,356,o),
(120,372,cs),
(120,382,o),
(125,391,o),
(133,396,cs),
(142,402,o),
(148,412,o),
(148,424,cs),
(148,518,ls),
(148,530,o),
(142,540,o),
(133,546,cs),
(125,551,o),
(120,560,o),
(120,570,cs),
(120,586,o),
(132,598,o),
(148,598,cs),
(158,598,o),
(167,593,o),
(172,585,cs),
(178,576,o),
(188,570,o),
(200,570,cs),
(508,570,l),
(508,650,l),
(64,650,l),
(64,0,l)
);
},
{
angle = -90;
pos = (40,142);
ref = inkstem_L;
},
{
angle = -90;
pos = (100,432);
ref = inkstem_M;
},
{
angle = -90;
pos = (16,710);
ref = inkstem_M;
},
{
pos = (352,360);
ref = inkstem_S;
}
);
width = 548;
}
);
metricLeft = l;
unicode = 69;
}
{
color = 10;
glyphname = F;
kernLeft = l;
kernRight = F;
layers = (
{
layerId = "8007C042-6FBA-4E49-99B8-8B738A4EBE86";
shapes = (
{
closed = 1;
nodes = (
(148,0,l),
(148,650,l),
(64,650,l),
(64,0,l)
);
},
{
closed = 1;
nodes = (
(468,276,l),
(468,356,l),
(128,356,l),
(128,276,l)
);
},
{
closed = 1;
nodes = (
(504,570,l),
(504,650,l),
(128,650,l),
(128,570,l)
);
}
);
width = 528;
},
{
layerId = "ADDE491E-C0C4-4659-943C-53377B387F47";
shapes = (
{
closed = 1;
nodes = (
(198,0,l),
(198,650,l),
(50,650,l),
(50,0,l)
);
},
{
closed = 1;
nodes = (
(456,250,l),
(456,358,l),
(178,358,l),
(178,250,l)
);
},
{
closed = 1;
nodes = (
(500,514,l),
(500,650,l),
(178,650,l),
(178,514,l)
);
}
);
width = 512;
},
{
layerId = "0CF550E6-48ED-4BA5-8C66-195B58FED074";
shapes = (
{
closed = 1;
nodes = (
(254,0,l),
(254,650,l),
(42,650,l),
(42,0,l)
);
},
{
closed = 1;
nodes = (
(458,226,l),
(458,358,l),
(234,358,l),
(234,226,l)
);
},
{
closed = 1;
nodes = (
(506,466,l),
(506,650,l),
(234,650,l),
(234,466,l)
);
}
);
width = 512;
},
{
layerId = m004;
shapes = (
{
closed = 1;
nodes = (
(148,0,l),
(148,224,ls),
(148,236,o),
(142,246,o),
(133,252,cs),
(125,257,o),
(120,266,o),
(120,276,cs),
(120,292,o),
(132,304,o),
(148,304,cs),
(158,304,o),
(167,299,o),
(172,291,cs),
(178,282,o),
(188,276,o),
(200,276,cs),
(468,276,l),
(468,356,l),
(200,356,ls),
(188,356,o),
(178,350,o),
(172,341,cs),
(167,333,o),
(158,328,o),
(148,328,cs),
(132,328,o),
(120,340,o),
(120,356,cs),
(120,366,o),
(125,375,o),
(133,380,cs),
(142,386,o),
(148,396,o),
(148,408,cs),
(148,518,ls),
(148,530,o),
(142,540,o),
(133,546,cs),
(125,551,o),
(120,560,o),
(120,570,cs),
(120,586,o),
(132,598,o),
(148,598,cs),
(158,598,o),
(167,593,o),
(172,585,cs),
(178,576,o),
(188,570,o),
(200,570,cs),
(504,570,l),
(504,650,l),
(64,650,l),
(64,0,l)
);
},
{
angle = 180;
pos = (206,360);
ref = inkstem_M;
},
{
angle = -90;
pos = (44,417);
ref = inkstem_L;
},
{
angle = -90;
pos = (16,710);
ref = inkstem_M;
},
{
pos = (348,360);
ref = inkstem_S;
}
);
width = 528;
}
);
metricLeft = l;
unicode = 70;
}
{
color = 10;
glyphname = G;
kernLeft = O;
kernRight = G;
layers = (
{
anchors = (
{
name = bottom;
pos = (352,0);
},
{
name = top;
pos = (348,650);
}
);
layerId = "8007C042-6FBA-4E49-99B8-8B738A4EBE86";
shapes = (
{
closed = 1;
nodes = (
(482,-12,o),
(584,84,o),
(584,216,c),
(584,300,l),
(558,300,l),
(558,268,l),
(554,155,o),
(465,72,o),
(348,72,cs),
(217,72,o),
(124,179,o),
(124,327,cs),
(124,473,o),
(217,580,o),
(344,580,cs),
(445,580,o),
(525,512,o),
(536,416,c),
(632,448,l),
(609,572,o),
(489,662,o),
(346,662,cs),
(166,662,o),
(36,519,o),
(36,325,cs),
(36,130,o),
(164,-12,o),
(340,-12,cs)
);
},
{
closed = 1;
nodes = (
(652,0,l),
(632,355,l),
(266,355,l),
(266,277,l),
(576,277,l),
(576,184,l),
(596,0,l)
);
}
);
width = 696;
},
{
anchors = (
{
name = bottom;
pos = (348,0);
},
{
name = top;
pos = (348,650);
}
);
layerId = "ADDE491E-C0C4-4659-943C-53377B387F47";
shapes = (
{
closed = 1;
nodes = (
(448,-12,o),
(540,60,o),
(548,160,c),
(548,282,l),
(492,282,l),
(492,262,l),
(488,184,o),
(428,128,o),
(350,128,cs),
(254,128,o),
(184,213,o),
(184,328,cs),
(184,443,o),
(250,524,o),
(344,524,cs),
(416,524,o),
(470,474,o),
(482,404,c),
(628,456,l),
(604,577,o),
(488,662,o),
(348,662,cs),
(164,662,o),
(28,524,o),
(28,324,cs),
(28,129,o),
(154,-12,o),
(328,-12,cs)
);
},
{
closed = 1;
nodes = (
(664,0,l),
(632,360,l),
(278,360,l),
(278,256,l),
(536,256,l),
(536,152,l),
(572,0,l)
);
}
);
width = 700;
},
{
anchors = (
{
name = bottom;
pos = (338,0);
},
{
name = top;
pos = (344,650);
}
);
layerId = "0CF550E6-48ED-4BA5-8C66-195B58FED074";
shapes = (
{
closed = 1;
nodes = (
(443,-12,o),
(552,76,o),
(560,200,c),
(560,276,l),
(444,276,l),
(444,276,l),
(440,210,o),
(401,168,o),
(346,168,cs),
(278,168,o),
(232,230,o),
(232,324,cs),
(232,417,o),
(277,476,o),
(346,476,cs),
(402,476,o),
(440,438,o),
(444,380,c),
(640,425,l),
(620,565,o),
(500,662,o),
(346,662,cs),
(155,662,o),
(20,519,o),
(20,316,cs),
(20,124,o),
(141,-12,o),
(312,-12,cs)
);
},
{
closed = 1;
nodes = (
(672,0,l),
(628,356,l),
(290,356,l),
(290,260,l),
(460,260,l),
(459,152,l),
(544,0,l)
);
}
);
width = 700;
},
{
anchors = (
{
name = bottom;
pos = (352,0);
},
{
name = top;
pos = (348,650);
}
);
layerId = m004;
shapes = (
{
closed = 1;
nodes = (
(440,-12,o),
(520,36,o),
(559,110,cs),
(563,117,o),
(562,124,o),
(556,128,cs),
(550,133,o),
(546,141,o),
(546,150,cs),
(546,166,o),
(558,178,o),
(574,178,cs),
(590,178,o),
(602,166,o),
(602,150,cs),
(602,141,o),
(598,133,o),
(591,128,cs),
(586,124,o),
(583,117,o),
(584,110,cs),
(596,0,l),
(652,0,l),
(632,355,l),
(266,355,l),
(266,277,l),
(502,277,ls),
(514,277,o),
(524,283,o),
(530,292,cs),
(535,300,o),
(544,305,o),
(554,305,cs),
(570,305,o),
(582,293,o),
(582,277,cs),
(582,267,o),
(577,258,o),
(569,253,cs),
(561,247,o),
(555,237,o),
(554,228,cs),
(535,136,o),
(451,72,o),
(348,72,cs),
(217,72,o),
(124,179,o),
(124,327,cs),
(124,473,o),
(217,580,o),
(344,580,cs),
(445,580,o),
(525,512,o),
(536,416,c),
(632,448,l),
(609,572,o),
(489,662,o),
(346,662,cs),
(166,662,o),
(36,519,o),
(36,325,cs),
(36,130,o),
(164,-12,o),
(340,-12,cs)
);
},
{
pos = (50,-128);
ref = inkstem_S;
},
{
angle = 90;
pos = (626,-70);
ref = inkcurve_L;
},
{
pos = (-21,47);
ref = inkcurve_L;
},
{
pos = (52,780);
ref = inkstem_S;
scale = (1,-1);
},
{
angle = -90;
pos = (70,416);
ref = inkstem_L;
},
{
angle = 90;
pos = (626,722);
ref = inkcurve_L;
scale = (-1,1);
},
{
pos = (468,736);
ref = inkstem_S;
scale = (1,-1);
}
);
width = 696;
}
);
metricLeft = O;
unicode = 71;
}
{
glyphname = H;
kernLeft = l;
kernRight = l;
layers = (
{
layerId = "8007C042-6FBA-4E49-99B8-8B738A4EBE86";
shapes = (
{
closed = 1;
nodes = (
(596,0,l),
(596,650,l),
(512,650,l),
(512,0,l)
);
},
{
closed = 1;
nodes = (
(148,0,l),
(148,650,l),
(64,650,l),
(64,0,l)
);
},
{
closed = 1;
nodes = (
(532,292,l),
(532,372,l),
(128,372,l),
(128,292,l)
);
}
);
width = 660;
},
{
layerId = "ADDE491E-C0C4-4659-943C-53377B387F47";
shapes = (
{
closed = 1;
nodes = (
(602,0,l),
(602,650,l),
(454,650,l),
(454,0,l)
);
},
{
closed = 1;
nodes = (
(198,0,l),
(198,650,l),
(50,650,l),
(50,0,l)
);
},
{
closed = 1;
nodes = (
(474,272,l),
(474,392,l),
(178,392,l),
(178,272,l)
);
}
);
width = 652;
},
{
layerId = "0CF550E6-48ED-4BA5-8C66-195B58FED074";
shapes = (
{
closed = 1;
nodes = (
(630,0,l),
(630,650,l),
(418,650,l),
(418,0,l)
);
},
{
closed = 1;
nodes = (
(254,0,l),
(254,650,l),
(42,650,l),
(42,0,l)
);
},
{
closed = 1;
nodes = (
(438,256,l),
(438,408,l),
(234,408,l),
(234,256,l)
);
}
);
width = 672;
},
{
layerId = m004;
shapes = (
{
closed = 1;
nodes = (
(148,0,l),
(148,240,ls),
(148,252,o),
(142,262,o),
(133,268,cs),
(125,273,o),
(120,282,o),
(120,292,cs),
(120,308,o),
(132,320,o),
(148,320,cs),
(158,320,o),
(167,315,o),
(172,307,cs),
(178,298,o),
(188,292,o),
(200,292,cs),
(460,292,ls),
(472,292,o),
(482,298,o),
(488,307,cs),
(493,315,o),
(502,320,o),
(512,320,cs),
(528,320,o),
(540,308,o),
(540,292,cs),
(540,282,o),
(535,273,o),
(527,268,cs),
(518,262,o),
(512,252,o),
(512,240,cs),
(512,0,l),
(596,0,l),
(596,650,l),
(512,650,l),
(512,424,ls),
(512,412,o),
(518,402,o),
(527,396,cs),
(535,391,o),
(540,382,o),
(540,372,cs),
(540,356,o),
(528,344,o),
(512,344,cs),
(502,344,o),
(493,349,o),
(488,357,cs),
(482,366,o),
(472,372,o),
(460,372,cs),
(200,372,ls),
(188,372,o),
(178,366,o),
(172,357,cs),
(167,349,o),
(158,344,o),
(148,344,cs),
(132,344,o),
(120,356,o),
(120,372,cs),
(120,382,o),
(125,391,o),
(133,396,cs),
(142,402,o),
(148,412,o),
(148,424,cs),
(148,650,l),
(64,650,l),
(64,0,l)
);
},
{
angle = -90;
pos = (52,432);
ref = inkstem_M;
},
{
angle = 180;
pos = (654,846);
ref = inkstem_M;
},
{
pos = (6,344);
ref = inkstem_S;
},
{
pos = (454,-194);
ref = inkstem_S;
},
{
angle = 180;
pos = (206,424);
ref = inkstem_L;
}
);
width = 660;
}
);
metricLeft = l;
metricRight = l;
unicode = 72;
}
{
glyphname = I;
kernLeft = l;
kernRight = l;
layers = (
{
anchors = (
{
name = ogonek;
pos = (148,0);
},
{
name = top;
pos = (106,650);
}
);
layerId = "8007C042-6FBA-4E49-99B8-8B738A4EBE86";
shapes = (
{
closed = 1;
nodes = (
(148,0,l),
(148,650,l),
(64,650,l),
(64,0,l)
);
}
);
width = 212;
},
{
anchors = (
{
name = ogonek;
pos = (198,0);
},
{
name = top;
pos = (124,650);
}
);
layerId = "ADDE491E-C0C4-4659-943C-53377B387F47";
shapes = (
{
closed = 1;
nodes = (
(198,0,l),
(198,650,l),
(50,650,l),
(50,0,l)
);
}
);
width = 248;
},
{
anchors = (
{
name = ogonek;
pos = (254,0);
},
{
name = top;
pos = (148,650);
}
);
layerId = "0CF550E6-48ED-4BA5-8C66-195B58FED074";
shapes = (
{
closed = 1;
nodes = (
(254,0,l),
(254,650,l),
(42,650,l),
(42,0,l)
);
}
);
width = 296;
},
{
anchors = (
{
name = ogonek;
pos = (148,0);
},
{
name = top;
pos = (106,650);
}
);
layerId = m004;
shapes = (
{
closed = 1;
nodes = (
(148,0,l),
(148,650,l),
(64,650,l),
(64,0,l)
);
},
{
angle = 180;
pos = (206,360);
ref = inkstem_M;
},
{
pos = (6,47);
ref = inkstem_L;
},
{
pos = (6,344);
ref = inkstem_S;
}
);
width = 212;
}
);
metricLeft = l;
metricRight = l;
unicode = 73;
}
{
color = 10;
glyphname = J;
kernLeft = J;
kernRight = U;
layers = (
{
layerId = "8007C042-6FBA-4E49-99B8-8B738A4EBE86";
shapes = (
{
closed = 1;
nodes = (
(415,-12,o),
(512,88,o),
(512,228,cs),
(512,650,l),
(428,650,l),
(428,228,ls),
(428,137,o),
(367,72,o),
(281,72,cs),
(195,72,o),
(134,137,o),
(134,228,cs),
(134,344,l),
(48,344,l),
(48,224,ls),
(48,86,o),
(145,-12,o),
(280,-12,cs)
);
}
);
width = 568;
},
{
layerId = "ADDE491E-C0C4-4659-943C-53377B387F47";
shapes = (
{
closed = 1;
nodes = (
(430,-12,o),
(532,91,o),
(532,236,cs),
(532,650,l),
(384,650,l),
(384,236,ls),
(384,174,o),
(342,130,o),
(284,130,cs),
(228,130,o),
(188,173,o),
(188,232,cs),
(188,356,l),
(40,356,l),
(40,232,ls),
(40,90,o),
(143,-12,o),
(288,-12,cs)
);
}
);
width = 576;
},
{
layerId = "0CF550E6-48ED-4BA5-8C66-195B58FED074";
shapes = (
{
closed = 1;
nodes = (
(456,-12,o),
(570,90,o),
(570,232,cs),
(570,650,l),
(358,650,l),
(358,252,ls),
(358,212,o),
(332,184,o),
(296,184,cs),
(261,184,o),
(236,212,o),
(236,250,cs),
(236,368,l),
(26,368,l),
(26,228,ls),
(26,88,o),
(139,-12,o),
(296,-12,cs)
);
}
);
width = 604;
},
{
layerId = m004;
shapes = (
{
closed = 1;
nodes = (
(415,-12,o),
(512,88,o),
(512,228,cs),
(512,650,l),
(428,650,l),
(428,228,ls),
(428,137,o),
(367,72,o),
(281,72,cs),
(195,72,o),
(134,137,o),
(134,228,cs),
(134,344,l),
(48,344,l),
(48,224,ls),
(48,86,o),
(145,-12,o),
(280,-12,cs)
);
},
{
pos = (370,47);
ref = inkstem_L;
},
{
angle = 90;
pos = (560,-69);
ref = inkcurve_L;
},
{
pos = (36,-156);
ref = inkstem_S;
},
{
pos = (323,-156);
ref = inkstem_S;
},
{
angle = 180;
pos = (570,846);
ref = inkstem_M;
},
{
pos = (-9,-16);
ref = inkstem_M;
}
);
width = 568;
}
);
metricRight = U;
unicode = 74;
}
{
glyphname = K;
kernLeft = l;
kernRight = X;
layers = (
{
anchors = (
{
name = bottom;
pos = (304,0);
},
{
name = top;
pos = (302,650);
}
);
layerId = "8007C042-6FBA-4E49-99B8-8B738A4EBE86";
shapes = (
{
closed = 1;
nodes = (
(568,650,l),
(456,650,l),
(128,254,l),
(128,136,l)
);
},
{
closed = 1;
nodes = (
(596,0,l),
(320,372,l),
(264,304,l),
(490,0,l)
);
},
{
ref = I;
}
);
width = 604;
},
{
anchors = (
{
name = bottom;
pos = (312,0);
},
{
name = top;
pos = (309,650);
}
);
layerId = "ADDE491E-C0C4-4659-943C-53377B387F47";
shapes = (
{
closed = 1;
nodes = (
(594,650,l),
(398,650,l),
(178,344,l),
(178,154,l)
);
},
{
closed = 1;
nodes = (
(614,0,l),
(356,390,l),
(270,284,l),
(434,0,l)
);
},
{
ref = I;
}
);
width = 618;
},
{
anchors = (
{
name = bottom;
pos = (336,0);
},
{
name = top;
pos = (336,650);
}
);
layerId = "0CF550E6-48ED-4BA5-8C66-195B58FED074";
shapes = (
{
closed = 1;
nodes = (
(660,650,l),
(384,650,l),
(218,380,l),
(218,132,l)
);
},
{
closed = 1;
nodes = (
(672,0,l),
(436,400,l),
(308,252,l),
(420,0,l)
);
},
{
ref = I;
}
);
width = 672;
},
{
associatedMasterId = "0CF550E6-48ED-4BA5-8C66-195B58FED074";
layerId = "60DA9591-F1EB-4E00-88E8-7C8EA325C9E9";
name = "8 feb 22, 17:03";
shapes = (
{
closed = 1;
nodes = (
(672,650,l),
(384,650,l),
(218,414,l),
(218,152,l)
);
},
{
closed = 1;
nodes = (
(684,0,l),
(432,428,l),
(292,280,l),
(432,0,l)
);
},
{
ref = I;
}
);
width = 684;
},
{
anchors = (
{
name = bottom;
pos = (304,0);
},
{
name = ogonek;
pos = (148,0);
},
{
name = top;
pos = (302,650);
}
);
layerId = m004;
shapes = (
{
closed = 1;
nodes = (
(148,0,l),
(148,159,l),
(243,270,ls),
(247,275,o),
(247,280,o),
(244,285,cs),
(241,289,o),
(240,294,o),
(240,300,cs),
(240,316,o),
(252,328,o),
(268,328,cs),
(284,328,o),
(296,316,o),
(296,300,cs),
(296,294,o),
(295,289,o),
(292,285,cs),
(288,279,o),
(287,272,o),
(292,266,cs),
(490,0,l),
(596,0,l),
(352,329,ls),
(340,345,o),
(334,338,o),
(324,338,cs),
(308,338,o),
(296,350,o),
(296,366,cs),
(296,382,o),
(308,394,o),
(324,394,cs),
(332,394,o),
(342,386,o),
(352,398,cs),
(568,650,l),
(456,650,l),
(176,312,ls),
(172,307,o),
(171,300,o),
(174,293,cs),
(175,290,o),
(176,286,o),
(176,282,cs),
(176,266,o),
(164,254,o),
(148,254,cs),
(132,254,o),
(120,266,o),
(120,282,cs),
(120,294,o),
(127,304,o),
(137,308,cs),
(144,310,o),
(148,315,o),
(148,321,cs),
(148,650,l),
(64,650,l),
(64,0,l)
);
},
{
angle = 180;
pos = (206,360);
ref = inkstem_M;
},
{
pos = (6,226);
ref = inkstem_L;
},
{
angle = 36.4514;
pos = (576,-212);
ref = inkstem_L;
},
{
pos = (364,344);
ref = inkstem_S;
}
);
width = 604;
}
);
metricLeft = l;
metricRight = X;
unicode = 75;
}
{
color = 10;
glyphname = L;
kernLeft = l;
kernRight = L;
layers = (
{
anchors = (
{
name = bottom;
pos = (280,0);
},
{
name = top;
pos = (116,650);
},
{
name = topright;
pos = (276,470);
}
);
layerId = "8007C042-6FBA-4E49-99B8-8B738A4EBE86";
shapes = (
{
closed = 1;
nodes = (
(148,0,l),
(148,650,l),
(64,650,l),
(64,0,l)
);
},
{
closed = 1;
nodes = (
(500,0,l),
(500,82,l),
(128,82,l),
(128,0,l)
);
}
);
width = 508;
},
{
anchors = (
{
name = bottom;
pos = (280,0);
},
{
name = top;
pos = (132,650);
},
{
name = topright;
pos = (318,470);
}
);
layerId = "ADDE491E-C0C4-4659-943C-53377B387F47";
shapes = (
{
closed = 1;
nodes = (
(198,0,l),
(198,650,l),
(50,650,l),
(50,0,l)
);
},
{
closed = 1;
nodes = (
(498,0,l),
(498,142,l),
(178,142,l),
(178,0,l)
);
}
);
width = 504;
},
{
anchors = (
{
name = bottom;
pos = (288,0);
},
{
name = top;
pos = (156,650);
},
{
name = topright;
pos = (366,470);
}
);
layerId = "0CF550E6-48ED-4BA5-8C66-195B58FED074";
shapes = (
{
closed = 1;
nodes = (
(254,0,l),
(254,650,l),
(42,650,l),
(42,0,l)
);
},
{
closed = 1;
nodes = (
(516,0,l),
(516,194,l),
(234,194,l),
(234,0,l)
);
}
);
width = 520;
},
{
anchors = (
{
name = bottom;
pos = (280,0);
},
{
name = top;
pos = (116,650);
},
{
name = topright;
pos = (276,470);
}
);
layerId = m004;
shapes = (
{
closed = 1;
nodes = (
(500,0,l),
(500,82,l),
(200,82,ls),
(188,82,o),
(178,76,o),
(172,67,cs),
(167,59,o),
(158,54,o),
(148,54,cs),
(132,54,o),
(120,66,o),
(120,82,cs),
(120,92,o),
(125,101,o),
(133,106,cs),
(142,112,o),
(148,122,o),
(148,134,cs),
(148,650,l),
(64,650,l),
(64,0,l)
);
},
{
pos = (6,-16);
ref = inkstem_M;
},
{
pos = (6,226);
ref = inkstem_L;
},
{
angle = -90;
pos = (40,142);
ref = inkstem_M;
},
{
pos = (344,-208);
ref = inkstem_S;
}
);
width = 508;
}
);
metricLeft = l;
unicode = 76;
}
{
glyphname = M;
kernLeft = l;
kernRight = l;
layers = (
{
layerId = "8007C042-6FBA-4E49-99B8-8B738A4EBE86";
shapes = (
{
closed = 1;
nodes = (
(148,0,l),
(148,528,l),
(354,2,l),
(436,2,l),
(636,528,l),
(636,0,l),
(720,0,l),
(720,650,l),
(598,650,l),
(396,116,l),
(190,650,l),
(64,650,l),
(64,0,l)
);
}
);
width = 784;
},
{
layerId = "ADDE491E-C0C4-4659-943C-53377B387F47";
shapes = (
{
closed = 1;
nodes = (
(198,0,l),
(198,504,l),
(343,0,l),
(449,0,l),
(590,504,l),
(590,0,l),
(738,0,l),
(738,650,l),
(542,650,l),
(398,136,l),
(252,650,l),
(50,650,l),
(50,0,l)
);
}
);
width = 788;
},
{
layerId = "0CF550E6-48ED-4BA5-8C66-195B58FED074";
shapes = (
{
closed = 1;
nodes = (
(246,0,l),
(246,488,l),
(346,0,l),
(460,0,l),
(558,488,l),
(558,0,l),
(762,0,l),
(762,650,l),
(498,650,l),
(406,148,l),
(312,650,l),
(42,650,l),
(42,0,l)
);
}
);
width = 804;
},
{
associatedMasterId = "0CF550E6-48ED-4BA5-8C66-195B58FED074";
layerId = "7D3194E7-07DE-4ED1-B62A-2847223E7A41";
name = "22 feb 22, 17:37";
shapes = (
{
closed = 1;
nodes = (
(246,0,l),
(246,480,l),
(342,0,l),
(464,0,l),
(558,480,l),
(558,0,l),
(762,0,l),
(762,650,l),
(478,650,l),
(406,164,l),
(332,650,l),
(42,650,l),
(42,0,l)
);
}
);
width = 804;
},
{
layerId = m004;
shapes = (
{
closed = 1;
nodes = (
(621,488,o),
(620,496,o),
(616,500,cs),
(611,505,o),
(608,512,o),
(608,520,cs),
(608,536,o),
(620,548,o),
(636,548,cs),
(652,548,o),
(664,536,o),
(664,520,cs),
(664,509,o),
(658,500,o),
(649,495,cs),
(641,492,o),
(636,485,o),
(636,477,cs),
(636,0,l),
(720,0,l),
(720,650,l),
(598,650,l),
(411,155,ls),
(408,148,o),
(410,141,o),
(416,136,cs),
(421,131,o),
(424,124,o),
(424,116,cs),
(424,100,o),
(412,88,o),
(396,88,cs),
(380,88,o),
(368,100,o),
(368,116,cs),
(368,124,o),
(371,131,o),
(376,136,cs),
(382,141,o),
(384,148,o),
(381,155,cs),
(190,650,l),
(64,650,l),
(64,0,l),
(148,0,l),
(148,477,ls),
(148,485,o),
(143,492,o),
(135,495,cs),
(126,500,o),
(120,509,o),
(120,520,cs),
(120,536,o),
(132,548,o),
(148,548,cs),
(164,548,o),
(176,536,o),
(176,520,cs),
(176,512,o),
(173,505,o),
(168,500,cs),
(164,496,o),
(164,489,o),
(166,483,cs),
(354,2,l),
(436,2,l),
(618,480,ls)
);
},
{
pos = (6,47);
ref = inkstem_L;
},
{
pos = (578,47);
ref = inkstem_L;
},
{
angle = 21.00012;
pos = (304,-37);
ref = inkstem_M;
},
{
angle = 158.99988;
pos = (486,-37);
ref = inkstem_M;
scale = (1,-1);
},
{
pos = (451,165);
ref = inkstem_S;
},
{
pos = (137,165);
ref = inkstem_S;
},
{
pos = (578,-196);
ref = inkstem_M;
},
{
pos = (6,-196);
ref = inkstem_M;
}
);
width = 784;
}
);
metricLeft = l;
metricRight = l;
unicode = 77;
}
{
glyphname = N;
kernLeft = l;
kernRight = l;
layers = (
{
anchors = (
{
name = bottom;
pos = (324,0);
},
{
name = top;
pos = (332,650);
}
);
layerId = "8007C042-6FBA-4E49-99B8-8B738A4EBE86";
shapes = (
{
closed = 1;
nodes = (
(148,0,l),
(148,524,l),
(500,0,l),
(596,0,l),
(596,650,l),
(512,650,l),
(512,122,l),
(168,650,l),
(64,650,l),
(64,0,l)
);
}
);
width = 660;
},
{
anchors = (
{
name = bottom;
pos = (314,0);
},
{
name = top;
pos = (322,650);
}
);
layerId = "ADDE491E-C0C4-4659-943C-53377B387F47";
shapes = (
{
closed = 1;
nodes = (
(198,0,l),
(198,436,l),
(434,0,l),
(598,0,l),
(598,650,l),
(450,650,l),
(450,210,l),
(218,650,l),
(50,650,l),
(50,0,l)
);
}
);
width = 648;
},
{
anchors = (
{
name = bottom;
pos = (334,0);
},
{
name = top;
pos = (338,650);
}
);
layerId = "0CF550E6-48ED-4BA5-8C66-195B58FED074";
shapes = (
{
closed = 1;
nodes = (
(246,0,l),
(246,392,l),
(414,0,l),
(638,0,l),
(638,650,l),
(434,650,l),
(434,244,l),
(266,650,l),
(42,650,l),
(42,0,l)
);
}
);
width = 680;
},
{
anchors = (
{
name = bottom;
pos = (324,0);
},
{
name = top;
pos = (332,650);
}
);
layerId = m004;
shapes = (
{
closed = 1;
nodes = (
(148,0,l),
(148,476,ls),
(148,484,o),
(145,491,o),
(137,494,cs),
(127,498,o),
(120,509,o),
(120,520,cs),
(120,536,o),
(132,548,o),
(148,548,cs),
(164,548,o),
(176,536,o),
(176,520,cs),
(176,514,o),
(175,509,o),
(172,505,cs),
(168,499,o),
(168,493,o),
(172,488,cs),
(500,0,l),
(596,0,l),
(596,650,l),
(512,650,l),
(512,170,ls),
(512,162,o),
(515,155,o),
(523,152,cs),
(533,148,o),
(540,137,o),
(540,126,cs),
(540,110,o),
(528,98,o),
(512,98,cs),
(496,98,o),
(484,110,o),
(484,126,cs),
(484,132,o),
(485,137,o),
(488,141,cs),
(492,147,o),
(492,153,o),
(488,160,cs),
(168,650,l),
(64,650,l),
(64,0,l)
);
},
{
pos = (6,-196);
ref = inkstem_M;
},
{
pos = (454,290);
ref = inkstem_M;
},
{
pos = (454,47);
ref = inkstem_L;
},
{
pos = (6,47);
ref = inkstem_L;
},
{
angle = 33.50001;
pos = (449,-34);
ref = inkstem_M;
},
{
pos = (171,165);
ref = inkstem_S;
}
);
width = 660;
}
);
metricLeft = l;
metricRight = l;
unicode = 78;
}
{
color = 10;
glyphname = O;
kernLeft = O;
kernRight = O;
layers = (
{
anchors = (
{
name = top;
pos = (352,650);
}
);
layerId = "8007C042-6FBA-4E49-99B8-8B738A4EBE86";
shapes = (
{
closed = 1;
nodes = (
(535,-12,o),
(668,130,o),
(668,325,cs),
(668,520,o),
(535,662,o),
(352,662,cs),
(169,662,o),
(36,520,o),
(36,325,cs),
(36,130,o),
(169,-12,o),
(352,-12,cs)
);
},
{
closed = 1;
nodes = (
(220,72,o),
(124,178,o),
(124,325,cs),
(124,473,o),
(220,580,o),
(352,580,cs),
(484,580,o),
(580,473,o),
(580,325,cs),
(580,178,o),
(484,72,o),
(352,72,cs)
);
}
);
width = 704;
},
{
anchors = (
{
name = top;
pos = (352,650);
}
);
layerId = "ADDE491E-C0C4-4659-943C-53377B387F47";
shapes = (
{
closed = 1;
nodes = (
(542,-12,o),
(676,128,o),
(676,325,cs),
(676,522,o),
(542,662,o),
(352,662,cs),
(162,662,o),
(28,522,o),
(28,325,cs),
(28,128,o),
(162,-12,o),
(352,-12,cs)
);
},
{
closed = 1;
nodes = (
(254,132,o),
(184,213,o),
(184,327,cs),
(184,441,o),
(254,522,o),
(352,522,cs),
(450,522,o),
(520,441,o),
(520,327,cs),
(520,213,o),
(450,132,o),
(352,132,cs)
);
}
);
width = 704;
},
{
anchors = (
{
name = top;
pos = (346,650);
}
);
layerId = "0CF550E6-48ED-4BA5-8C66-195B58FED074";
shapes = (
{
closed = 1;
nodes = (
(538,-12,o),
(672,127,o),
(672,325,cs),
(672,523,o),
(538,662,o),
(346,662,cs),
(154,662,o),
(20,523,o),
(20,325,cs),
(20,127,o),
(154,-12,o),
(346,-12,cs)
);
},
{
closed = 1;
nodes = (
(282,182,o),
(242,238,o),
(242,326,cs),
(242,414,o),
(282,470,o),
(346,470,cs),
(410,470,o),
(450,414,o),
(450,326,cs),
(450,238,o),
(410,182,o),
(346,182,cs)
);
}
);
width = 692;
},
{
anchors = (
{
name = top;
pos = (352,650);
}
);
layerId = m004;
shapes = (
{
closed = 1;
nodes = (
(535,-12,o),
(668,130,o),
(668,325,cs),
(668,520,o),
(535,662,o),
(352,662,cs),
(169,662,o),
(36,520,o),
(36,325,cs),
(36,130,o),
(169,-12,o),
(352,-12,cs)
);
},
{
closed = 1;
nodes = (
(220,72,o),
(124,178,o),
(124,325,cs),
(124,473,o),
(220,580,o),
(352,580,cs),
(484,580,o),
(580,473,o),
(580,325,cs),
(580,178,o),
(484,72,o),
(352,72,cs)
);
},
{
pos = (50,-128);
ref = inkstem_S;
},
{
angle = 90;
pos = (630,-70);
ref = inkcurve_L;
},
{
pos = (-21,47);
ref = inkcurve_L;
},
{
pos = (452,-128);
ref = inkstem_S;
},
{
pos = (52,780);
ref = inkstem_S;
scale = (1,-1);
},
{
pos = (725,47);
ref = inkcurve_L;
scale = (-1,1);
},
{
angle = 90;
pos = (630,722);
ref = inkcurve_L;
scale = (-1,1);
},
{
pos = (450,780);
ref = inkstem_S;
scale = (1,-1);
}
);
width = 704;
}
);
metricRight = "=|O";
unicode = 79;
}
{
color = 10;
glyphname = P;
kernLeft = l;
kernRight = P;
layers = (
{
layerId = "8007C042-6FBA-4E49-99B8-8B738A4EBE86";
shapes = (
{
closed = 1;
nodes = (
(334,240,ls),
(453,240,o),
(540,327,o),
(540,446,cs),
(540,564,o),
(455,650,o),
(338,650,cs),
(128,650,l),
(128,570,l),
(334,570,ls),
(402,570,o),
(452,518,o),
(452,445,cs),
(452,372,o),
(402,320,o),
(334,320,cs),
(128,320,l),
(128,240,l)
);
},
{
closed = 1;
nodes = (
(148,0,l),
(148,650,l),
(64,650,l),
(64,0,l)
);
}
);
width = 560;
},
{
layerId = "ADDE491E-C0C4-4659-943C-53377B387F47";
shapes = (
{
closed = 1;
nodes = (
(352,216,ls),
(482,216,o),
(574,306,o),
(574,434,cs),
(574,561,o),
(485,650,o),
(360,650,cs),
(178,650,l),
(178,516,l),
(336,516,ls),
(384,516,o),
(418,478,o),
(418,424,cs),
(418,370,o),
(384,332,o),
(336,332,cs),
(178,332,l),
(178,216,l)
);
},
{
closed = 1;
nodes = (
(198,0,l),
(198,650,l),
(50,650,l),
(50,0,l)
);
}
);
width = 588;
},
{
layerId = "0CF550E6-48ED-4BA5-8C66-195B58FED074";
shapes = (
{
closed = 1;
nodes = (
(378,182,ls),
(515,182,o),
(612,280,o),
(612,418,cs),
(612,554,o),
(520,650,o),
(390,650,cs),
(238,650,l),
(238,470,l),
(314,470,ls),
(364,470,o),
(396,439,o),
(396,390,cs),
(396,341,o),
(364,310,o),
(314,310,cs),
(238,310,l),
(238,182,l)
);
},
{
closed = 1;
nodes = (
(258,0,l),
(258,650,l),
(42,650,l),
(42,0,l)
);
}
);
width = 620;
},
{
layerId = m004;
shapes = (
{
closed = 1;
nodes = (
(148,0,l),
(148,188,ls),
(148,200,o),
(142,210,o),
(133,216,cs),
(125,221,o),
(120,230,o),
(120,240,cs),
(120,256,o),
(132,268,o),
(148,268,cs),
(158,268,o),
(167,263,o),
(172,255,cs),
(178,246,o),
(188,240,o),
(200,240,cs),
(334,240,ls),
(453,240,o),
(540,327,o),
(540,446,cs),
(540,564,o),
(455,650,o),
(338,650,cs),
(64,650,l),
(64,0,l)
);
},
{
closed = 1;
nodes = (
(132,292,o),
(120,304,o),
(120,320,cs),
(120,330,o),
(125,339,o),
(133,344,cs),
(142,350,o),
(148,360,o),
(148,372,cs),
(148,518,ls),
(148,530,o),
(142,540,o),
(133,546,cs),
(125,551,o),
(120,560,o),
(120,570,cs),
(120,586,o),
(132,598,o),
(148,598,cs),
(158,598,o),
(167,593,o),
(172,585,cs),
(178,576,o),
(188,570,o),
(200,570,cs),
(334,570,ls),
(402,570,o),
(452,518,o),
(452,445,cs),
(452,372,o),
(402,320,o),
(334,320,cs),
(200,320,ls),
(188,320,o),
(178,314,o),
(172,305,cs),
(167,297,o),
(158,292,o),
(148,292,cs)
);
},
{
angle = 180;
pos = (206,360);
ref = inkstem_M;
},
{
pos = (184,30);
ref = inkstem_S;
},
{
pos = (324,56);
ref = inkstem_S;
},
{
angle = -90;
pos = (16,710);
ref = inkstem_M;
},
{
pos = (597,168);
ref = inkcurve_L;
scale = (-1,1);
},
{
pos = (337,325);
ref = inkstem_S;
}
);
width = 560;
}
);
metricLeft = l;
unicode = 80;
}
{
glyphname = Q;
kernLeft = O;
kernRight = O;
layers = (
{
layerId = "8007C042-6FBA-4E49-99B8-8B738A4EBE86";
shapes = (
{
closed = 1;
nodes = (
(542,-12,o),
(668,123,o),
(668,321,cs),
(668,521,o),
(538,662,o),
(354,662,cs),
(168,662,o),
(36,522,o),
(36,323,cs),
(36,127,o),
(169,-12,o),
(356,-12,cs)
);
},
{
closed = 1;
nodes = (
(648,0,l),
(556,116,l),
(436,284,l),
(358,390,l),
(292,334,l),
(370,232,l),
(496,68,l),
(580,-52,l)
);
},
{
closed = 1;
nodes = (
(220,72,o),
(124,176,o),
(124,323,cs),
(124,474,o),
(219,580,o),
(354,580,cs),
(486,580,o),
(580,473,o),
(580,321,cs),
(580,173,o),
(490,72,o),
(356,72,cs)
);
}
);
width = 704;
},
{
layerId = "ADDE491E-C0C4-4659-943C-53377B387F47";
shapes = (
{
closed = 1;
nodes = (
(546,-12,o),
(676,123,o),
(676,321,cs),
(676,521,o),
(543,662,o),
(354,662,cs),
(163,662,o),
(28,522,o),
(28,323,cs),
(28,127,o),
(164,-12,o),
(356,-12,cs)
);
},
{
closed = 1;
nodes = (
(664,-4,l),
(548,144,l),
(442,288,l),
(368,388,l),
(284,320,l),
(358,220,l),
(468,76,l),
(572,-76,l)
);
},
{
closed = 1;
nodes = (
(253,132,o),
(180,211,o),
(180,323,cs),
(180,440,o),
(252,522,o),
(354,522,cs),
(454,522,o),
(524,439,o),
(524,321,cs),
(524,207,o),
(456,132,o),
(356,132,cs)
);
}
);
width = 704;
},
{
layerId = "0CF550E6-48ED-4BA5-8C66-195B58FED074";
shapes = (
{
closed = 1;
nodes = (
(526,-12,o),
(660,129,o),
(660,328,cs),
(660,524,o),
(527,662,o),
(340,662,cs),
(153,662,o),
(20,522,o),
(20,323,cs),
(20,127,o),
(151,-12,o),
(336,-12,cs)
);
},
{
closed = 1;
nodes = (
(278,182,o),
(236,238,o),
(236,326,cs),
(236,414,o),
(277,470,o),
(341,470,cs),
(404,470,o),
(444,414,o),
(444,326,cs),
(444,238,o),
(405,182,o),
(344,182,cs)
);
},
{
closed = 1;
nodes = (
(660,-12,l),
(524,152,l),
(400,60,l),
(536,-112,l)
);
}
);
width = 680;
},
{
associatedMasterId = "0CF550E6-48ED-4BA5-8C66-195B58FED074";
layerId = "FBB65DF0-51CD-4106-8CB6-94550218E2A7";
name = "31 gen 22, 14:56";
shapes = (
{
closed = 1;
nodes = (
(538,-12,o),
(668,125,o),
(668,321,cs),
(668,521,o),
(534,662,o),
(345,662,cs),
(155,662,o),
(20,522,o),
(20,323,cs),
(20,127,o),
(156,-12,o),
(348,-12,cs)
);
},
{
closed = 1;
nodes = (
(274,170,o),
(227,230,o),
(227,324,cs),
(227,420,o),
(273,482,o),
(345,482,cs),
(416,482,o),
(461,419,o),
(461,322,cs),
(461,228,o),
(420,170,o),
(348,170,cs)
);
},
{
closed = 1;
nodes = (
(668,-8,l),
(526,148,l),
(400,312,l),
(352,372,l),
(284,312,l),
(332,252,l),
(464,96,l),
(588,-76,l)
);
}
);
width = 688;
},
{
layerId = m004;
shapes = (
{
closed = 1;
nodes = (
(648,0,l),
(583,82,l),
(637,140,o),
(668,223,o),
(668,321,cs),
(668,521,o),
(538,662,o),
(354,662,cs),
(168,662,o),
(36,522,o),
(36,323,cs),
(36,127,o),
(169,-12,o),
(356,-12,cs),
(405,-12,o),
(450,-3,o),
(490,15,cs),
(500,20,o),
(496,27,o),
(496,36,cs),
(496,52,o),
(508,64,o),
(524,64,cs),
(540,64,o),
(552,52,o),
(552,36,cs),
(552,29,o),
(549,22,o),
(545,17,cs),
(541,12,o),
(541,5,o),
(545,-1,cs),
(580,-52,l)
);
},
{
closed = 1;
nodes = (
(220,72,o),
(124,176,o),
(124,323,cs),
(124,474,o),
(219,580,o),
(354,580,cs),
(486,580,o),
(580,473,o),
(580,321,cs),
(580,272,o),
(570,229,o),
(553,192,cs),
(549,184,o),
(549,175,o),
(553,169,cs),
(556,165,o),
(557,160,o),
(557,154,cs),
(557,138,o),
(545,126,o),
(529,126,cs),
(513,126,o),
(501,138,o),
(501,154,cs),
(501,159,o),
(502,164,o),
(505,169,cs),
(509,175,o),
(509,183,o),
(504,189,cs),
(436,284,l),
(358,390,l),
(292,334,l),
(470,102,l),
(438,82,o),
(399,72,o),
(356,72,cs)
);
},
{
pos = (50,-128);
ref = inkstem_S;
},
{
angle = 90;
pos = (630,-70);
ref = inkcurve_L;
},
{
pos = (-21,47);
ref = inkcurve_L;
},
{
angle = 37.49478;
pos = (465,14);
ref = inkstem_M;
},
{
pos = (52,780);
ref = inkstem_S;
scale = (1,-1);
},
{
pos = (725,47);
ref = inkcurve_L;
scale = (-1,1);
},
{
angle = 90;
pos = (630,722);
ref = inkcurve_L;
scale = (-1,1);
},
{
pos = (450,780);
ref = inkstem_S;
scale = (1,-1);
}
);
width = 704;
}
);
metricLeft = O;
metricRight = O;
unicode = 81;
}
{
color = 10;
glyphname = R;
kernLeft = l;
kernRight = R;
layers = (
{
anchors = (
{
name = bottom;
pos = (300,0);
},
{
name = top;
pos = (296,650);
}
);
layerId = "8007C042-6FBA-4E49-99B8-8B738A4EBE86";
shapes = (
{
closed = 1;
nodes = (
(362,261,ls),
(475,261,o),
(556,342,o),
(556,455,cs),
(556,568,o),
(475,650,o),
(362,650,cs),
(128,650,l),
(128,570,l),
(358,570,ls),
(422,570,o),
(468,521,o),
(468,454,cs),
(468,387,o),
(420,339,o),
(354,339,cs),
(128,339,l),
(128,261,l)
);
},
{
closed = 1;
nodes = (
(148,0,l),
(148,650,l),
(64,650,l),
(64,0,l)
);
},
{
closed = 1;
nodes = (
(572,0,l),
(416,280,l),
(322,280,l),
(472,0,l)
);
}
);
width = 604;
},
{
anchors = (
{
name = bottom;
pos = (298,0);
},
{
name = top;
pos = (306,650);
}
);
layerId = "ADDE491E-C0C4-4659-943C-53377B387F47";
shapes = (
{
closed = 1;
nodes = (
(362,236,ls),
(491,236,o),
(582,321,o),
(582,442,cs),
(582,564,o),
(497,650,o),
(378,650,cs),
(178,650,l),
(178,516,l),
(344,516,ls),
(392,516,o),
(426,480,o),
(426,428,cs),
(426,376,o),
(390,340,o),
(340,340,cs),
(178,340,l),
(178,236,l)
);
},
{
closed = 1;
nodes = (
(198,0,l),
(198,650,l),
(50,650,l),
(50,0,l)
);
},
{
closed = 1;
nodes = (
(594,0,l),
(456,280,l),
(316,280,l),
(418,0,l)
);
}
);
width = 620;
},
{
anchors = (
{
name = bottom;
pos = (330,0);
},
{
name = top;
pos = (332,650);
}
);
layerId = "0CF550E6-48ED-4BA5-8C66-195B58FED074";
shapes = (
{
closed = 1;
nodes = (
(408,212,ls),
(539,212,o),
(632,303,o),
(632,432,cs),
(632,560,o),
(546,650,o),
(424,650,cs),
(238,650,l),
(238,478,l),
(332,478,ls),
(383,478,o),
(416,448,o),
(416,402,cs),
(416,355,o),
(382,324,o),
(328,324,cs),
(238,324,l),
(238,212,l)
);
},
{
closed = 1;
nodes = (
(258,0,l),
(258,650,l),
(42,650,l),
(42,0,l)
);
},
{
closed = 1;
nodes = (
(644,0,l),
(508,280,l),
(320,280,l),
(404,0,l)
);
}
);
width = 660;
},
{
anchors = (
{
name = bottom;
pos = (330,0);
},
{
name = top;
pos = (332,650);
}
);
associatedMasterId = "0CF550E6-48ED-4BA5-8C66-195B58FED074";
layerId = "6AC75980-47B5-4A51-8689-61A56F979209";
name = "22 feb 22, 17:51";
shapes = (
{
closed = 1;
nodes = (
(408,212,ls),
(539,212,o),
(632,303,o),
(632,432,cs),
(632,560,o),
(546,650,o),
(424,650,cs),
(238,650,l),
(238,478,l),
(332,478,ls),
(383,478,o),
(416,448,o),
(416,402,cs),
(416,355,o),
(382,324,o),
(328,324,cs),
(238,324,l),
(238,212,l)
);
},
{
closed = 1;
nodes = (
(258,0,l),
(258,650,l),
(42,650,l),
(42,0,l)
);
},
{
closed = 1;
nodes = (
(644,0,l),
(520,280,l),
(324,280,l),
(408,0,l)
);
}
);
width = 660;
},
{
anchors = (
{
name = bottom;
pos = (300,0);
},
{
name = top;
pos = (296,650);
}
);
layerId = m004;
shapes = (
{
closed = 1;
nodes = (
(148,0,l),
(148,209,ls),
(148,221,o),
(142,231,o),
(133,237,cs),
(125,242,o),
(120,251,o),
(120,261,cs),
(120,277,o),
(132,289,o),
(148,289,cs),
(158,289,o),
(167,284,o),
(172,276,cs),
(178,267,o),
(188,261,o),
(200,261,cs),
(332,261,l),
(472,0,l),
(572,0,l),
(442,233,ls),
(434,247,o),
(430,242,o),
(420,242,cs),
(404,242,o),
(392,254,o),
(392,270,cs),
(392,286,o),
(404,298,o),
(420,298,cs),
(429,298,o),
(437,294,o),
(442,288,cs),
(446,282,o),
(452,280,o),
(459,284,cs),
(520,316,o),
(556,377,o),
(556,455,cs),
(556,568,o),
(475,650,o),
(362,650,cs),
(64,650,l),
(64,0,l)
);
},
{
closed = 1;
nodes = (
(132,311,o),
(120,323,o),
(120,339,cs),
(120,349,o),
(125,358,o),
(133,363,cs),
(142,369,o),
(148,379,o),
(148,391,cs),
(148,518,ls),
(148,530,o),
(142,540,o),
(133,546,cs),
(125,551,o),
(120,560,o),
(120,570,cs),
(120,586,o),
(132,598,o),
(148,598,cs),
(158,598,o),
(167,593,o),
(172,585,cs),
(178,576,o),
(188,570,o),
(200,570,cs),
(358,570,ls),
(422,570,o),
(468,521,o),
(468,454,cs),
(468,387,o),
(420,339,o),
(354,339,cs),
(200,339,ls),
(188,339,o),
(178,333,o),
(172,324,cs),
(167,316,o),
(158,311,o),
(148,311,cs)
);
},
{
angle = 180;
pos = (206,360);
ref = inkstem_M;
},
{
angle = -151.95528;
pos = (408,424);
ref = inkstem_L;
},
{
pos = (184,50);
ref = inkstem_S;
},
{
angle = -90;
pos = (16,710);
ref = inkstem_M;
},
{
pos = (612,174);
ref = inkcurve_L;
scale = (-1,1);
},
{
pos = (349,332);
ref = inkstem_S;
}
);
width = 604;
}
);
metricLeft = l;
unicode = 82;
}
{
color = 10;
glyphname = S;
kernLeft = S;
kernRight = S;
layers = (
{
anchors = (
{
name = bottom;
pos = (292,0);
},
{
name = top;
pos = (288,650);
}
);
layerId = "8007C042-6FBA-4E49-99B8-8B738A4EBE86";
shapes = (
{
closed = 1;
nodes = (
(441,-12,o),
(536,65,o),
(536,176,cs),
(536,400,o),
(156,360,o),
(156,496,cs),
(156,548,o),
(212,582,o),
(276,582,cs),
(356,582,o),
(412,530,o),
(420,462,c),
(512,488,l),
(500,592,o),
(406,662,o),
(282,662,cs),
(160,662,o),
(64,596,o),
(64,492,cs),
(64,284,o),
(444,331,o),
(444,176,cs),
(444,114,o),
(382,70,o),
(302,70,cs),
(203,70,o),
(132,136,o),
(128,228,c),
(36,204,l),
(44,76,o),
(153,-12,o),
(300,-12,cs)
);
}
);
width = 572;
},
{
anchors = (
{
name = bottom;
pos = (300,0);
},
{
name = top;
pos = (296,650);
}
);
layerId = "ADDE491E-C0C4-4659-943C-53377B387F47";
shapes = (
{
closed = 1;
nodes = (
(463,-12,o),
(572,67,o),
(572,180,cs),
(572,388,o),
(200,352,o),
(200,470,cs),
(200,507,o),
(235,534,o),
(284,534,cs),
(342,534,o),
(386,497,o),
(390,444,c),
(556,484,l),
(544,588,o),
(435,662,o),
(288,662,cs),
(144,662,o),
(48,588,o),
(48,484,cs),
(48,284,o),
(412,308,o),
(412,184,cs),
(412,140,o),
(365,120,o),
(316,120,cs),
(241,120,o),
(196,166,o),
(192,229,c),
(20,193,l),
(24,75,o),
(146,-12,o),
(308,-12,cs)
);
}
);
width = 596;
},
{
anchors = (
{
name = bottom;
pos = (300,0);
},
{
name = top;
pos = (300,650);
}
);
layerId = "0CF550E6-48ED-4BA5-8C66-195B58FED074";
shapes = (
{
closed = 1;
nodes = (
(470,-12,o),
(584,69,o),
(584,184,cs),
(584,392,o),
(242,346,o),
(242,446,cs),
(242,470,o),
(262,486,o),
(292,486,cs),
(328,486,o),
(354,460,o),
(360,418,c),
(568,464,l),
(560,580,o),
(444,662,o),
(288,662,cs),
(138,662,o),
(32,587,o),
(32,480,cs),
(32,284,o),
(372,324,o),
(372,216,cs),
(372,187,o),
(347,168,o),
(308,168,cs),
(258,168,o),
(224,198,o),
(220,244,c),
(4,204,l),
(8,76,o),
(132,-12,o),
(304,-12,cs)
);
}
);
width = 596;
},
{
anchors = (
{
name = bottom;
pos = (304,0);
},
{
name = top;
pos = (300,650);
}
);
associatedMasterId = "ADDE491E-C0C4-4659-943C-53377B387F47";
layerId = "F3E655FE-06D0-40A1-9A32-4C8EF396F9F5";
name = "4 feb 22, 17:42";
shapes = (
{
closed = 1;
nodes = (
(28,75,o),
(150,-12,o),
(312,-12,cs),
(467,-12,o),
(576,67,o),
(576,180,cs),
(576,388,o),
(204,352,o),
(204,470,cs),
(204,507,o),
(243,534,o),
(292,534,cs),
(350,534,o),
(392,496,o),
(396,444,c),
(564,484,l),
(556,587,o),
(433,662,o),
(288,662,cs),
(142,662,o),
(48,586,o),
(48,480,cs),
(48,272,o),
(416,308,o),
(416,184,cs),
(416,140,o),
(369,120,o),
(320,120,cs),
(245,120,o),
(200,166,o),
(196,229,c),
(24,193,l)
);
}
);
width = 600;
},
{
anchors = (
{
name = bottom;
pos = (296,0);
},
{
name = top;
pos = (300,650);
}
);
associatedMasterId = "0CF550E6-48ED-4BA5-8C66-195B58FED074";
layerId = "5F7EB9B3-71F7-4E6D-AC0F-ECF753D15ED6";
name = "22 feb 22, 17:54";
shapes = (
{
closed = 1;
nodes = (
(470,-12,o),
(584,69,o),
(584,184,cs),
(584,392,o),
(242,346,o),
(242,442,cs),
(242,464,o),
(260,478,o),
(288,478,cs),
(324,478,o),
(351,453,o),
(357,413,c),
(569,467,l),
(561,579,o),
(451,662,o),
(292,662,cs),
(136,662,o),
(32,588,o),
(32,480,cs),
(32,280,o),
(372,324,o),
(372,220,cs),
(372,192,o),
(348,174,o),
(310,174,cs),
(260,174,o),
(228,206,o),
(224,256,c),
(4,204,l),
(8,76,o),
(132,-12,o),
(304,-12,cs)
);
}
);
width = 596;
},
{
anchors = (
{
name = bottom;
pos = (292,0);
},
{
name = top;
pos = (288,650);
}
);
layerId = m004;
shapes = (
{
closed = 1;
nodes = (
(441,-12,o),
(536,65,o),
(536,176,cs),
(536,400,o),
(156,360,o),
(156,496,cs),
(156,548,o),
(212,582,o),
(276,582,cs),
(356,582,o),
(412,530,o),
(420,462,c),
(512,488,l),
(500,592,o),
(406,662,o),
(282,662,cs),
(160,662,o),
(64,596,o),
(64,492,cs),
(64,284,o),
(444,331,o),
(444,176,cs),
(444,114,o),
(382,70,o),
(302,70,cs),
(203,70,o),
(132,136,o),
(128,228,c),
(36,204,l),
(44,76,o),
(153,-12,o),
(300,-12,cs)
);
},
{
pos = (-6,412);
ref = inkstem_S;
scale = (1,-1);
},
{
angle = 90;
pos = (584,-72);
ref = inkcurve_L;
},
{
pos = (12,220);
ref = inkcurve_S;
},
{
angle = 69.95429;
pos = (556,142);
ref = inkstem_L;
},
{
pos = (588,-104);
ref = inkcurve_S;
scale = (-1,1);
},
{
angle = 90;
pos = (554,722);
ref = inkcurve_L;
scale = (-1,1);
},
{
pos = (348,778);
ref = inkstem_S;
scale = (1,-1);
}
);
width = 572;
}
);
note = "Stretta?";
unicode = 83;
}
{
color = 10;
glyphname = T;
kernLeft = T;
kernRight = T;
layers = (
{
anchors = (
{
name = bottom;
pos = (280,0);
},
{
name = top;
pos = (280,650);
}
);
layerId = "8007C042-6FBA-4E49-99B8-8B738A4EBE86";
shapes = (
{
closed = 1;
nodes = (
(320,0,l),
(320,590,l),
(236,590,l),
(236,0,l)
);
},
{
closed = 1;
nodes = (
(554,570,l),
(554,650,l),
(2,650,l),
(2,570,l)
);
}
);
width = 556;
},
{
anchors = (
{
name = bottom;
pos = (282,0);
},
{
name = top;
pos = (282,650);
}
);
layerId = "ADDE491E-C0C4-4659-943C-53377B387F47";
shapes = (
{
closed = 1;
nodes = (
(356,0,l),
(356,530,l),
(208,530,l),
(208,0,l)
);
},
{
closed = 1;
nodes = (
(562,510,l),
(562,650,l),
(2,650,l),
(2,510,l)
);
}
);
width = 564;
},
{
anchors = (
{
name = bottom;
pos = (294,0);
},
{
name = top;
pos = (294,650);
}
);
layerId = "0CF550E6-48ED-4BA5-8C66-195B58FED074";
shapes = (
{
closed = 1;
nodes = (
(400,0,l),
(400,478,l),
(188,478,l),
(188,0,l)
);
},
{
closed = 1;
nodes = (
(586,458,l),
(586,650,l),
(2,650,l),
(2,458,l)
);
}
);
width = 588;
},
{
anchors = (
{
name = bottom;
pos = (280,0);
},
{
name = top;
pos = (280,650);
}
);
layerId = m004;
shapes = (
{
closed = 1;
nodes = (
(320,0,l),
(320,518,ls),
(320,530,o),
(314,540,o),
(305,546,cs),
(297,551,o),
(292,560,o),
(292,570,cs),
(292,586,o),
(304,598,o),
(320,598,cs),
(330,598,o),
(339,593,o),
(344,585,cs),
(350,576,o),
(360,570,o),
(372,570,cs),
(554,570,l),
(554,650,l),
(2,650,l),
(2,570,l),
(184,570,ls),
(196,570,o),
(206,576,o),
(212,585,cs),
(217,593,o),
(226,598,o),
(236,598,cs),
(252,598,o),
(264,586,o),
(264,570,cs),
(264,560,o),
(259,551,o),
(251,546,cs),
(242,540,o),
(236,530,o),
(236,518,cs),
(236,0,l)
);
},
{
pos = (178,-194);
ref = inkstem_S;
},
{
pos = (178,-16);
ref = inkstem_L;
},
{
angle = -90;
pos = (-194,710);
ref = inkstem_M;
},
{
angle = -90;
pos = (194,710);
ref = inkstem_M;
}
);
width = 556;
}
);
metricRight = "=|";
unicode = 84;
}
{
color = 10;
glyphname = U;
kernLeft = U;
kernRight = U;
layers = (
{
anchors = (
{
name = ogonek;
pos = (448,0);
},
{
name = top;
pos = (320,650);
}
);
layerId = "8007C042-6FBA-4E49-99B8-8B738A4EBE86";
shapes = (
{
closed = 1;
nodes = (
(470,-12,o),
(580,103,o),
(580,262,cs),
(580,650,l),
(496,650,l),
(496,264,ls),
(496,153,o),
(421,72,o),
(318,72,cs),
(215,72,o),
(140,153,o),
(140,264,cs),
(140,650,l),
(56,650,l),
(56,262,ls),
(56,103,o),
(166,-12,o),
(318,-12,cs)
);
}
);
width = 636;
},
{
anchors = (
{
name = ogonek;
pos = (452,0);
},
{
name = top;
pos = (316,650);
}
);
layerId = "ADDE491E-C0C4-4659-943C-53377B387F47";
shapes = (
{
closed = 1;
nodes = (
(472,-12,o),
(584,102,o),
(584,264,cs),
(584,650,l),
(436,650,l),
(436,272,ls),
(436,190,o),
(385,132,o),
(314,132,cs),
(243,132,o),
(192,190,o),
(192,272,cs),
(192,650,l),
(44,650,l),
(44,264,ls),
(44,102,o),
(156,-12,o),
(314,-12,cs)
);
}
);
width = 628;
},
{
anchors = (
{
name = ogonek;
pos = (474,0);
},
{
name = top;
pos = (322,650);
}
);
layerId = "0CF550E6-48ED-4BA5-8C66-195B58FED074";
shapes = (
{
closed = 1;
nodes = (
(494,-12,o),
(606,91,o),
(606,252,cs),
(606,650,l),
(394,650,l),
(394,256,ls),
(394,205,o),
(365,172,o),
(320,172,cs),
(275,172,o),
(246,205,o),
(246,256,cs),
(246,650,l),
(34,650,l),
(34,252,ls),
(34,91,o),
(146,-12,o),
(320,-12,cs)
);
}
);
width = 640;
},
{
anchors = (
{
name = ogonek;
pos = (448,0);
},
{
name = top;
pos = (320,650);
}
);
layerId = m004;
shapes = (
{
closed = 1;
nodes = (
(470,-12,o),
(580,103,o),
(580,262,cs),
(580,650,l),
(496,650,l),
(496,264,ls),
(496,153,o),
(421,72,o),
(318,72,cs),
(215,72,o),
(140,153,o),
(140,264,cs),
(140,650,l),
(56,650,l),
(56,262,ls),
(56,103,o),
(166,-12,o),
(318,-12,cs)
);
},
{
pos = (40,-130);
ref = inkstem_S;
},
{
angle = 90;
pos = (596,-70);
ref = inkcurve_L;
},
{
pos = (-3,48);
ref = inkstem_M;
},
{
pos = (394,-130);
ref = inkstem_S;
},
{
pos = (-3,226);
ref = inkstem_L;
},
{
pos = (437,48);
ref = inkstem_M;
},
{
pos = (437,226);
ref = inkstem_L;
}
);
width = 636;
}
);
metricRight = "=|";
unicode = 85;
}
{
color = 10;
glyphname = V;
kernLeft = V;
kernRight = V;
layers = (
{
layerId = "8007C042-6FBA-4E49-99B8-8B738A4EBE86";
shapes = (
{
closed = 1;
nodes = (
(338,0,l),
(572,650,l),
(482,650,l),
(292,102,l),
(96,650,l),
(4,650,l),
(242,0,l)
);
}
);
width = 576;
},
{
layerId = "ADDE491E-C0C4-4659-943C-53377B387F47";
shapes = (
{
closed = 1;
nodes = (
(404,0,l),
(614,650,l),
(454,650,l),
(312,142,l),
(166,650,l),
(2,650,l),
(212,0,l)
);
}
);
width = 616;
},
{
layerId = "0CF550E6-48ED-4BA5-8C66-195B58FED074";
shapes = (
{
closed = 1;
nodes = (
(468,0,l),
(660,650,l),
(428,650,l),
(336,186,l),
(234,650,l),
(0,650,l),
(188,0,l)
);
}
);
width = 660;
},
{
associatedMasterId = "0CF550E6-48ED-4BA5-8C66-195B58FED074";
layerId = "703658A5-02D6-45DA-8759-3BCCF0878B46";
name = "4 feb 22, 18:31";
shapes = (
{
closed = 1;
nodes = (
(458,0,l),
(644,650,l),
(434,650,l),
(326,186,l),
(214,650,l),
(0,650,l),
(186,0,l)
);
}
);
width = 644;
},
{
layerId = m004;
shapes = (
{
closed = 1;
nodes = (
(338,0,l),
(572,650,l),
(482,650,l),
(305,140,ls),
(303,134,o),
(305,128,o),
(310,124,cs),
(316,119,o),
(320,111,o),
(320,102,cs),
(320,86,o),
(308,74,o),
(292,74,cs),
(276,74,o),
(264,86,o),
(264,102,cs),
(264,111,o),
(267,119,o),
(274,124,cs),
(279,128,o),
(280,134,o),
(278,140,cs),
(96,650,l),
(4,650,l),
(242,0,l)
);
},
{
pos = (100,-14);
ref = inkstem_S;
},
{
angle = -159.80165;
pos = (333,166);
ref = inkstem_M;
scale = (1,-1);
},
{
pos = (280,-14);
ref = inkstem_S;
},
{
pos = (-30,344);
ref = inkstem_S;
},
{
angle = -20.19835;
pos = (246,166);
ref = inkstem_M;
},
{
pos = (407,344);
ref = inkstem_S;
}
);
width = 576;
}
);
metricRight = "=|";
unicode = 86;
}
{
color = 10;
glyphname = W;
kernLeft = W;
kernRight = W;
layers = (
{
layerId = "8007C042-6FBA-4E49-99B8-8B738A4EBE86";
shapes = (
{
closed = 1;
nodes = (
(246,0,l),
(382,520,l),
(514,0,l),
(628,0,l),
(720,650,l),
(634,650,l),
(564,108,l),
(430,648,l),
(338,648,l),
(198,108,l),
(128,650,l),
(40,650,l),
(130,0,l)
);
}
);
width = 760;
},
{
layerId = "ADDE491E-C0C4-4659-943C-53377B387F47";
shapes = (
{
closed = 1;
nodes = (
(288,0,l),
(390,500,l),
(494,0,l),
(672,0,l),
(744,650,l),
(592,650,l),
(546,160,l),
(452,648,l),
(330,648,l),
(236,160,l),
(190,650,l),
(34,650,l),
(102,0,l)
);
}
);
width = 780;
},
{
layerId = "0CF550E6-48ED-4BA5-8C66-195B58FED074";
shapes = (
{
closed = 1;
nodes = (
(334,0,l),
(396,492,l),
(460,0,l),
(696,0,l),
(764,650,l),
(550,650,l),
(524,192,l),
(458,648,l),
(334,648,l),
(276,192,l),
(242,650,l),
(24,650,l),
(88,0,l)
);
}
);
width = 792;
},
{
associatedMasterId = "0CF550E6-48ED-4BA5-8C66-195B58FED074";
layerId = "1E15B5BA-365E-4D77-BD4C-ABF0D1E7CEEC";
name = "22 feb 22, 18:04";
shapes = (
{
closed = 1;
nodes = (
(340,0,l),
(397,480,l),
(456,0,l),
(698,0,l),
(764,650,l),
(548,650,l),
(532,212,l),
(460,648,l),
(332,648,l),
(268,212,l),
(244,650,l),
(24,650,l),
(84,0,l)
);
}
);
width = 792;
},
{
layerId = m004;
shapes = (
{
closed = 1;
nodes = (
(246,0,l),
(371,478,ls),
(373,485,o),
(371,493,o),
(364,498,cs),
(358,503,o),
(354,511,o),
(354,520,cs),
(354,536,o),
(366,548,o),
(382,548,cs),
(398,548,o),
(410,536,o),
(410,520,cs),
(410,511,o),
(407,503,o),
(400,498,cs),
(393,493,o),
(391,484,o),
(393,477,cs),
(514,0,l),
(628,0,l),
(720,650,l),
(634,650,l),
(570,152,ls),
(568,140,o),
(571,136,o),
(577,133,cs),
(586,128,o),
(592,119,o),
(592,108,cs),
(592,92,o),
(580,80,o),
(564,80,cs),
(548,80,o),
(536,92,o),
(536,108,cs),
(536,117,o),
(540,125,o),
(546,130,cs),
(553,136,o),
(555,142,o),
(553,151,cs),
(430,648,l),
(338,648,l),
(209,151,ls),
(207,142,o),
(209,136,o),
(216,130,cs),
(222,125,o),
(226,117,o),
(226,108,cs),
(226,92,o),
(214,80,o),
(198,80,cs),
(182,80,o),
(170,92,o),
(170,108,cs),
(170,119,o),
(176,128,o),
(185,133,cs),
(191,136,o),
(194,140,o),
(192,152,cs),
(128,650,l),
(40,650,l),
(130,0,l)
);
},
{
pos = (38,-14);
ref = inkstem_S;
},
{
pos = (-9,344);
ref = inkstem_S;
},
{
pos = (521,-14);
ref = inkstem_S;
},
{
pos = (569,344);
ref = inkstem_S;
},
{
angle = 13.693;
pos = (439,31);
ref = inkstem_L;
},
{
angle = -14.46036;
pos = (127,80);
ref = inkstem_L;
},
{
angle = 7.91246;
pos = (57,100);
ref = inkstem_M;
},
{
angle = -7.60081;
pos = (506,127);
ref = inkstem_M;
}
);
width = 760;
}
);
note = "make alternate";
unicode = 87;
}
{
color = 10;
glyphname = X;
kernLeft = X;
kernRight = X;
layers = (
{
layerId = "8007C042-6FBA-4E49-99B8-8B738A4EBE86";
shapes = (
{
closed = 1;
nodes = (
(116,0,l),
(296,260,l),
(484,0,l),
(588,0,l),
(348,332,l),
(572,650,l),
(468,650,l),
(298,404,l),
(120,650,l),
(14,650,l),
(244,332,l),
(8,0,l)
);
}
);
width = 596;
},
{
layerId = "ADDE491E-C0C4-4659-943C-53377B387F47";
shapes = (
{
closed = 1;
nodes = (
(196,0,l),
(312,208,l),
(426,0,l),
(620,0,l),
(394,332,l),
(604,650,l),
(416,650,l),
(312,448,l),
(200,650,l),
(8,650,l),
(230,326,l),
(4,0,l)
);
}
);
width = 624;
},
{
layerId = "0CF550E6-48ED-4BA5-8C66-195B58FED074";
shapes = (
{
closed = 1;
nodes = (
(652,0,l),
(440,330,l),
(636,650,l),
(388,650,l),
(322,492,l),
(252,650,l),
(2,650,l),
(204,326,l),
(0,0,l),
(250,0,l),
(326,152,l),
(400,0,l)
);
}
);
width = 652;
},
{
layerId = m004;
shapes = (
{
closed = 1;
nodes = (
(116,0,l),
(278,234,ls),
(281,239,o),
(280,246,o),
(276,251,cs),
(272,256,o),
(269,263,o),
(269,270,cs),
(269,286,o),
(281,298,o),
(297,298,cs),
(313,298,o),
(325,286,o),
(325,270,cs),
(325,263,o),
(322,256,o),
(318,251,cs),
(312,245,o),
(312,238,o),
(316,232,cs),
(484,0,l),
(588,0,l),
(348,332,l),
(572,650,l),
(468,650,l),
(318,432,ls),
(314,426,o),
(314,419,o),
(320,413,cs),
(324,408,o),
(327,401,o),
(327,394,cs),
(327,378,o),
(315,366,o),
(299,366,cs),
(283,366,o),
(271,378,o),
(271,394,cs),
(271,401,o),
(274,408,o),
(278,413,cs),
(282,418,o),
(283,424,o),
(280,429,cs),
(120,650,l),
(14,650,l),
(244,332,l),
(8,0,l)
);
},
{
angle = -34.53629;
pos = (-127,-100);
ref = inkstem_M;
},
{
angle = 36.00012;
pos = (566,-212);
ref = inkstem_M;
},
{
angle = 35.95703;
pos = (239,243);
ref = inkstem_L;
},
{
angle = -35.19146;
pos = (191,356);
ref = inkstem_L;
}
);
width = 596;
}
);
metricRight = "=|";
unicode = 88;
}
{
color = 10;
glyphname = Y;
kernLeft = Y;
kernRight = Y;
layers = (
{
anchors = (
{
name = top;
pos = (288,650);
}
);
layerId = "8007C042-6FBA-4E49-99B8-8B738A4EBE86";
shapes = (
{
closed = 1;
nodes = (
(331,0,l),
(331,196,l),
(558,650,l),
(462,650,l),
(289,296,l),
(100,650,l),
(2,650,l),
(247,196,l),
(247,0,l)
);
}
);
width = 560;
},
{
anchors = (
{
name = top;
pos = (312,650);
}
);
layerId = "ADDE491E-C0C4-4659-943C-53377B387F47";
shapes = (
{
closed = 1;
nodes = (
(382,0,l),
(382,192,l),
(600,650,l),
(426,650,l),
(310,336,l),
(178,650,l),
(0,650,l),
(234,192,l),
(234,0,l)
);
}
);
width = 600;
},
{
anchors = (
{
name = top;
pos = (334,650);
}
);
layerId = "0CF550E6-48ED-4BA5-8C66-195B58FED074";
shapes = (
{
closed = 1;
nodes = (
(436,0,l),
(436,200,l),
(646,650,l),
(402,650,l),
(332,388,l),
(246,650,l),
(-2,650,l),
(224,200,l),
(224,0,l)
);
}
);
width = 644;
},
{
anchors = (
{
name = top;
pos = (288,650);
}
);
layerId = m004;
shapes = (
{
closed = 1;
nodes = (
(331,0,l),
(331,196,l),
(558,650,l),
(462,650,l),
(306,331,ls),
(304,326,o),
(305,320,o),
(310,315,cs),
(314,310,o),
(317,303,o),
(317,296,cs),
(317,280,o),
(305,268,o),
(289,268,cs),
(273,268,o),
(261,280,o),
(261,296,cs),
(261,303,o),
(264,310,o),
(268,315,cs),
(272,320,o),
(273,326,o),
(270,331,cs),
(100,650,l),
(2,650,l),
(247,196,l),
(247,0,l)
);
},
{
pos = (189,-196);
ref = inkstem_M;
},
{
angle = 28.4441;
pos = (230,106);
ref = inkstem_M;
},
{
pos = (-19,344);
ref = inkstem_S;
},
{
angle = 153.00012;
pos = (348,105);
ref = inkstem_M;
scale = (1,-1);
},
{
pos = (382,344);
ref = inkstem_S;
}
);
width = 560;
}
);
metricRight = "=|";
unicode = 89;
}
{
color = 10;
glyphname = Z;
kernLeft = Z;
kernRight = Z;
layers = (
{
anchors = (
{
name = top;
pos = (296,650);
}
);
layerId = "8007C042-6FBA-4E49-99B8-8B738A4EBE86";
shapes = (
{
closed = 1;
nodes = (
(548,0,l),
(548,82,l),
(148,82,l),
(544,568,l),
(544,650,l),
(48,650,l),
(48,570,l),
(440,570,l),
(40,84,l),
(40,0,l)
);
}
);
width = 588;
},
{
anchors = (
{
name = top;
pos = (284,650);
}
);
layerId = "ADDE491E-C0C4-4659-943C-53377B387F47";
shapes = (
{
closed = 1;
nodes = (
(536,0,l),
(536,142,l),
(192,142,l),
(530,514,l),
(530,650,l),
(40,650,l),
(40,510,l),
(374,510,l),
(32,138,l),
(32,0,l)
);
}
);
width = 568;
},
{
anchors = (
{
name = top;
pos = (286,650);
}
);
layerId = "0CF550E6-48ED-4BA5-8C66-195B58FED074";
shapes = (
{
closed = 1;
nodes = (
(532,0,l),
(532,180,l),
(236,180,l),
(524,476,l),
(524,650,l),
(32,650,l),
(32,472,l),
(316,472,l),
(24,176,l),
(24,0,l)
);
}
);
width = 556;
},
{
anchors = (
{
name = top;
pos = (296,650);
}
);
layerId = m004;
shapes = (
{
closed = 1;
nodes = (
(548,0,l),
(548,82,l),
(190,82,ls),
(182,82,o),
(176,78,o),
(174,71,cs),
(170,61,o),
(160,54,o),
(148,54,cs),
(132,54,o),
(120,66,o),
(120,82,cs),
(120,98,o),
(132,110,o),
(148,110,cs),
(157,110,o),
(164,102,o),
(174,114,cs),
(544,568,l),
(544,650,l),
(48,650,l),
(48,570,l),
(400,570,ls),
(408,570,o),
(412,574,o),
(414,581,cs),
(418,591,o),
(428,598,o),
(440,598,cs),
(456,598,o),
(468,586,o),
(468,570,cs),
(468,554,o),
(456,542,o),
(440,542,cs),
(429,542,o),
(423,550,o),
(412,536,cs),
(40,84,l),
(40,0,l)
);
},
{
angle = -90;
pos = (40,142);
ref = inkstem_M;
},
{
angle = -38.99984;
pos = (-23,95);
ref = inkstem_M;
},
{
pos = (392,-208);
ref = inkstem_S;
},
{
pos = (4,360);
ref = inkstem_S;
},
{
pos = (265,165);
ref = inkstem_S;
},
{
angle = -90;
pos = (-48,710);
ref = inkstem_L;
}
);
width = 588;
}
);
metricRight = "=|";
unicode = 90;
}
{
glyphname = bracketleft;
layers = (
{
layerId = "8007C042-6FBA-4E49-99B8-8B738A4EBE86";
shapes = (
{
closed = 1;
nodes = (
(148,-200,l),
(148,680,l),
(64,680,l),
(64,-200,l)
);
},
{
closed = 1;
nodes = (
(302,-200,l),
(302,-118,l),
(128,-118,l),
(128,-200,l)
);
},
{
closed = 1;
nodes = (
(300,600,l),
(300,680,l),
(128,680,l),
(128,600,l)
);
}
);
width = 304;
},
{
layerId = "ADDE491E-C0C4-4659-943C-53377B387F47";
shapes = (
{
closed = 1;
nodes = (
(194,-200,l),
(194,680,l),
(50,680,l),
(50,-200,l)
);
},
{
closed = 1;
nodes = (
(330,-200,l),
(330,-82,l),
(174,-82,l),
(174,-200,l)
);
},
{
closed = 1;
nodes = (
(328,564,l),
(328,680,l),
(174,680,l),
(174,564,l)
);
}
);
width = 332;
},
{
layerId = "0CF550E6-48ED-4BA5-8C66-195B58FED074";
shapes = (
{
closed = 1;
nodes = (
(246,-200,l),
(246,680,l),
(42,680,l),
(42,-200,l)
);
},
{
closed = 1;
nodes = (
(360,-200,l),
(360,-46,l),
(226,-46,l),
(226,-200,l)
);
},
{
closed = 1;
nodes = (
(358,528,l),
(358,680,l),
(226,680,l),
(226,528,l)
);
}
);
width = 362;
},
{
layerId = m004;
shapes = (
{
closed = 1;
nodes = (
(302,-200,l),
(302,-118,l),
(200,-118,ls),
(188,-118,o),
(178,-124,o),
(172,-133,cs),
(167,-141,o),
(158,-146,o),
(148,-146,cs),
(132,-146,o),
(120,-134,o),
(120,-118,cs),
(120,-108,o),
(125,-99,o),
(133,-94,cs),
(142,-88,o),
(148,-78,o),
(148,-66,cs),
(148,548,ls),
(148,560,o),
(142,570,o),
(133,576,cs),
(125,581,o),
(120,590,o),
(120,600,cs),
(120,616,o),
(132,628,o),
(148,628,cs),
(158,628,o),
(167,623,o),
(172,615,cs),
(178,606,o),
(188,600,o),
(200,600,cs),
(300,600,l),
(300,680,l),
(64,680,l),
(64,-200,l)
);
},
{
pos = (6,-194);
ref = inkstem_M;
},
{
pos = (6,76);
ref = inkstem_L;
},
{
pos = (144,390);
ref = inkstem_S;
}
);
width = 304;
}
);
metricLeft = l;
metricRight = T;
unicode = 91;
}
{
glyphname = backslash;
layers = (
{
background = {
hints = (
{
horizontal = 1;
place = (0,21);
target = up;
type = BottomGhost;
},
{
horizontal = 1;
place = (722,-20);
target = down;
type = TopGhost;
},
{
place = (-10,472);
type = Stem;
}
);
shapes = (
{
closed = 0;
nodes = (
(189.254,171.011,l),
(189.254,171.251,o),
(189.254,171.491,o),
(189.254,171.731,cs)
);
}
);
};
layerId = "8007C042-6FBA-4E49-99B8-8B738A4EBE86";
shapes = (
{
closed = 1;
nodes = (
(252,-192,l),
(84,684,l),
(4,672,l),
(170,-204,l)
);
}
);
width = 244;
},
{
layerId = "ADDE491E-C0C4-4659-943C-53377B387F47";
shapes = (
{
closed = 1;
nodes = (
(320,-180,l),
(140,692,l),
(0,664,l),
(180,-212,l)
);
}
);
width = 308;
},
{
layerId = "0CF550E6-48ED-4BA5-8C66-195B58FED074";
shapes = (
{
closed = 1;
nodes = (
(396,-164,l),
(198,696,l),
(-4,648,l),
(192,-216,l)
);
}
);
width = 380;
},
{
background = {
hints = (
{
horizontal = 1;
place = (0,21);
target = up;
type = BottomGhost;
},
{
horizontal = 1;
place = (722,-20);
target = down;
type = TopGhost;
},
{
place = (-10,472);
type = Stem;
}
);
shapes = (
{
closed = 0;
nodes = (
(189.254,171.011,l),
(189.254,171.251,o),
(189.254,171.491,o),
(189.254,171.731,cs)
);
}
);
};
layerId = m004;
shapes = (
{
closed = 1;
nodes = (
(252,-192,l),
(84,684,l),
(4,672,l),
(170,-204,l)
);
},
{
angle = 9.38744;
pos = (52,141);
ref = inkstem_M;
scale = (1,-1);
},
{
angle = 10.98261;
pos = (-5,398);
ref = inkstem_L;
scale = (1,-1);
},
{
angle = 11.41533;
pos = (-60,671);
ref = inkstem_M;
scale = (1,-1);
},
{
pos = (154,373);
ref = inkstem_S;
scale = (-1,1);
}
);
width = 244;
}
);
metricLeft = "=|slash";
metricRight = "=|slash";
unicode = 92;
}
{
glyphname = asciicircum;
kernLeft = asciicircum;
kernRight = asciicircum;
layers = (
{
layerId = "8007C042-6FBA-4E49-99B8-8B738A4EBE86";
shapes = (
{
closed = 1;
nodes = (
(104,340,l),
(182,574,l),
(260,340,l),
(344,340,l),
(225,650,l),
(141,650,l),
(20,340,l)
);
}
);
width = 364;
},
{
layerId = "ADDE491E-C0C4-4659-943C-53377B387F47";
shapes = (
{
closed = 1;
nodes = (
(152,320,l),
(200,524,l),
(248,320,l),
(388,346,l),
(264,650,l),
(136,650,l),
(12,346,l)
);
}
);
width = 400;
},
{
layerId = "0CF550E6-48ED-4BA5-8C66-195B58FED074";
shapes = (
{
closed = 1;
nodes = (
(164,302,l),
(212,474,l),
(260,302,l),
(420,354,l),
(296,650,l),
(128,650,l),
(4,354,l)
);
}
);
width = 424;
},
{
layerId = m004;
shapes = (
{
closed = 1;
nodes = (
(104,340,l),
(164,520,ls),
(168,532,o),
(165,546,o),
(158,559,cs),
(156,563,o),
(154,568,o),
(154,574,cs),
(154,590,o),
(166,602,o),
(182,602,cs),
(198,602,o),
(210,590,o),
(210,574,cs),
(210,568,o),
(208,563,o),
(206,559,cs),
(199,546,o),
(196,532,o),
(200,520,cs),
(260,340,l),
(344,340,l),
(225,650,l),
(141,650,l),
(20,340,l)
);
},
{
pos = (-17,646);
ref = inkstem_S;
scale = (1,-1);
},
{
pos = (181,646);
ref = inkstem_S;
scale = (1,-1);
}
);
width = 364;
}
);
metricRight = "=|asciicircum";
unicode = 94;
}
{
glyphname = underscore;
kernLeft = underscore;
kernRight = underscore;
layers = (
{
layerId = "8007C042-6FBA-4E49-99B8-8B738A4EBE86";
shapes = (
{
closed = 1;
nodes = (
(480,-112,l),
(480,-28,l),
(0,-28,l),
(0,-112,l)
);
}
);
width = 480;
},
{
layerId = "ADDE491E-C0C4-4659-943C-53377B387F47";
shapes = (
{
closed = 1;
nodes = (
(500,-164,l),
(500,-28,l),
(0,-28,l),
(0,-164,l)
);
}
);
width = 500;
},
{
layerId = "0CF550E6-48ED-4BA5-8C66-195B58FED074";
shapes = (
{
closed = 1;
nodes = (
(520,-200,l),
(520,-28,l),
(0,-28,l),
(0,-200,l)
);
}
);
width = 520;
},
{
layerId = m004;
shapes = (
{
closed = 1;
nodes = (
(480,-112,l),
(480,-28,l),
(0,-28,l),
(0,-112,l)
);
},
{
angle = -90;
pos = (-194,30);
ref = inkstem_S;
},
{
angle = -90;
pos = (174,30);
ref = inkstem_S;
}
);
width = 480;
}
);
unicode = 95;
}
{
color = 10;
glyphname = a;
kernLeft = a;
kernRight = n;
layers = (
{
anchors = (
{
name = ogonek;
pos = (428,0);
},
{
name = top;
pos = (246,500);
}
);
layerId = "8007C042-6FBA-4E49-99B8-8B738A4EBE86";
shapes = (
{
closed = 1;
nodes = (
(302,-12,o),
(380,60,o),
(384,160,c),
(356,204,l),
(356,124,o),
(296,66,o),
(212,66,cs),
(156,66,o),
(120,94,o),
(120,136,cs),
(120,172,o),
(148,200,o),
(192,208,cs),
(324,232,ls),
(347,236,o),
(369,242,o),
(376,244,c),
(356,258,l),
(356,100,l),
(374,0,l),
(438,0,l),
(436,100,l),
(436,328,ls),
(436,435,o),
(358,512,o),
(248,512,cs),
(141,512,o),
(58,438,o),
(48,334,c),
(136,324,l),
(140,394,o),
(188,440,o),
(252,440,cs),
(313,440,o),
(356,395,o),
(356,332,cs),
(356,316,o),
(343,303,o),
(326,300,cs),
(172,272,ls),
(87,257,o),
(32,201,o),
(32,132,cs),
(32,45,o),
(97,-12,o),
(196,-12,cs)
);
}
);
width = 488;
},
{
anchors = (
{
name = ogonek;
pos = (440,0);
},
{
name = top;
pos = (254,500);
}
);
layerId = "ADDE491E-C0C4-4659-943C-53377B387F47";
shapes = (
{
closed = 1;
nodes = (
(290,-12,o),
(366,57,o),
(370,152,c),
(328,228,l),
(328,160,o),
(282,118,o),
(230,118,cs),
(194,118,o),
(174,137,o),
(174,164,cs),
(174,188,o),
(190,206,o),
(218,212,cs),
(294,228,ls),
(313,232,o),
(342,240,o),
(348,244,c),
(328,256,l),
(328,84,l),
(360,0,l),
(470,0,l),
(468,100,l),
(468,324,ls),
(468,433,o),
(377,512,o),
(252,512,cs),
(155,512,o),
(69,452,o),
(46,368,c),
(182,320,l),
(186,357,o),
(218,384,o),
(258,384,cs),
(299,384,o),
(328,359,o),
(328,324,cs),
(328,316,o),
(322,308,o),
(310,306,cs),
(146,272,ls),
(76,257,o),
(26,200,o),
(26,136,cs),
(26,50,o),
(95,-12,o),
(190,-12,cs)
);
}
);
width = 512;
},
{
anchors = (
{
name = ogonek;
pos = (448,0);
},
{
name = top;
pos = (286,500);
}
);
layerId = "0CF550E6-48ED-4BA5-8C66-195B58FED074";
shapes = (
{
closed = 1;
nodes = (
(286,-12,o),
(358,52,o),
(362,140,c),
(316,208,l),
(316,169,o),
(297,144,o),
(268,144,cs),
(246,144,o),
(232,157,o),
(232,178,cs),
(232,197,o),
(245,212,o),
(266,216,cs),
(286,220,ls),
(307,224,o),
(328,230,o),
(336,234,c),
(316,250,l),
(316,84,l),
(348,0,l),
(518,0,l),
(516,100,l),
(516,308,ls),
(516,428,o),
(420,512,o),
(276,512,cs),
(164,512,o),
(79,462,o),
(44,384,c),
(236,316,l),
(240,343,o),
(258,360,o),
(282,360,cs),
(303,360,o),
(316,347,o),
(316,322,cs),
(316,312,o),
(310,304,o),
(300,302,cs),
(148,268,ls),
(68,250,o),
(20,196,o),
(20,128,cs),
(20,46,o),
(90,-12,o),
(186,-12,cs)
);
}
);
width = 552;
},
{
anchors = (
{
name = ogonek;
pos = (480,0);
},
{
name = top;
pos = (278,500);
}
);
associatedMasterId = "0CF550E6-48ED-4BA5-8C66-195B58FED074";
layerId = "8EBCAF42-2BD2-4339-A83A-BF5DA41C1A10";
name = "22 feb 22, 17:12";
shapes = (
{
closed = 1;
nodes = (
(510,0,l),
(508,100,l),
(508,308,ls),
(508,428,o),
(412,512,o),
(268,512,cs),
(156,512,o),
(71,462,o),
(36,384,c),
(228,310,l),
(232,338,o),
(251,356,o),
(276,356,cs),
(295,356,o),
(308,345,o),
(308,330,cs),
(308,84,l),
(340,0,l)
);
},
{
closed = 1;
nodes = (
(282,-12,o),
(350,47,o),
(354,140,c),
(308,208,l),
(308,169,o),
(289,144,o),
(260,144,cs),
(238,144,o),
(224,157,o),
(224,176,cs),
(224,194,o),
(237,208,o),
(258,212,cs),
(278,216,ls),
(299,220,o),
(308,222,o),
(308,224,c),
(308,326,l),
(308,316,o),
(302,308,o),
(292,306,cs),
(144,276,ls),
(64,260,o),
(12,204,o),
(12,132,cs),
(12,44,o),
(78,-12,o),
(180,-12,cs)
);
}
);
width = 544;
},
{
anchors = (
{
name = ogonek;
pos = (480,0);
},
{
name = top;
pos = (278,512);
}
);
associatedMasterId = "0CF550E6-48ED-4BA5-8C66-195B58FED074";
layerId = "BC953837-5B95-4851-B0A2-F8D90CDF58F5";
name = "31 gen 22, 15:13";
shapes = (
{
closed = 1;
nodes = (
(510,0,l),
(508,100,l),
(508,308,ls),
(508,428,o),
(412,512,o),
(268,512,cs),
(156,512,o),
(63,462,o),
(28,384,c),
(224,312,l),
(224,344,o),
(242,364,o),
(270,364,cs),
(293,364,o),
(308,350,o),
(308,328,cs),
(308,84,l),
(340,0,l)
);
},
{
closed = 1;
nodes = (
(282,-12,o),
(350,47,o),
(354,140,c),
(308,208,l),
(308,169,o),
(288,144,o),
(256,144,cs),
(234,144,o),
(220,157,o),
(220,176,cs),
(220,194,o),
(233,208,o),
(254,212,cs),
(274,216,ls),
(295,220,o),
(308,223,o),
(308,224,c),
(308,328,l),
(308,319,o),
(301,312,o),
(290,310,cs),
(144,280,ls),
(64,264,o),
(12,208,o),
(12,136,cs),
(12,46,o),
(78,-12,o),
(180,-12,cs)
);
}
);
width = 540;
},
{
anchors = (
{
name = ogonek;
pos = (428,0);
},
{
name = top;
pos = (246,500);
}
);
layerId = m004;
shapes = (
{
closed = 1;
nodes = (
(253,-12,o),
(302,8,o),
(334,42,cs),
(339,47,o),
(340,55,o),
(336,61,cs),
(333,65,o),
(332,70,o),
(332,76,cs),
(332,92,o),
(344,104,o),
(360,104,cs),
(376,104,o),
(388,92,o),
(388,76,cs),
(388,65,o),
(383,55,o),
(372,50,cs),
(368,48,o),
(366,43,o),
(367,37,cs),
(374,0,l),
(438,0,l),
(436,100,l),
(436,328,ls),
(436,435,o),
(358,512,o),
(248,512,cs),
(141,512,o),
(58,438,o),
(48,334,c),
(136,324,l),
(140,394,o),
(188,440,o),
(252,440,cs),
(313,440,o),
(356,395,o),
(356,332,cs),
(356,316,o),
(343,303,o),
(326,300,cs),
(172,272,ls),
(87,257,o),
(32,201,o),
(32,132,cs),
(32,45,o),
(97,-12,o),
(196,-12,cs)
);
},
{
closed = 1;
nodes = (
(156,66,o),
(120,94,o),
(120,136,cs),
(120,172,o),
(148,200,o),
(192,208,cs),
(319,231,ls),
(324,232,o),
(328,236,o),
(328,241,cs),
(329,256,o),
(341,267,o),
(356,267,cs),
(372,267,o),
(384,255,o),
(384,239,cs),
(384,225,o),
(375,215,o),
(363,212,cs),
(358,211,o),
(356,208,o),
(356,204,cs),
(356,124,o),
(296,66,o),
(212,66,cs)
);
},
{
closed = 0;
nodes = (
(356,211,l)
);
},
{
pos = (-21,-120);
ref = inkstem_S;
},
{
angle = 90;
pos = (492,-72);
ref = inkcurve_L;
},
{
pos = (7,134);
ref = inkstem_S;
},
{
angle = -90;
pos = (-28,576);
ref = inkcurve_L;
},
{
pos = (285,134);
ref = inkstem_S;
},
{
angle = -79.99992;
pos = (-68,298);
ref = inkstem_M;
}
);
width = 488;
}
);
metricRight = "=n-2";
unicode = 97;
}
{
glyphname = b;
kernLeft = l;
kernRight = o;
layers = (
{
layerId = "8007C042-6FBA-4E49-99B8-8B738A4EBE86";
shapes = (
{
closed = 1;
nodes = (
(460,-12,o),
(558,98,o),
(558,252,cs),
(558,404,o),
(461,512,o),
(326,512,cs),
(190,512,o),
(92,404,o),
(92,252,cs),
(92,98,o),
(189,-12,o),
(324,-12,cs)
);
},
{
closed = 1;
nodes = (
(132,0,l),
(144,100,l),
(118,250,l),
(144,370,l),
(144,680,l),
(64,680,l),
(64,0,l)
);
},
{
closed = 1;
nodes = (
(211,68,o),
(142,144,o),
(142,250,cs),
(142,357,o),
(211,434,o),
(308,434,cs),
(405,434,o),
(474,357,o),
(474,250,cs),
(474,144,o),
(405,68,o),
(308,68,cs)
);
}
);
width = 590;
},
{
layerId = "ADDE491E-C0C4-4659-943C-53377B387F47";
shapes = (
{
closed = 1;
nodes = (
(464,-12,o),
(552,98,o),
(552,252,cs),
(552,404,o),
(464,512,o),
(340,512,cs),
(218,512,o),
(130,404,o),
(130,252,cs),
(130,98,o),
(218,-12,o),
(342,-12,cs)
);
},
{
closed = 1;
nodes = (
(158,0,l),
(190,84,l),
(170,251,l),
(190,403,l),
(190,680,l),
(50,680,l),
(50,0,l)
);
},
{
closed = 1;
nodes = (
(236,124,o),
(190,177,o),
(190,251,cs),
(190,325,o),
(236,378,o),
(300,378,cs),
(364,378,o),
(410,325,o),
(410,251,cs),
(410,177,o),
(364,124,o),
(300,124,cs)
);
}
);
width = 578;
},
{
layerId = "0CF550E6-48ED-4BA5-8C66-195B58FED074";
shapes = (
{
closed = 1;
nodes = (
(483,-12,o),
(570,97,o),
(570,252,cs),
(570,404,o),
(483,512,o),
(360,512,cs),
(237,512,o),
(150,403,o),
(150,248,cs),
(150,96,o),
(237,-12,o),
(360,-12,cs)
);
},
{
closed = 1;
nodes = (
(190,0,l),
(242,68,l),
(222,251,l),
(242,403,l),
(242,680,l),
(42,680,l),
(42,0,l)
);
},
{
closed = 1;
nodes = (
(261,166,o),
(232,199,o),
(232,251,cs),
(232,303,o),
(261,336,o),
(306,336,cs),
(351,336,o),
(380,303,o),
(380,251,cs),
(380,199,o),
(351,166,o),
(306,166,cs)
);
}
);
width = 590;
},
{
layerId = m004;
shapes = (
{
closed = 1;
nodes = (
(460,-12,o),
(558,98,o),
(558,252,cs),
(558,404,o),
(461,512,o),
(326,512,cs),
(266,512,o),
(211,490,o),
(173,454,cs),
(163,445,o),
(172,434,o),
(172,422,cs),
(172,406,o),
(160,394,o),
(144,394,cs),
(128,394,o),
(116,406,o),
(116,422,cs),
(116,433,o),
(122,442,o),
(131,447,cs),
(139,451,o),
(144,458,o),
(144,466,cs),
(144,680,l),
(64,680,l),
(64,0,l),
(132,0,l),
(136,38,ls),
(137,50,o),
(134,53,o),
(127,58,cs),
(119,63,o),
(114,72,o),
(114,82,cs),
(114,98,o),
(126,110,o),
(142,110,cs),
(158,110,o),
(170,98,o),
(170,82,cs),
(170,78,o),
(169,74,o),
(168,71,cs),
(165,62,o),
(166,53,o),
(172,47,cs),
(212,9,o),
(264,-12,o),
(324,-12,cs)
);
},
{
closed = 1;
nodes = (
(211,68,o),
(142,144,o),
(142,250,cs),
(142,357,o),
(211,434,o),
(308,434,cs),
(405,434,o),
(474,357,o),
(474,250,cs),
(474,144,o),
(405,68,o),
(308,68,cs)
);
},
{
angle = 90;
pos = (39,-72);
ref = inkcurve_L;
scale = (1,-1);
},
{
pos = (362,-156);
ref = inkstem_S;
},
{
pos = (616,-28);
ref = inkcurve_L;
scale = (-1,1);
},
{
angle = -90;
pos = (27,573);
ref = inkcurve_L;
},
{
pos = (356,164);
ref = inkstem_S;
},
{
pos = (3,-28);
ref = inkstem_M;
},
{
pos = (4,256);
ref = inkstem_L;
}
);
width = 590;
}
);
metricLeft = l;
metricRight = o;
unicode = 98;
}
{
color = 10;
glyphname = c;
kernLeft = o;
kernRight = c;
layers = (
{
anchors = (
{
name = bottom;
pos = (268,0);
},
{
name = top;
pos = (272,500);
}
);
layerId = "8007C042-6FBA-4E49-99B8-8B738A4EBE86";
shapes = (
{
closed = 1;
nodes = (
(393,-12,o),
(488,65,o),
(504,172,c),
(416,200,l),
(408,120,o),
(352,68,o),
(276,68,cs),
(184,68,o),
(118,144,o),
(118,252,cs),
(118,358,o),
(182,434,o),
(272,434,cs),
(346,434,o),
(404,381,o),
(412,308,c),
(496,336,l),
(480,439,o),
(387,512,o),
(272,512,cs),
(132,512,o),
(32,403,o),
(32,250,cs),
(32,97,o),
(134,-12,o),
(276,-12,cs)
);
}
);
width = 532;
},
{
anchors = (
{
name = bottom;
pos = (268,0);
},
{
name = top;
pos = (274,500);
}
);
layerId = "ADDE491E-C0C4-4659-943C-53377B387F47";
shapes = (
{
closed = 1;
nodes = (
(394,-12,o),
(488,56,o),
(508,172,c),
(372,214,l),
(366,158,o),
(325,122,o),
(276,122,cs),
(216,122,o),
(172,175,o),
(172,250,cs),
(172,325,o),
(214,380,o),
(274,380,cs),
(320,380,o),
(356,348,o),
(368,294,c),
(500,332,l),
(488,437,o),
(395,512,o),
(276,512,cs),
(130,512,o),
(26,403,o),
(26,248,cs),
(26,96,o),
(130,-12,o),
(276,-12,cs)
);
}
);
width = 532;
},
{
anchors = (
{
name = bottom;
pos = (272,0);
},
{
name = top;
pos = (276,500);
}
);
layerId = "0CF550E6-48ED-4BA5-8C66-195B58FED074";
shapes = (
{
closed = 1;
nodes = (
(398,-12,o),
(498,64,o),
(518,172,c),
(344,236,l),
(340,197,o),
(315,172,o),
(280,172,cs),
(240,172,o),
(214,203,o),
(214,252,cs),
(214,299,o),
(240,330,o),
(280,330,cs),
(313,330,o),
(336,309,o),
(338,276,c),
(510,324,l),
(494,436,o),
(400,512,o),
(280,512,cs),
(128,512,o),
(20,403,o),
(20,250,cs),
(20,98,o),
(126,-12,o),
(274,-12,cs)
);
}
);
width = 534;
},
{
anchors = (
{
name = top;
pos = (274,500);
}
);
associatedMasterId = "0CF550E6-48ED-4BA5-8C66-195B58FED074";
layerId = "4337AB0E-E05F-40B1-97FE-E96E0986FA42";
name = "22 feb 22, 17:19";
shapes = (
{
closed = 1;
nodes = (
(400,-12,o),
(502,60,o),
(518,172,c),
(342,236,l),
(338,197,o),
(313,172,o),
(278,172,cs),
(238,172,o),
(212,203,o),
(212,252,cs),
(212,299,o),
(238,330,o),
(278,330,cs),
(311,330,o),
(334,309,o),
(336,276,c),
(510,324,l),
(494,436,o),
(398,512,o),
(278,512,cs),
(126,512,o),
(18,403,o),
(18,250,cs),
(18,97,o),
(125,-12,o),
(276,-12,cs)
);
}
);
width = 534;
},
{
associatedMasterId = "0CF550E6-48ED-4BA5-8C66-195B58FED074";
layerId = "03B77A18-2BCA-41FF-BCB1-5E7D9FD91DE6";
name = "31 gen 22, 15:09";
shapes = (
{
closed = 1;
nodes = (
(402,-12,o),
(504,54,o),
(528,148,c),
(352,212,l),
(348,177,o),
(323,154,o),
(288,154,cs),
(242,154,o),
(212,192,o),
(212,252,cs),
(212,310,o),
(239,348,o),
(282,348,cs),
(314,348,o),
(336,326,o),
(340,292,c),
(524,328,l),
(504,436,o),
(412,512,o),
(284,512,cs),
(129,512,o),
(20,402,o),
(20,250,cs),
(20,98,o),
(128,-12,o),
(284,-12,cs)
);
}
);
width = 544;
},
{
anchors = (
{
name = bottom;
pos = (268,0);
},
{
name = top;
pos = (272,500);
}
);
layerId = m004;
shapes = (
{
closed = 1;
nodes = (
(393,-12,o),
(488,65,o),
(504,172,c),
(416,200,l),
(408,120,o),
(352,68,o),
(276,68,cs),
(184,68,o),
(118,144,o),
(118,252,cs),
(118,358,o),
(182,434,o),
(272,434,cs),
(346,434,o),
(404,381,o),
(412,308,c),
(496,336,l),
(480,439,o),
(387,512,o),
(272,512,cs),
(132,512,o),
(32,403,o),
(32,250,cs),
(32,97,o),
(134,-12,o),
(276,-12,cs)
);
},
{
pos = (-27,-28);
ref = inkcurve_L;
},
{
angle = -90;
pos = (-4,573);
ref = inkcurve_L;
},
{
angle = 90;
pos = (0,-72);
ref = inkcurve_L;
scale = (1,-1);
},
{
pos = (32,-160);
ref = inkstem_S;
},
{
pos = (342,-119);
ref = inkstem_S;
},
{
pos = (32,158);
ref = inkstem_S;
},
{
pos = (334,128);
ref = inkstem_S;
}
);
width = 532;
}
);
metricLeft = o;
unicode = 99;
}
{
glyphname = d;
kernLeft = o;
kernRight = l;
layers = (
{
anchors = (
{
name = topright;
pos = (568,500);
}
);
layerId = "8007C042-6FBA-4E49-99B8-8B738A4EBE86";
shapes = (
{
closed = 1;
nodes = (
(401,-12,o),
(498,97,o),
(498,249,cs),
(498,402,o),
(400,512,o),
(264,512,cs),
(129,512,o),
(32,404,o),
(32,252,cs),
(32,98,o),
(130,-12,o),
(266,-12,cs)
);
},
{
closed = 1;
nodes = (
(186,68,o),
(116,144,o),
(116,250,cs),
(116,357,o),
(186,434,o),
(283,434,cs),
(380,434,o),
(450,357,o),
(450,250,cs),
(450,144,o),
(380,68,o),
(283,68,cs)
);
},
{
closed = 1;
nodes = (
(530,0,l),
(528,100,l),
(528,680,l),
(448,680,l),
(448,380,l),
(471,246,l),
(450,100,l),
(462,0,l)
);
}
);
width = 592;
},
{
anchors = (
{
name = topright;
pos = (570,500);
}
);
layerId = "ADDE491E-C0C4-4659-943C-53377B387F47";
shapes = (
{
closed = 1;
nodes = (
(369,-12,o),
(456,97,o),
(456,251,cs),
(456,404,o),
(369,512,o),
(246,512,cs),
(117,512,o),
(26,403,o),
(26,248,cs),
(26,96,o),
(117,-12,o),
(246,-12,cs)
);
},
{
closed = 1;
nodes = (
(216,124,o),
(170,177,o),
(170,251,cs),
(170,325,o),
(216,378,o),
(280,378,cs),
(344,378,o),
(390,325,o),
(390,251,cs),
(390,177,o),
(344,124,o),
(280,124,cs)
);
},
{
closed = 1;
nodes = (
(532,0,l),
(530,100,l),
(530,680,l),
(390,680,l),
(390,403,l),
(410,251,l),
(390,84,l),
(422,0,l)
);
}
);
width = 580;
},
{
anchors = (
{
name = topright;
pos = (590,500);
}
);
layerId = "0CF550E6-48ED-4BA5-8C66-195B58FED074";
shapes = (
{
closed = 1;
nodes = (
(356,-12,o),
(444,98,o),
(444,252,cs),
(444,404,o),
(356,512,o),
(232,512,cs),
(108,512,o),
(20,402,o),
(20,248,cs),
(20,96,o),
(108,-12,o),
(232,-12,cs)
);
},
{
closed = 1;
nodes = (
(241,166,o),
(210,201,o),
(210,251,cs),
(210,301,o),
(241,336,o),
(285,336,cs),
(329,336,o),
(360,301,o),
(360,251,cs),
(360,201,o),
(329,166,o),
(285,166,cs)
);
},
{
closed = 1;
nodes = (
(552,0,l),
(550,100,l),
(550,680,l),
(350,680,l),
(350,403,l),
(370,251,l),
(350,68,l),
(402,0,l)
);
}
);
width = 592;
},
{
anchors = (
{
name = topright;
pos = (568,500);
}
);
layerId = m004;
shapes = (
{
closed = 1;
nodes = (
(328,-12,o),
(381,11,o),
(422,51,cs),
(434,63,o),
(424,74,o),
(424,86,cs),
(424,102,o),
(436,114,o),
(452,114,cs),
(468,114,o),
(480,102,o),
(480,86,cs),
(480,76,o),
(475,67,o),
(467,62,cs),
(460,57,o),
(456,52,o),
(457,42,cs),
(462,0,l),
(530,0,l),
(528,100,l),
(528,680,l),
(448,680,l),
(448,462,ls),
(448,454,o),
(453,447,o),
(461,443,cs),
(470,438,o),
(476,429,o),
(476,418,cs),
(476,402,o),
(464,390,o),
(448,390,cs),
(432,390,o),
(420,402,o),
(420,418,cs),
(420,434,o),
(430,441,o),
(418,452,cs),
(380,488,o),
(326,512,o),
(264,512,cs),
(129,512,o),
(32,404,o),
(32,252,cs),
(32,98,o),
(130,-12,o),
(266,-12,cs)
);
},
{
closed = 1;
nodes = (
(186,68,o),
(116,144,o),
(116,250,cs),
(116,357,o),
(186,434,o),
(283,434,cs),
(380,434,o),
(450,357,o),
(450,250,cs),
(450,144,o),
(380,68,o),
(283,68,cs)
);
},
{
pos = (32,-160);
ref = inkstem_S;
},
{
angle = 90;
pos = (4,-72);
ref = inkcurve_L;
scale = (1,-1);
},
{
pos = (-27,-28);
ref = inkcurve_L;
},
{
pos = (32,158);
ref = inkstem_S;
},
{
angle = -90;
pos = (-4,574);
ref = inkcurve_L;
},
{
pos = (388,256);
ref = inkstem_L;
},
{
pos = (388,-28);
ref = inkstem_M;
}
);
width = 592;
}
);
metricLeft = o;
metricRight = "=l-2";
unicode = 100;
}
{
glyphname = e;
kernLeft = o;
kernRight = o;
layers = (
{
anchors = (
{
name = ogonek;
pos = (404,0);
},
{
name = top;
pos = (272,500);
}
);
layerId = "8007C042-6FBA-4E49-99B8-8B738A4EBE86";
shapes = (
{
closed = 1;
nodes = (
(388,-12,o),
(478,48,o),
(502,136,c),
(416,164,l),
(404,108,o),
(350,68,o),
(282,68,cs),
(186,68,o),
(118,147,o),
(118,254,cs),
(118,358,o),
(182,434,o),
(274,434,cs),
(350,434,o),
(410,379,o),
(422,295,c),
(98,295,l),
(98,217,l),
(507,217,l),
(519,385,o),
(425,512,o),
(272,512,cs),
(132,512,o),
(32,403,o),
(32,250,cs),
(32,97,o),
(135,-12,o),
(280,-12,cs)
);
}
);
width = 540;
},
{
anchors = (
{
name = ogonek;
pos = (410,0);
},
{
name = top;
pos = (274,500);
}
);
background = {
shapes = (
{
closed = 1;
nodes = (
(387,-12,o),
(481,48,o),
(508,132,c),
(368,176,l),
(357,142,o),
(320,118,o),
(278,118,cs),
(214,118,o),
(168,174,o),
(168,252,cs),
(168,328,o),
(211,382,o),
(272,382,cs),
(321,382,o),
(362,346,o),
(370,296,c),
(160,296,l),
(160,216,l),
(514,216,l),
(515,224,o),
(516,236,o),
(516,250,cs),
(516,402,o),
(414,512,o),
(274,512,cs),
(130,512,o),
(26,402,o),
(26,250,cs),
(26,97,o),
(131,-12,o),
(280,-12,cs)
);
}
);
};
layerId = "ADDE491E-C0C4-4659-943C-53377B387F47";
shapes = (
{
closed = 1;
nodes = (
(388,-12,o),
(476,44,o),
(504,124,c),
(368,176,l),
(356,142,o),
(322,120,o),
(280,120,cs),
(214,120,o),
(168,174,o),
(168,252,cs),
(168,328,o),
(211,382,o),
(272,382,cs),
(322,382,o),
(362,346,o),
(370,296,c),
(148,296,l),
(148,216,l),
(514,216,l),
(532,364,o),
(441,512,o),
(274,512,cs),
(130,512,o),
(26,402,o),
(26,250,cs),
(26,97,o),
(131,-12,o),
(280,-12,cs)
);
}
);
width = 542;
},
{
anchors = (
{
name = ogonek;
pos = (424,0);
},
{
name = top;
pos = (276,500);
}
);
background = {
shapes = (
{
closed = 1;
nodes = (
(388,-12,o),
(482,40,o),
(514,116,c),
(346,192,l),
(339,168,o),
(315,152,o),
(284,152,cs),
(235,152,o),
(204,193,o),
(204,256,cs),
(204,314,o),
(231,352,o),
(274,352,cs),
(308,352,o),
(332,327,o),
(336,288,c),
(184,288,l),
(184,220,l),
(522,220,l),
(523,230,o),
(524,242,o),
(524,256,cs),
(524,406,o),
(421,512,o),
(276,512,cs),
(126,512,o),
(20,404,o),
(20,252,cs),
(20,97,o),
(129,-12,o),
(282,-12,cs)
);
}
);
};
layerId = "0CF550E6-48ED-4BA5-8C66-195B58FED074";
shapes = (
{
closed = 1;
nodes = (
(388,-12,o),
(482,40,o),
(514,116,c),
(346,192,l),
(339,168,o),
(315,152,o),
(284,152,cs),
(235,152,o),
(204,193,o),
(204,256,cs),
(204,314,o),
(231,352,o),
(274,352,cs),
(308,352,o),
(332,327,o),
(336,288,c),
(184,288,l),
(184,220,l),
(522,220,l),
(538,384,o),
(438,512,o),
(276,512,cs),
(127,512,o),
(20,403,o),
(20,250,cs),
(20,97,o),
(129,-12,o),
(282,-12,cs)
);
}
);
width = 544;
},
{
anchors = (
{
name = ogonek;
pos = (495,10);
},
{
name = top;
pos = (274,500);
}
);
associatedMasterId = "0CF550E6-48ED-4BA5-8C66-195B58FED074";
layerId = "63E39043-617C-45A3-96FF-6334E6E2C5AF";
name = "22 feb 22, 17:21";
shapes = (
{
closed = 1;
nodes = (
(392,-12,o),
(486,40,o),
(518,116,c),
(342,196,l),
(335,170,o),
(312,154,o),
(282,154,cs),
(233,154,o),
(202,193,o),
(202,254,cs),
(202,312,o),
(230,350,o),
(274,350,cs),
(307,350,o),
(330,328,o),
(334,290,c),
(182,290,l),
(182,218,l),
(520,218,l),
(521,228,o),
(522,242,o),
(522,256,cs),
(522,406,o),
(419,512,o),
(274,512,cs),
(124,512,o),
(18,404,o),
(18,252,cs),
(18,97,o),
(128,-12,o),
(284,-12,cs)
);
}
);
width = 540;
},
{
anchors = (
{
name = ogonek;
pos = (404,0);
},
{
name = top;
pos = (272,500);
}
);
associatedMasterId = "8007C042-6FBA-4E49-99B8-8B738A4EBE86";
layerId = "ED7D3EBC-99FF-4C96-8EA7-8377BA8F4A8D";
name = "26 giu 22, 11:52";
shapes = (
{
closed = 1;
nodes = (
(388,-12,o),
(482,52,o),
(504,140,c),
(414,168,l),
(402,110,o),
(342,68,o),
(276,68,cs),
(184,68,o),
(118,145,o),
(118,252,cs),
(118,358,o),
(181,434,o),
(268,434,cs),
(340,434,o),
(406,385,o),
(422,297,c),
(110,297,l),
(110,219,l),
(507,219,l),
(508,227,o),
(508,232,o),
(508,236,cs),
(508,396,o),
(416,512,o),
(272,512,cs),
(132,512,o),
(32,401,o),
(32,248,cs),
(32,97,o),
(132,-12,o),
(276,-12,cs)
);
}
);
width = 540;
},
{
anchors = (
{
name = ogonek;
pos = (410,0);
},
{
name = top;
pos = (274,500);
}
);
associatedMasterId = "ADDE491E-C0C4-4659-943C-53377B387F47";
background = {
shapes = (
{
closed = 1;
nodes = (
(387,-12,o),
(481,48,o),
(508,132,c),
(368,176,l),
(357,142,o),
(320,118,o),
(278,118,cs),
(214,118,o),
(168,174,o),
(168,252,cs),
(168,328,o),
(211,382,o),
(272,382,cs),
(321,382,o),
(362,346,o),
(370,296,c),
(160,296,l),
(160,216,l),
(514,216,l),
(515,224,o),
(516,236,o),
(516,250,cs),
(516,402,o),
(414,512,o),
(274,512,cs),
(130,512,o),
(26,402,o),
(26,250,cs),
(26,97,o),
(131,-12,o),
(280,-12,cs)
);
}
);
};
layerId = "4E33FB44-547F-4DFC-9587-E0DF8CCD1E73";
name = "26 giu 22, 15:09";
shapes = (
{
closed = 1;
nodes = (
(387,-12,o),
(481,48,o),
(508,132,c),
(368,176,l),
(357,142,o),
(320,118,o),
(278,118,cs),
(214,118,o),
(168,174,o),
(168,252,cs),
(168,328,o),
(211,382,o),
(272,382,cs),
(321,382,o),
(362,346,o),
(370,296,c),
(160,296,l),
(160,216,l),
(514,216,l),
(515,224,o),
(516,236,o),
(516,250,cs),
(516,402,o),
(414,512,o),
(274,512,cs),
(130,512,o),
(26,402,o),
(26,250,cs),
(26,97,o),
(131,-12,o),
(280,-12,cs)
);
}
);
width = 542;
},
{
anchors = (
{
name = ogonek;
pos = (404,0);
},
{
name = top;
pos = (272,500);
}
);
layerId = m004;
shapes = (
{
closed = 1;
nodes = (
(388,-12,o),
(478,48,o),
(502,136,c),
(416,164,l),
(404,108,o),
(350,68,o),
(282,68,cs),
(213,68,o),
(158,110,o),
(133,173,cs),
(130,181,o),
(123,187,o),
(112,190,cs),
(100,193,o),
(92,203,o),
(92,217,cs),
(92,233,o),
(104,245,o),
(120,245,cs),
(132,245,o),
(142,238,o),
(146,228,cs),
(148,221,o),
(154,217,o),
(162,217,cs),
(507,217,l),
(519,385,o),
(425,512,o),
(272,512,cs),
(132,512,o),
(32,403,o),
(32,250,cs),
(32,97,o),
(135,-12,o),
(280,-12,cs)
);
},
{
closed = 1;
nodes = (
(104,267,o),
(92,279,o),
(92,295,cs),
(92,310,o),
(102,321,o),
(116,323,cs),
(124,324,o),
(131,329,o),
(133,335,cs),
(157,395,o),
(209,434,o),
(274,434,cs),
(337,434,o),
(389,396,o),
(412,335,cs),
(414,329,o),
(421,324,o),
(429,323,cs),
(443,321,o),
(453,310,o),
(453,295,cs),
(453,279,o),
(441,267,o),
(425,267,cs),
(413,267,o),
(403,274,o),
(399,284,cs),
(397,291,o),
(391,295,o),
(383,295,cs),
(162,295,ls),
(154,295,o),
(148,291,o),
(146,284,cs),
(142,274,o),
(132,267,o),
(120,267,cs)
);
},
{
pos = (32,-158);
ref = inkstem_S;
},
{
angle = 90;
pos = (0,-72);
ref = inkcurve_L;
scale = (1,-1);
},
{
pos = (332,-152);
ref = inkstem_S;
},
{
pos = (32,158);
ref = inkstem_S;
},
{
angle = -90;
pos = (-6,573);
ref = inkcurve_L;
},
{
pos = (314,158);
ref = inkstem_S;
},
{
pos = (176,6);
ref = inkstem_S;
}
);
width = 540;
},
{
anchors = (
{
name = ogonek;
pos = (404,0);
},
{
name = top;
pos = (272,500);
}
);
associatedMasterId = m004;
layerId = "C05C285B-FEF5-4C17-966A-CF0F96F3D645";
name = "26 giu 22, 11:52";
shapes = (
{
closed = 1;
nodes = (
(388,-12,o),
(482,52,o),
(504,140,c),
(414,168,l),
(402,110,o),
(342,68,o),
(276,68,cs),
(184,68,o),
(118,145,o),
(118,252,cs),
(118,358,o),
(181,434,o),
(268,434,cs),
(340,434,o),
(406,385,o),
(422,297,c),
(110,297,l),
(110,219,l),
(507,219,l),
(508,227,o),
(508,232,o),
(508,236,cs),
(508,396,o),
(416,512,o),
(272,512,cs),
(132,512,o),
(32,401,o),
(32,248,cs),
(32,97,o),
(132,-12,o),
(276,-12,cs)
);
}
);
width = 540;
}
);
metricLeft = o;
metricRight = o;
unicode = 101;
}
{
color = 10;
glyphname = f;
kernLeft = lslash;
kernRight = f;
layers = (
{
layerId = "8007C042-6FBA-4E49-99B8-8B738A4EBE86";
shapes = (
{
closed = 1;
nodes = (
(172,0,l),
(172,548,ls),
(172,611,o),
(240,624,o),
(288,592,c),
(312,670,l),
(224,722,o),
(92,678,o),
(92,548,cs),
(92,0,l)
);
},
{
closed = 1;
nodes = (
(292,401,l),
(292,479,l),
(16,479,l),
(16,401,l)
);
}
);
width = 316;
},
{
layerId = "ADDE491E-C0C4-4659-943C-53377B387F47";
shapes = (
{
closed = 1;
nodes = (
(228,0,l),
(228,500,ls),
(228,552,o),
(292,568,o),
(340,540,c),
(376,664,l),
(264,728,o),
(88,676,o),
(88,512,cs),
(88,0,l)
);
},
{
closed = 1;
nodes = (
(346,338,l),
(346,462,l),
(12,462,l),
(12,338,l)
);
}
);
width = 378;
},
{
layerId = "0CF550E6-48ED-4BA5-8C66-195B58FED074";
shapes = (
{
closed = 1;
nodes = (
(280,0,l),
(280,460,ls),
(280,520,o),
(344,540,o),
(400,516,c),
(436,668,l),
(312,724,o),
(80,692,o),
(80,484,cs),
(80,0,l)
);
},
{
closed = 1;
nodes = (
(396,284,l),
(396,436,l),
(4,436,l),
(4,284,l)
);
}
);
width = 436;
},
{
associatedMasterId = "8007C042-6FBA-4E49-99B8-8B738A4EBE86";
layerId = "AECDEE7B-A442-406D-A492-2585C619A64E";
name = "26 giu 22, 11:55";
shapes = (
{
closed = 1;
nodes = (
(168,0,l),
(168,540,ls),
(168,583,o),
(194,610,o),
(234,610,cs),
(254,610,o),
(272,602,o),
(284,588,c),
(308,668,l),
(284,684,o),
(254,692,o),
(224,692,cs),
(144,692,o),
(88,632,o),
(88,548,cs),
(88,0,l)
);
},
{
closed = 1;
nodes = (
(288,401,l),
(288,479,l),
(12,479,l),
(12,401,l)
);
}
);
width = 312;
},
{
associatedMasterId = "ADDE491E-C0C4-4659-943C-53377B387F47";
background = {
shapes = (
{
closed = 1;
nodes = (
(228,0,l),
(228,500,ls),
(228,533,o),
(253,556,o),
(288,556,cs),
(308,556,o),
(328,549,o),
(340,540,c),
(376,664,l),
(347,681,o),
(301,692,o),
(262,692,cs),
(162,692,o),
(88,617,o),
(88,516,cs),
(88,0,l)
);
},
{
closed = 1;
nodes = (
(346,338,l),
(346,462,l),
(12,462,l),
(12,338,l)
);
}
);
};
layerId = "8156895F-D30A-4AB7-AFB3-9800D54CF04F";
name = "26 giu 22, 13:51";
shapes = (
{
closed = 1;
nodes = (
(228,0,l),
(228,500,ls),
(228,533,o),
(253,556,o),
(288,556,cs),
(308,556,o),
(328,549,o),
(340,540,c),
(376,664,l),
(347,681,o),
(301,692,o),
(262,692,cs),
(162,692,o),
(88,617,o),
(88,516,cs),
(88,0,l)
);
},
{
closed = 1;
nodes = (
(346,338,l),
(346,462,l),
(12,462,l),
(12,338,l)
);
}
);
width = 378;
},
{
associatedMasterId = "0CF550E6-48ED-4BA5-8C66-195B58FED074";
layerId = "D18DBBDC-C41E-45C9-8A49-95353633D40B";
name = "26 giu 22, 13:52";
shapes = (
{
closed = 1;
nodes = (
(280,0,l),
(280,464,ls),
(280,501,o),
(309,524,o),
(354,524,cs),
(370,524,o),
(386,521,o),
(400,516,c),
(436,668,l),
(408,682,o),
(361,692,o),
(316,692,cs),
(175,692,o),
(80,603,o),
(80,476,cs),
(80,0,l)
);
},
{
closed = 1;
nodes = (
(396,284,l),
(396,436,l),
(4,436,l),
(4,284,l)
);
}
);
width = 436;
},
{
layerId = m004;
shapes = (
{
closed = 1;
nodes = (
(172,0,l),
(172,349,ls),
(172,361,o),
(166,371,o),
(157,377,cs),
(149,382,o),
(144,391,o),
(144,401,cs),
(144,417,o),
(156,429,o),
(172,429,cs),
(182,429,o),
(191,424,o),
(196,416,cs),
(202,407,o),
(212,401,o),
(224,401,cs),
(292,401,l),
(292,479,l),
(172,479,l),
(172,548,ls),
(172,611,o),
(240,624,o),
(288,592,c),
(312,670,l),
(224,722,o),
(92,679,o),
(92,548,cs),
(92,531,ls),
(92,519,o),
(98,509,o),
(107,503,cs),
(115,498,o),
(120,489,o),
(120,479,cs),
(120,463,o),
(108,451,o),
(92,451,cs),
(82,451,o),
(73,456,o),
(68,464,cs),
(62,473,o),
(52,479,o),
(40,479,cs),
(16,479,l),
(16,401,l),
(92,401,l),
(92,0,l)
);
},
{
angle = 180;
pos = (232,360);
ref = inkstem_M;
},
{
angle = -90;
pos = (-48,749);
ref = inkcurve_S;
},
{
pos = (32,0);
ref = inkstem_S;
}
);
width = 316;
},
{
associatedMasterId = m004;
layerId = "10AA5999-2960-4F53-94FD-2F95C5DC49B8";
name = "26 giu 22, 11:55";
shapes = (
{
closed = 1;
nodes = (
(168,0,l),
(168,540,ls),
(168,583,o),
(194,610,o),
(234,610,cs),
(254,610,o),
(272,602,o),
(284,588,c),
(308,668,l),
(284,684,o),
(254,692,o),
(224,692,cs),
(144,692,o),
(88,632,o),
(88,548,cs),
(88,0,l)
);
},
{
closed = 1;
nodes = (
(288,401,l),
(288,479,l),
(12,479,l),
(12,401,l)
);
}
);
width = 312;
}
);
note = "Ascendente corta?";
unicode = 102;
}
{
glyphname = g;
kernLeft = o;
kernRight = idotless;
layers = (
{
anchors = (
{
name = top;
pos = (296,500);
}
);
layerId = "ADDE491E-C0C4-4659-943C-53377B387F47";
shapes = (
{
closed = 1;
nodes = (
(422,-212,o),
(524,-108,o),
(524,40,cs),
(524,500,l),
(420,500,l),
(388,416,l),
(412,251,l),
(388,97,l),
(388,20,ls),
(388,-41,o),
(347,-84,o),
(286,-84,cs),
(233,-84,o),
(192,-52,o),
(184,0,c),
(36,-38,l),
(54,-142,o),
(152,-212,o),
(276,-212,cs)
);
},
{
closed = 1;
nodes = (
(360,28,o),
(448,128,o),
(448,270,cs),
(448,412,o),
(359,512,o),
(234,512,cs),
(111,512,o),
(24,412,o),
(24,270,cs),
(24,128,o),
(112,28,o),
(236,28,cs)
);
},
{
closed = 1;
nodes = (
(217,116,o),
(172,170,o),
(172,246,cs),
(172,322,o),
(217,376,o),
(280,376,cs),
(343,376,o),
(388,322,o),
(388,246,cs),
(388,170,o),
(343,116,o),
(280,116,cs)
);
}
);
width = 572;
},
{
anchors = (
{
name = top;
pos = (304,500);
}
);
layerId = "0CF550E6-48ED-4BA5-8C66-195B58FED074";
shapes = (
{
closed = 1;
nodes = (
(421,-212,o),
(536,-115,o),
(536,28,cs),
(536,500,l),
(428,500,l),
(344,416,l),
(368,259,l),
(340,97,l),
(340,8,ls),
(340,-36,o),
(318,-64,o),
(284,-64,cs),
(252,-64,o),
(230,-40,o),
(228,0,c),
(20,-40,l),
(32,-140,o),
(135,-212,o),
(268,-212,cs)
);
},
{
closed = 1;
nodes = (
(363,40,o),
(452,136,o),
(452,272,cs),
(452,413,o),
(361,512,o),
(232,512,cs),
(105,512,o),
(16,414,o),
(16,276,cs),
(16,138,o),
(107,40,o),
(236,40,cs)
);
},
{
closed = 1;
nodes = (
(239,148,o),
(212,183,o),
(212,238,cs),
(212,293,o),
(239,328,o),
(282,328,cs),
(325,328,o),
(352,293,o),
(352,238,cs),
(352,183,o),
(325,148,o),
(282,148,cs)
);
}
);
width = 576;
},
{
anchors = (
{
name = top;
pos = (292,500);
}
);
layerId = "8007C042-6FBA-4E49-99B8-8B738A4EBE86";
shapes = (
{
closed = 1;
nodes = (
(428,-212,o),
(528,-112,o),
(528,28,cs),
(528,500,l),
(458,500,l),
(450,400,l),
(476,262,l),
(448,100,l),
(448,20,ls),
(448,-67,o),
(383,-130,o),
(292,-130,cs),
(213,-130,o),
(150,-81,o),
(140,-12,c),
(52,-36,l),
(67,-139,o),
(166,-212,o),
(288,-212,cs)
);
},
{
closed = 1;
nodes = (
(400,16,o),
(496,120,o),
(496,265,cs),
(496,409,o),
(401,512,o),
(268,512,cs),
(130,512,o),
(32,408,o),
(32,263,cs),
(32,119,o),
(130,16,o),
(266,16,cs)
);
},
{
closed = 1;
nodes = (
(185,92,o),
(116,163,o),
(116,263,cs),
(116,363,o),
(185,434,o),
(282,434,cs),
(379,434,o),
(448,363,o),
(448,263,cs),
(448,163,o),
(379,92,o),
(282,92,cs)
);
}
);
width = 592;
},
{
anchors = (
{
name = top;
pos = (292,500);
}
);
layerId = m004;
shapes = (
{
closed = 1;
nodes = (
(428,-212,o),
(528,-112,o),
(528,28,cs),
(528,500,l),
(458,500,l),
(456,464,ls),
(456,456,o),
(460,447,o),
(468,443,cs),
(477,438,o),
(483,429,o),
(483,418,cs),
(483,402,o),
(471,390,o),
(455,390,cs),
(439,390,o),
(427,402,o),
(427,418,cs),
(427,434,o),
(434,441,o),
(422,452,cs),
(382,490,o),
(329,512,o),
(268,512,cs),
(130,512,o),
(32,408,o),
(32,263,cs),
(32,119,o),
(130,16,o),
(266,16,cs),
(326,16,o),
(379,37,o),
(418,74,cs),
(430,86,o),
(420,97,o),
(420,109,cs),
(420,125,o),
(432,137,o),
(448,137,cs),
(464,137,o),
(476,125,o),
(476,109,cs),
(476,99,o),
(471,90,o),
(463,85,cs),
(454,79,o),
(448,69,o),
(448,60,cs),
(448,20,ls),
(448,-67,o),
(383,-130,o),
(292,-130,cs),
(213,-130,o),
(150,-81,o),
(140,-12,c),
(52,-36,l),
(67,-139,o),
(166,-212,o),
(288,-212,cs)
);
},
{
closed = 1;
nodes = (
(185,92,o),
(116,163,o),
(116,263,cs),
(116,363,o),
(185,434,o),
(282,434,cs),
(379,434,o),
(448,363,o),
(448,263,cs),
(448,163,o),
(379,92,o),
(282,92,cs)
);
},
{
pos = (32,-139);
ref = inkstem_S;
},
{
angle = 90;
pos = (0,-46);
ref = inkcurve_L;
scale = (1,-1);
},
{
pos = (-26,-15);
ref = inkcurve_L;
},
{
pos = (30,162);
ref = inkstem_S;
},
{
angle = -90;
pos = (-4,574);
ref = inkcurve_L;
},
{
pos = (388,-15);
ref = inkstem_M;
},
{
angle = 90;
pos = (18,-272);
ref = inkcurve_L;
scale = (1,-1);
},
{
pos = (13,-326);
ref = inkstem_S;
},
{
pos = (346,-350);
ref = inkstem_S;
}
);
width = 592;
}
);
metricRight = idotless;
unicode = 103;
}
{
glyphname = h;
kernLeft = l;
kernRight = n;
layers = (
{
layerId = "8007C042-6FBA-4E49-99B8-8B738A4EBE86";
shapes = (
{
closed = 1;
nodes = (
(144,0,l),
(144,272,ls),
(144,365,o),
(208,432,o),
(292,432,cs),
(368,432,o),
(422,376,o),
(422,296,cs),
(422,0,l),
(502,0,l),
(502,304,ls),
(502,424,o),
(421,512,o),
(308,512,cs),
(224,512,o),
(150,462,o),
(132,388,c),
(144,388,l),
(144,680,l),
(64,680,l),
(64,0,l)
);
}
);
width = 554;
},
{
background = {
shapes = (
{
closed = 1;
nodes = (
(190,0,l),
(190,256,ls),
(190,325,o),
(233,376,o),
(290,376,cs),
(341,376,o),
(376,333,o),
(376,272,cs),
(376,0,l),
(516,0,l),
(516,296,ls),
(516,421,o),
(445,512,o),
(342,512,cs),
(270,512,o),
(201,468,o),
(182,408,c),
(190,408,l),
(190,680,l),
(50,680,l),
(50,0,l)
);
}
);
};
layerId = "ADDE491E-C0C4-4659-943C-53377B387F47";
shapes = (
{
closed = 1;
nodes = (
(190,0,l),
(190,272,ls),
(190,333,o),
(230,376,o),
(286,376,cs),
(340,376,o),
(376,336,o),
(376,280,cs),
(376,0,l),
(516,0,l),
(516,308,ls),
(516,427,o),
(439,512,o),
(332,512,cs),
(246,512,o),
(178,459,o),
(170,384,c),
(190,384,l),
(190,680,l),
(50,680,l),
(50,0,l)
);
}
);
width = 560;
},
{
layerId = "0CF550E6-48ED-4BA5-8C66-195B58FED074";
shapes = (
{
closed = 1;
nodes = (
(242,0,l),
(242,268,ls),
(242,303,o),
(264,328,o),
(294,328,cs),
(322,328,o),
(342,305,o),
(342,272,cs),
(342,0,l),
(542,0,l),
(542,324,ls),
(542,434,o),
(469,512,o),
(368,512,cs),
(295,512,o),
(234,472,o),
(222,416,c),
(242,416,l),
(242,680,l),
(42,680,l),
(42,0,l)
);
}
);
width = 578;
},
{
layerId = m004;
shapes = (
{
closed = 1;
nodes = (
(144,0,l),
(144,272,ls),
(144,365,o),
(208,432,o),
(292,432,cs),
(368,432,o),
(422,376,o),
(422,296,cs),
(422,0,l),
(502,0,l),
(502,304,ls),
(502,424,o),
(421,512,o),
(308,512,cs),
(255,512,o),
(206,492,o),
(173,459,cs),
(161,447,o),
(172,432,o),
(172,420,cs),
(172,404,o),
(160,392,o),
(144,392,cs),
(128,392,o),
(116,404,o),
(116,420,cs),
(116,430,o),
(121,439,o),
(132,445,cs),
(139,449,o),
(144,455,o),
(144,464,cs),
(144,680,l),
(64,680,l),
(64,0,l)
);
},
{
pos = (4,-196);
ref = inkstem_M;
},
{
pos = (4,0);
ref = inkstem_S;
},
{
pos = (362,-194);
ref = inkstem_S;
},
{
pos = (362,-28);
ref = inkstem_M;
},
{
angle = -90;
pos = (24,573);
ref = inkcurve_L;
},
{
pos = (332,152);
ref = inkstem_S;
},
{
pos = (4,256);
ref = inkstem_L;
}
);
width = 554;
}
);
metricLeft = l;
metricRight = n;
unicode = 104;
}
{
glyphname = k;
kernLeft = l;
kernRight = x;
layers = (
{
anchors = (
{
name = bottom;
pos = (270,0);
},
{
name = top;
pos = (251,680);
}
);
layerId = "8007C042-6FBA-4E49-99B8-8B738A4EBE86";
shapes = (
{
closed = 1;
nodes = (
(480,500,l),
(372,500,l),
(124,220,l),
(124,112,l)
);
},
{
closed = 1;
nodes = (
(500,0,l),
(280,296,l),
(224,240,l),
(400,0,l)
);
},
{
ref = l;
}
);
width = 502;
},
{
anchors = (
{
name = bottom;
pos = (280,0);
},
{
name = top;
pos = (271,680);
}
);
layerId = "ADDE491E-C0C4-4659-943C-53377B387F47";
shapes = (
{
closed = 1;
nodes = (
(526,500,l),
(346,500,l),
(170,300,l),
(170,124,l)
);
},
{
closed = 1;
nodes = (
(542,0,l),
(336,312,l),
(244,216,l),
(370,0,l)
);
},
{
ref = l;
}
);
width = 542;
},
{
anchors = (
{
name = bottom;
pos = (300,0);
},
{
name = top;
pos = (298,680);
}
);
layerId = "0CF550E6-48ED-4BA5-8C66-195B58FED074";
shapes = (
{
closed = 1;
nodes = (
(586,500,l),
(338,500,l),
(218,336,l),
(218,96,l)
);
},
{
closed = 1;
nodes = (
(598,0,l),
(402,320,l),
(276,184,l),
(368,0,l)
);
},
{
ref = l;
}
);
width = 596;
},
{
anchors = (
{
name = bottom;
pos = (270,0);
},
{
name = top;
pos = (251,680);
},
{
name = topright;
pos = (184,500);
}
);
layerId = m004;
shapes = (
{
closed = 1;
nodes = (
(144,0,l),
(144,134,l),
(232,229,l),
(400,0,l),
(500,0,l),
(311,254,ls),
(301,268,o),
(295,260,o),
(284,260,cs),
(268,260,o),
(256,272,o),
(256,288,cs),
(256,304,o),
(268,316,o),
(284,316,cs),
(297,316,o),
(303,307,o),
(313,318,cs),
(480,500,l),
(372,500,l),
(170,272,ls),
(160,260,o),
(172,253,o),
(172,243,cs),
(172,227,o),
(160,215,o),
(144,215,cs),
(128,215,o),
(116,227,o),
(116,243,cs),
(116,254,o),
(122,263,o),
(131,268,cs),
(139,272,o),
(144,276,o),
(144,286,cs),
(144,680,l),
(64,680,l),
(64,0,l)
);
},
{
pos = (4,-194);
ref = inkstem_S;
},
{
angle = 36.12228;
pos = (479,-211);
ref = inkstem_M;
},
{
pos = (4,256);
ref = inkstem_L;
},
{
pos = (275,194);
ref = inkstem_S;
},
{
pos = (4,142);
ref = inkstem_S;
}
);
width = 502;
}
);
metricLeft = l;
metricRight = x;
unicode = 107;
}
{
color = 10;
glyphname = l;
kernLeft = l;
kernRight = l;
layers = (
{
anchors = (
{
name = bottom;
pos = (104,0);
},
{
name = top;
pos = (104,660);
},
{
name = topright;
pos = (184,500);
}
);
background = {
hints = (
{
horizontal = 1;
place = (0,21);
target = up;
type = BottomGhost;
},
{
horizontal = 1;
place = (741,-20);
target = down;
type = TopGhost;
},
{
place = (67,89);
type = Stem;
}
);
shapes = (
{
closed = 1;
nodes = (
(64,0,l),
(144,0,l),
(144,680,l),
(64,680,l)
);
}
);
};
layerId = "8007C042-6FBA-4E49-99B8-8B738A4EBE86";
shapes = (
{
closed = 1;
nodes = (
(144,0,l),
(144,680,l),
(64,680,l),
(64,0,l)
);
}
);
width = 208;
},
{
anchors = (
{
name = bottom;
pos = (120,0);
},
{
name = top;
pos = (120,664);
},
{
name = topright;
pos = (230,500);
}
);
layerId = "ADDE491E-C0C4-4659-943C-53377B387F47";
shapes = (
{
closed = 1;
nodes = (
(190,0,l),
(190,680,l),
(50,680,l),
(50,0,l)
);
}
);
width = 240;
},
{
anchors = (
{
name = bottom;
pos = (142,0);
},
{
name = top;
pos = (142,668);
},
{
name = topright;
pos = (282,500);
}
);
layerId = "0CF550E6-48ED-4BA5-8C66-195B58FED074";
shapes = (
{
closed = 1;
nodes = (
(242,0,l),
(242,680,l),
(42,680,l),
(42,0,l)
);
}
);
width = 284;
},
{
anchors = (
{
name = bottom;
pos = (104,0);
},
{
name = top;
pos = (104,660);
},
{
name = topright;
pos = (184,500);
}
);
background = {
hints = (
{
horizontal = 1;
place = (0,21);
target = up;
type = BottomGhost;
},
{
horizontal = 1;
place = (741,-20);
target = down;
type = TopGhost;
},
{
place = (67,89);
type = Stem;
}
);
shapes = (
{
closed = 1;
nodes = (
(64,0,l),
(144,0,l),
(144,680,l),
(64,680,l)
);
}
);
};
layerId = m004;
shapes = (
{
closed = 1;
nodes = (
(144,0,l),
(144,680,l),
(64,680,l),
(64,0,l)
);
},
{
pos = (4,-194);
ref = inkstem_L;
},
{
pos = (4,320);
ref = inkstem_M;
},
{
pos = (4,194);
ref = inkstem_S;
}
);
width = 208;
}
);
metricRight = "=|l";
unicode = 108;
}
{
glyphname = m;
kernLeft = idotless;
kernRight = n;
layers = (
{
layerId = "8007C042-6FBA-4E49-99B8-8B738A4EBE86";
shapes = (
{
closed = 1;
nodes = (
(144,0,l),
(144,276,ls),
(144,366,o),
(201,430,o),
(280,430,cs),
(348,430,o),
(397,376,o),
(397,300,cs),
(397,0,l),
(476,0,l),
(476,280,ls),
(476,367,o),
(531,430,o),
(608,430,cs),
(676,430,o),
(724,376,o),
(724,300,cs),
(724,0,l),
(804,0,l),
(804,304,ls),
(804,425,o),
(727,512,o),
(620,512,cs),
(530,512,o),
(459,454,o),
(450,372,c),
(470,372,l),
(452,454,o),
(379,512,o),
(294,512,cs),
(213,512,o),
(147,460,o),
(136,388,c),
(144,388,l),
(128,500,l),
(64,500,l),
(64,0,l)
);
}
);
width = 856;
},
{
background = {
shapes = (
{
closed = 1;
nodes = (
(156,500,l),
(48,500,l),
(48,0,l),
(188,0,l),
(188,266,ls),
(188,330,o),
(224,376,o),
(274,376,cs),
(318,376,o),
(346,339,o),
(346,282,cs),
(346,0,l),
(484,0,l),
(484,266,ls),
(484,331,o),
(518,376,o),
(566,376,cs),
(608,376,o),
(636,340,o),
(636,286,cs),
(636,0,l),
(776,0,l),
(776,316,ls),
(776,431,o),
(707,512,o),
(610,512,cs),
(542,512,o),
(479,473,o),
(456,412,c),
(465,413,l),
(438,475,o),
(388,512,o),
(322,512,cs),
(250,512,o),
(188,467,o),
(176,408,c),
(188,416,l)
);
}
);
};
layerId = "ADDE491E-C0C4-4659-943C-53377B387F47";
shapes = (
{
closed = 1;
nodes = (
(188,0,l),
(188,276,ls),
(188,334,o),
(222,376,o),
(270,376,cs),
(314,376,o),
(346,339,o),
(346,288,cs),
(346,0,l),
(484,0,l),
(484,280,ls),
(484,336,o),
(517,376,o),
(562,376,cs),
(605,376,o),
(636,341,o),
(636,292,cs),
(636,0,l),
(776,0,l),
(776,320,ls),
(776,432,o),
(706,512,o),
(608,512,cs),
(536,512,o),
(470,467,o),
(450,404,c),
(470,404,l),
(454,467,o),
(391,512,o),
(320,512,cs),
(251,512,o),
(189,467,o),
(172,404,c),
(192,404,l),
(156,500,l),
(48,500,l),
(48,0,l)
);
}
);
width = 820;
},
{
background = {
shapes = (
{
closed = 1;
nodes = (
(236,0,l),
(236,276,l),
(238,308,o),
(255,328,o),
(280,328,cs),
(304,328,o),
(320,309,o),
(320,280,cs),
(320,0,l),
(508,0,l),
(508,276,l),
(510,308,o),
(527,328,o),
(552,328,cs),
(576,328,o),
(592,309,o),
(592,280,cs),
(592,0,l),
(788,0,l),
(788,340,ls),
(788,441,o),
(725,512,o),
(636,512,cs),
(564,512,o),
(508,472,o),
(492,416,c),
(494,416,l),
(472,475,o),
(423,512,o),
(356,512,cs),
(284,512,o),
(229,474,o),
(216,416,c),
(244,424,l),
(188,500,l),
(40,500,l),
(40,0,l)
);
}
);
};
layerId = "0CF550E6-48ED-4BA5-8C66-195B58FED074";
shapes = (
{
closed = 1;
nodes = (
(236,0,l),
(236,276,ls),
(236,306,o),
(254,328,o),
(280,328,cs),
(303,328,o),
(320,309,o),
(320,282,cs),
(320,0,l),
(508,0,l),
(508,278,ls),
(508,307,o),
(526,328,o),
(552,328,cs),
(575,328,o),
(592,310,o),
(592,284,cs),
(592,0,l),
(788,0,l),
(788,344,ls),
(788,442,o),
(722,512,o),
(630,512,cs),
(552,512,o),
(491,465,o),
(483,400,c),
(503,400,l),
(491,465,o),
(429,512,o),
(354,512,cs),
(285,512,o),
(227,472,o),
(216,416,c),
(244,424,l),
(188,500,l),
(40,500,l),
(40,0,l)
);
}
);
width = 824;
},
{
associatedMasterId = "8007C042-6FBA-4E49-99B8-8B738A4EBE86";
layerId = "1C720F07-8D4C-4163-B510-1994199C598A";
name = "26 giu 22, 13:32";
shapes = (
{
closed = 1;
nodes = (
(144,0,l),
(144,276,ls),
(144,366,o),
(201,430,o),
(280,430,cs),
(348,430,o),
(397,376,o),
(397,300,cs),
(397,0,l),
(476,0,l),
(476,280,ls),
(476,367,o),
(531,430,o),
(608,430,cs),
(676,430,o),
(724,376,o),
(724,300,cs),
(724,0,l),
(804,0,l),
(804,304,ls),
(804,425,o),
(730,512,o),
(626,512,cs),
(542,512,o),
(471,460,o),
(456,388,c),
(462,388,l),
(436,460,o),
(366,512,o),
(294,512,cs),
(213,512,o),
(147,460,o),
(136,388,c),
(146,388,l),
(128,500,l),
(64,500,l),
(64,0,l)
);
}
);
width = 856;
},
{
associatedMasterId = "ADDE491E-C0C4-4659-943C-53377B387F47";
background = {
shapes = (
{
closed = 1;
nodes = (
(156,500,l),
(48,500,l),
(48,0,l),
(188,0,l),
(188,266,ls),
(188,330,o),
(224,376,o),
(274,376,cs),
(318,376,o),
(346,339,o),
(346,282,cs),
(346,0,l),
(484,0,l),
(484,266,ls),
(484,331,o),
(518,376,o),
(566,376,cs),
(608,376,o),
(636,340,o),
(636,286,cs),
(636,0,l),
(776,0,l),
(776,316,ls),
(776,431,o),
(707,512,o),
(610,512,cs),
(542,512,o),
(479,473,o),
(456,412,c),
(465,413,l),
(438,475,o),
(388,512,o),
(322,512,cs),
(250,512,o),
(188,467,o),
(176,408,c),
(188,416,l)
);
}
);
};
layerId = "C3762FC1-5D25-4197-8750-5D95C6B89A47";
name = "26 giu 22, 15:16";
shapes = (
{
closed = 1;
nodes = (
(156,500,l),
(48,500,l),
(48,0,l),
(188,0,l),
(188,266,ls),
(188,330,o),
(224,376,o),
(274,376,cs),
(318,376,o),
(346,339,o),
(346,282,cs),
(346,0,l),
(484,0,l),
(484,266,ls),
(484,331,o),
(518,376,o),
(566,376,cs),
(608,376,o),
(636,340,o),
(636,286,cs),
(636,0,l),
(776,0,l),
(776,316,ls),
(776,431,o),
(707,512,o),
(610,512,cs),
(542,512,o),
(479,473,o),
(456,412,c),
(465,413,l),
(438,475,o),
(388,512,o),
(322,512,cs),
(250,512,o),
(188,467,o),
(176,408,c),
(188,416,l)
);
}
);
width = 820;
},
{
associatedMasterId = "0CF550E6-48ED-4BA5-8C66-195B58FED074";
background = {
shapes = (
{
closed = 1;
nodes = (
(236,0,l),
(236,276,l),
(238,308,o),
(255,328,o),
(280,328,cs),
(304,328,o),
(320,309,o),
(320,280,cs),
(320,0,l),
(508,0,l),
(508,276,l),
(510,308,o),
(527,328,o),
(552,328,cs),
(576,328,o),
(592,309,o),
(592,280,cs),
(592,0,l),
(788,0,l),
(788,340,ls),
(788,441,o),
(725,512,o),
(636,512,cs),
(564,512,o),
(508,472,o),
(492,416,c),
(494,416,l),
(472,475,o),
(423,512,o),
(356,512,cs),
(284,512,o),
(229,474,o),
(216,416,c),
(244,424,l),
(188,500,l),
(40,500,l),
(40,0,l)
);
}
);
};
layerId = "651DADB1-5752-4AFF-996D-043C4CEDC605";
name = "26 giu 22, 15:21";
shapes = (
{
closed = 1;
nodes = (
(236,0,l),
(236,276,l),
(238,308,o),
(255,328,o),
(280,328,cs),
(304,328,o),
(320,309,o),
(320,280,cs),
(320,0,l),
(508,0,l),
(508,276,l),
(510,308,o),
(527,328,o),
(552,328,cs),
(576,328,o),
(592,309,o),
(592,280,cs),
(592,0,l),
(788,0,l),
(788,340,ls),
(788,441,o),
(725,512,o),
(636,512,cs),
(564,512,o),
(508,472,o),
(492,416,c),
(494,416,l),
(472,475,o),
(423,512,o),
(356,512,cs),
(284,512,o),
(229,474,o),
(216,416,c),
(244,424,l),
(188,500,l),
(40,500,l),
(40,0,l)
);
}
);
width = 824;
},
{
layerId = m004;
shapes = (
{
closed = 1;
nodes = (
(447,429,o),
(436,443,cs),
(403,486,o),
(351,512,o),
(294,512,cs),
(239,512,o),
(193,489,o),
(163,451,cs),
(152,438,o),
(165,425,o),
(165,409,cs),
(165,393,o),
(153,381,o),
(137,381,cs),
(121,381,o),
(109,393,o),
(109,409,cs),
(109,418,o),
(113,426,o),
(122,432,cs),
(133,439,o),
(136,447,o),
(134,458,cs),
(128,500,l),
(64,500,l),
(64,0,l),
(144,0,l),
(144,276,ls),
(144,366,o),
(201,430,o),
(280,430,cs),
(348,430,o),
(397,376,o),
(397,300,cs),
(397,0,l),
(476,0,l),
(476,280,ls),
(476,367,o),
(531,430,o),
(608,430,cs),
(676,430,o),
(724,376,o),
(724,300,cs),
(724,0,l),
(804,0,l),
(804,304,ls),
(804,425,o),
(727,512,o),
(620,512,cs),
(562,512,o),
(511,487,o),
(480,447,cs),
(467,429,o),
(486,424,o),
(486,407,cs),
(486,391,o),
(474,379,o),
(458,379,cs),
(442,379,o),
(430,391,o),
(430,407,cs),
(430,424,o)
);
},
{
pos = (4,-196);
ref = inkstem_M;
},
{
pos = (4,0);
ref = inkstem_S;
},
{
pos = (336,-194);
ref = inkstem_S;
},
{
pos = (336,-92);
ref = inkstem_L;
},
{
angle = -90;
pos = (8,572);
ref = inkcurve_L;
},
{
pos = (664,-194);
ref = inkstem_S;
},
{
pos = (664,-28);
ref = inkstem_M;
},
{
angle = -90;
pos = (335,572);
ref = inkcurve_L;
},
{
pos = (638,150);
ref = inkstem_S;
}
);
width = 856;
},
{
associatedMasterId = m004;
layerId = "7C13ED10-178E-4316-9171-60371B1B5B5E";
name = "26 giu 22, 13:32";
shapes = (
{
closed = 1;
nodes = (
(144,0,l),
(144,276,ls),
(144,366,o),
(201,430,o),
(280,430,cs),
(348,430,o),
(397,376,o),
(397,300,cs),
(397,0,l),
(476,0,l),
(476,280,ls),
(476,367,o),
(531,430,o),
(608,430,cs),
(676,430,o),
(724,376,o),
(724,300,cs),
(724,0,l),
(804,0,l),
(804,304,ls),
(804,425,o),
(730,512,o),
(626,512,cs),
(542,512,o),
(471,460,o),
(456,388,c),
(462,388,l),
(436,460,o),
(366,512,o),
(294,512,cs),
(213,512,o),
(147,460,o),
(136,388,c),
(146,388,l),
(128,500,l),
(64,500,l),
(64,0,l)
);
}
);
width = 856;
}
);
metricLeft = idotless;
metricRight = n;
unicode = 109;
}
{
color = 10;
glyphname = n;
kernLeft = idotless;
kernRight = n;
layers = (
{
anchors = (
{
name = bottom;
pos = (276,0);
},
{
name = top;
pos = (284,500);
}
);
layerId = "8007C042-6FBA-4E49-99B8-8B738A4EBE86";
shapes = (
{
closed = 1;
nodes = (
(144,0,l),
(144,272,ls),
(144,365,o),
(208,432,o),
(292,432,cs),
(368,432,o),
(422,376,o),
(422,296,cs),
(422,0,l),
(502,0,l),
(502,304,ls),
(502,424,o),
(421,512,o),
(308,512,cs),
(224,512,o),
(150,462,o),
(132,388,c),
(144,388,l),
(132,500,l),
(64,500,l),
(64,0,l)
);
}
);
width = 554;
},
{
anchors = (
{
name = bottom;
pos = (280,0);
},
{
name = top;
pos = (282,500);
}
);
layerId = "ADDE491E-C0C4-4659-943C-53377B387F47";
shapes = (
{
closed = 1;
nodes = (
(188,0,l),
(188,272,ls),
(188,333,o),
(228,376,o),
(284,376,cs),
(338,376,o),
(374,336,o),
(374,280,cs),
(374,0,l),
(514,0,l),
(514,308,ls),
(514,427,o),
(439,512,o),
(334,512,cs),
(253,512,o),
(184,460,o),
(168,392,c),
(188,392,l),
(154,500,l),
(48,500,l),
(48,0,l)
);
}
);
width = 558;
},
{
anchors = (
{
name = bottom;
pos = (288,0);
},
{
name = top;
pos = (296,500);
}
);
layerId = "0CF550E6-48ED-4BA5-8C66-195B58FED074";
shapes = (
{
closed = 1;
nodes = (
(240,0,l),
(240,268,ls),
(240,303,o),
(262,328,o),
(292,328,cs),
(320,328,o),
(340,305,o),
(340,272,cs),
(340,0,l),
(540,0,l),
(540,324,ls),
(540,434,o),
(467,512,o),
(364,512,cs),
(293,512,o),
(232,477,o),
(216,428,c),
(236,428,l),
(188,500,l),
(40,500,l),
(40,0,l)
);
}
);
width = 576;
},
{
anchors = (
{
name = bottom;
pos = (276,0);
},
{
name = top;
pos = (284,500);
}
);
layerId = m004;
shapes = (
{
closed = 1;
nodes = (
(144,0,l),
(144,272,ls),
(144,365,o),
(208,432,o),
(292,432,cs),
(368,432,o),
(422,376,o),
(422,296,cs),
(422,0,l),
(502,0,l),
(502,304,ls),
(502,424,o),
(421,512,o),
(308,512,cs),
(251,512,o),
(199,490,o),
(166,452,cs),
(155,439,o),
(165,426,o),
(165,414,cs),
(165,398,o),
(153,386,o),
(137,386,cs),
(121,386,o),
(109,398,o),
(109,414,cs),
(109,424,o),
(114,433,o),
(125,439,cs),
(132,443,o),
(137,452,o),
(136,461,cs),
(132,500,l),
(64,500,l),
(64,0,l)
);
},
{
pos = (4,-196);
ref = inkstem_M;
},
{
pos = (4,0);
ref = inkstem_S;
},
{
pos = (362,-194);
ref = inkstem_S;
},
{
pos = (362,-28);
ref = inkstem_M;
},
{
angle = -90;
pos = (24,573);
ref = inkcurve_L;
},
{
pos = (332,152);
ref = inkstem_S;
}
);
width = 554;
}
);
metricLeft = idotless;
unicode = 110;
}
{
color = 10;
glyphname = o;
kernLeft = o;
kernRight = o;
layers = (
{
anchors = (
{
name = top;
pos = (282,500);
}
);
layerId = "8007C042-6FBA-4E49-99B8-8B738A4EBE86";
shapes = (
{
closed = 1;
nodes = (
(428,-12,o),
(532,97,o),
(532,250,cs),
(532,403,o),
(428,512,o),
(282,512,cs),
(136,512,o),
(32,403,o),
(32,250,cs),
(32,97,o),
(136,-12,o),
(282,-12,cs)
);
},
{
closed = 1;
nodes = (
(185,68,o),
(116,144,o),
(116,250,cs),
(116,357,o),
(185,434,o),
(282,434,cs),
(379,434,o),
(448,357,o),
(448,250,cs),
(448,144,o),
(379,68,o),
(282,68,cs)
);
}
);
width = 564;
},
{
anchors = (
{
name = top;
pos = (280,500);
}
);
layerId = "ADDE491E-C0C4-4659-943C-53377B387F47";
shapes = (
{
closed = 1;
nodes = (
(429,-12,o),
(534,97,o),
(534,250,cs),
(534,403,o),
(429,512,o),
(280,512,cs),
(131,512,o),
(26,403,o),
(26,250,cs),
(26,97,o),
(131,-12,o),
(280,-12,cs)
);
},
{
closed = 1;
nodes = (
(216,122,o),
(170,175,o),
(170,251,cs),
(170,327,o),
(216,380,o),
(280,380,cs),
(344,380,o),
(390,327,o),
(390,251,cs),
(390,175,o),
(344,122,o),
(280,122,cs)
);
}
);
width = 560;
},
{
anchors = (
{
name = top;
pos = (274,500);
}
);
layerId = "0CF550E6-48ED-4BA5-8C66-195B58FED074";
shapes = (
{
closed = 1;
nodes = (
(424,-12,o),
(528,96,o),
(528,250,cs),
(528,404,o),
(424,512,o),
(274,512,cs),
(124,512,o),
(20,404,o),
(20,250,cs),
(20,96,o),
(124,-12,o),
(274,-12,cs)
);
},
{
closed = 1;
nodes = (
(234,170,o),
(208,202,o),
(208,251,cs),
(208,300,o),
(234,332,o),
(274,332,cs),
(314,332,o),
(340,300,o),
(340,251,cs),
(340,202,o),
(314,170,o),
(274,170,cs)
);
}
);
width = 548;
},
{
anchors = (
{
name = top;
pos = (282,500);
}
);
layerId = m004;
shapes = (
{
closed = 1;
nodes = (
(428,-12,o),
(532,97,o),
(532,250,cs),
(532,403,o),
(428,512,o),
(282,512,cs),
(136,512,o),
(32,403,o),
(32,250,cs),
(32,97,o),
(136,-12,o),
(282,-12,cs)
);
},
{
closed = 1;
nodes = (
(185,68,o),
(116,144,o),
(116,250,cs),
(116,357,o),
(185,434,o),
(282,434,cs),
(379,434,o),
(448,357,o),
(448,250,cs),
(448,144,o),
(379,68,o),
(282,68,cs)
);
},
{
pos = (-27,-28);
ref = inkcurve_L;
},
{
pos = (590,-28);
ref = inkcurve_L;
scale = (-1,1);
},
{
angle = -90;
pos = (4,573);
ref = inkcurve_L;
},
{
angle = 90;
pos = (4,-72);
ref = inkcurve_L;
scale = (1,-1);
},
{
pos = (32,-160);
ref = inkstem_S;
},
{
pos = (332,-160);
ref = inkstem_S;
},
{
pos = (32,158);
ref = inkstem_S;
},
{
pos = (332,158);
ref = inkstem_S;
}
);
width = 564;
}
);
metricRight = "=|o";
unicode = 111;
}
{
glyphname = p;
kernLeft = idotless;
kernRight = o;
layers = (
{
layerId = "8007C042-6FBA-4E49-99B8-8B738A4EBE86";
shapes = (
{
closed = 1;
nodes = (
(460,-12,o),
(558,98,o),
(558,252,cs),
(558,404,o),
(461,512,o),
(326,512,cs),
(190,512,o),
(92,404,o),
(92,252,cs),
(92,98,o),
(189,-12,o),
(324,-12,cs)
);
},
{
closed = 1;
nodes = (
(144,-200,l),
(144,100,l),
(114,250,l),
(144,400,l),
(132,500,l),
(64,500,l),
(64,-200,l)
);
},
{
closed = 1;
nodes = (
(211,68,o),
(142,144,o),
(142,250,cs),
(142,357,o),
(211,434,o),
(308,434,cs),
(405,434,o),
(474,357,o),
(474,250,cs),
(474,144,o),
(405,68,o),
(308,68,cs)
);
}
);
width = 590;
},
{
layerId = "ADDE491E-C0C4-4659-943C-53377B387F47";
shapes = (
{
closed = 1;
nodes = (
(462,-12,o),
(550,98,o),
(550,252,cs),
(550,404,o),
(462,512,o),
(338,512,cs),
(216,512,o),
(128,404,o),
(128,252,cs),
(128,98,o),
(216,-12,o),
(340,-12,cs)
);
},
{
closed = 1;
nodes = (
(188,-200,l),
(188,97,l),
(168,251,l),
(188,416,l),
(156,500,l),
(48,500,l),
(48,-200,l)
);
},
{
closed = 1;
nodes = (
(234,124,o),
(188,177,o),
(188,251,cs),
(188,325,o),
(234,378,o),
(298,378,cs),
(362,378,o),
(408,325,o),
(408,251,cs),
(408,177,o),
(362,124,o),
(298,124,cs)
);
}
);
width = 576;
},
{
layerId = "0CF550E6-48ED-4BA5-8C66-195B58FED074";
shapes = (
{
closed = 1;
nodes = (
(485,-12,o),
(568,98,o),
(568,252,cs),
(568,404,o),
(485,512,o),
(370,512,cs),
(252,512,o),
(168,402,o),
(168,248,cs),
(168,96,o),
(251,-12,o),
(368,-12,cs)
);
},
{
closed = 1;
nodes = (
(240,-200,l),
(240,97,l),
(220,249,l),
(240,432,l),
(188,500,l),
(40,500,l),
(40,-200,l)
);
},
{
closed = 1;
nodes = (
(259,166,o),
(230,199,o),
(230,251,cs),
(230,303,o),
(259,336,o),
(304,336,cs),
(349,336,o),
(378,303,o),
(378,251,cs),
(378,199,o),
(349,166,o),
(304,166,cs)
);
}
);
width = 588;
},
{
layerId = m004;
shapes = (
{
closed = 1;
nodes = (
(144,-200,l),
(144,32,ls),
(144,42,o),
(138,49,o),
(129,55,cs),
(121,60,o),
(116,69,o),
(116,79,cs),
(116,95,o),
(128,107,o),
(144,107,cs),
(160,107,o),
(172,95,o),
(172,79,cs),
(172,75,o),
(171,71,o),
(170,68,cs),
(167,59,o),
(169,50,o),
(175,44,cs),
(214,8,o),
(266,-12,o),
(324,-12,cs),
(460,-12,o),
(558,98,o),
(558,252,cs),
(558,404,o),
(461,512,o),
(326,512,cs),
(266,512,o),
(212,490,o),
(172,453,cs),
(162,444,o),
(170,431,o),
(170,419,cs),
(170,403,o),
(158,391,o),
(142,391,cs),
(126,391,o),
(114,403,o),
(114,419,cs),
(114,429,o),
(119,437,o),
(126,442,cs),
(133,448,o),
(137,454,o),
(136,466,cs),
(132,500,l),
(64,500,l),
(64,-200,l)
);
},
{
closed = 1;
nodes = (
(211,68,o),
(142,144,o),
(142,250,cs),
(142,357,o),
(211,434,o),
(308,434,cs),
(405,434,o),
(474,357,o),
(474,250,cs),
(474,144,o),
(405,68,o),
(308,68,cs)
);
},
{
pos = (4,-396);
ref = inkstem_M;
},
{
angle = 90;
pos = (44,-72);
ref = inkcurve_L;
scale = (1,-1);
},
{
pos = (4,-28);
ref = inkstem_M;
},
{
pos = (362,-156);
ref = inkstem_S;
},
{
pos = (616,-28);
ref = inkcurve_L;
scale = (-1,1);
},
{
angle = -90;
pos = (32,573);
ref = inkcurve_L;
},
{
pos = (356,164);
ref = inkstem_S;
}
);
width = 590;
}
);
metricLeft = n;
metricRight = o;
unicode = 112;
}
{
glyphname = q;
kernLeft = o;
kernRight = idotless;
layers = (
{
layerId = "ADDE491E-C0C4-4659-943C-53377B387F47";
shapes = (
{
closed = 1;
nodes = (
(371,-12,o),
(456,95,o),
(456,251,cs),
(456,405,o),
(371,512,o),
(248,512,cs),
(121,512,o),
(26,399,o),
(26,248,cs),
(26,100,o),
(122,-12,o),
(248,-12,cs)
);
},
{
closed = 1;
nodes = (
(216,124,o),
(170,177,o),
(170,251,cs),
(170,325,o),
(216,378,o),
(280,378,cs),
(344,378,o),
(390,325,o),
(390,251,cs),
(390,177,o),
(344,124,o),
(280,124,cs)
);
},
{
closed = 1;
nodes = (
(534,-200,l),
(534,500,l),
(426,500,l),
(394,416,l),
(418,251,l),
(394,97,l),
(394,-200,l)
);
}
);
width = 582;
},
{
layerId = "0CF550E6-48ED-4BA5-8C66-195B58FED074";
shapes = (
{
closed = 1;
nodes = (
(343,-12,o),
(428,98,o),
(428,252,cs),
(428,404,o),
(343,512,o),
(224,512,cs),
(105,512,o),
(20,402,o),
(20,248,cs),
(20,96,o),
(105,-12,o),
(224,-12,cs)
);
},
{
closed = 1;
nodes = (
(241,166,o),
(210,201,o),
(210,251,cs),
(210,301,o),
(241,336,o),
(285,336,cs),
(329,336,o),
(360,301,o),
(360,251,cs),
(360,201,o),
(329,166,o),
(285,166,cs)
);
},
{
closed = 1;
nodes = (
(548,-200,l),
(548,512,l),
(400,512,l),
(350,444,l),
(368,261,l),
(348,108,l),
(348,-200,l)
);
}
);
width = 588;
},
{
layerId = "8007C042-6FBA-4E49-99B8-8B738A4EBE86";
shapes = (
{
closed = 1;
nodes = (
(401,-12,o),
(498,97,o),
(498,249,cs),
(498,402,o),
(400,512,o),
(264,512,cs),
(129,512,o),
(32,404,o),
(32,252,cs),
(32,98,o),
(130,-12,o),
(266,-12,cs)
);
},
{
closed = 1;
nodes = (
(186,68,o),
(116,144,o),
(116,250,cs),
(116,357,o),
(186,434,o),
(283,434,cs),
(380,434,o),
(450,357,o),
(450,250,cs),
(450,144,o),
(380,68,o),
(283,68,cs)
);
},
{
closed = 1;
nodes = (
(532,-200,l),
(532,500,l),
(464,500,l),
(452,400,l),
(482,250,l),
(452,100,l),
(452,-200,l)
);
}
);
width = 596;
},
{
layerId = m004;
shapes = (
{
closed = 1;
nodes = (
(532,-200,l),
(532,500,l),
(464,500,l),
(458,453,ls),
(457,443,o),
(460,439,o),
(468,435,cs),
(477,430,o),
(483,421,o),
(483,410,cs),
(483,394,o),
(471,382,o),
(455,382,cs),
(439,382,o),
(427,394,o),
(427,410,cs),
(427,426,o),
(436,433,o),
(425,445,cs),
(385,487,o),
(329,512,o),
(264,512,cs),
(129,512,o),
(32,404,o),
(32,252,cs),
(32,98,o),
(130,-12,o),
(266,-12,cs),
(328,-12,o),
(383,12,o),
(423,52,cs),
(435,64,o),
(424,75,o),
(424,87,cs),
(424,103,o),
(436,115,o),
(452,115,cs),
(468,115,o),
(480,103,o),
(480,87,cs),
(480,77,o),
(475,68,o),
(467,63,cs),
(458,57,o),
(452,48,o),
(452,36,cs),
(452,-200,l)
);
},
{
closed = 1;
nodes = (
(186,68,o),
(116,144,o),
(116,250,cs),
(116,357,o),
(186,434,o),
(283,434,cs),
(380,434,o),
(450,357,o),
(450,250,cs),
(450,144,o),
(380,68,o),
(283,68,cs)
);
},
{
pos = (32,-160);
ref = inkstem_S;
},
{
angle = 90;
pos = (4,-72);
ref = inkcurve_L;
scale = (1,-1);
},
{
pos = (-27,-28);
ref = inkcurve_L;
},
{
pos = (32,158);
ref = inkstem_S;
},
{
pos = (390,-28);
ref = inkstem_M;
},
{
angle = -90;
pos = (-4,574);
ref = inkcurve_L;
},
{
pos = (392,-396);
ref = inkstem_M;
}
);
width = 596;
}
);
metricLeft = o;
metricRight = idotless;
unicode = 113;
}
{
color = 10;
glyphname = r;
kernLeft = idotless;
kernRight = r;
layers = (
{
anchors = (
{
name = bottom;
pos = (104,0);
},
{
name = top;
pos = (192,500);
}
);
layerId = "8007C042-6FBA-4E49-99B8-8B738A4EBE86";
shapes = (
{
closed = 1;
nodes = (
(144,0,l),
(144,304,ls),
(144,417,o),
(244,450,o),
(324,410,c),
(328,504,l),
(228,532,o),
(140,480,o),
(132,380,c),
(144,380,l),
(132,500,l),
(64,500,l),
(64,0,l)
);
}
);
width = 340;
},
{
anchors = (
{
name = bottom;
pos = (120,0);
},
{
name = top;
pos = (200,500);
}
);
background = {
shapes = (
{
closed = 1;
nodes = (
(188,0,l),
(188,416,l),
(156,500,l),
(48,500,l),
(48,0,l)
);
},
{
closed = 1;
nodes = (
(188,317,o),
(226,356,o),
(286,356,cs),
(306,356,o),
(325,352,o),
(338,344,c),
(356,500,l),
(340,508,o),
(323,512,o),
(304,512,cs),
(217,512,o),
(160,432,o),
(160,308,c),
(188,256,l)
);
}
);
};
layerId = "ADDE491E-C0C4-4659-943C-53377B387F47";
shapes = (
{
closed = 1;
nodes = (
(188,0,l),
(188,264,ls),
(188,352,o),
(262,380,o),
(338,344,c),
(356,500,l),
(276,536,o),
(177,488,o),
(173,404,c),
(193,404,l),
(156,500,l),
(48,500,l),
(48,0,l)
);
}
);
width = 364;
},
{
anchors = (
{
name = bottom;
pos = (144,0);
},
{
name = top;
pos = (214,500);
}
);
background = {
shapes = (
{
closed = 1;
nodes = (
(240,0,l),
(240,216,ls),
(240,267,o),
(270,300,o),
(316,300,cs),
(332,300,o),
(352,296,o),
(364,288,c),
(396,500,l),
(378,508,o),
(360,512,o),
(340,512,cs),
(289,512,o),
(245,482,o),
(220,432,c),
(240,432,l),
(188,500,l),
(40,500,l),
(40,0,l)
);
}
);
};
layerId = "0CF550E6-48ED-4BA5-8C66-195B58FED074";
shapes = (
{
closed = 1;
nodes = (
(240,0,l),
(240,220,ls),
(240,292,o),
(304,316,o),
(364,288,c),
(396,500,l),
(324,528,o),
(240,504,o),
(220,432,c),
(240,432,l),
(188,500,l),
(40,500,l),
(40,0,l)
);
}
);
width = 400;
},
{
anchors = (
{
name = bottom;
pos = (104,0);
},
{
name = top;
pos = (192,500);
}
);
associatedMasterId = "8007C042-6FBA-4E49-99B8-8B738A4EBE86";
layerId = "6A1F76FB-894F-4746-84E2-D6CC600D1219";
name = "26 giu 22, 13:34";
shapes = (
{
closed = 1;
nodes = (
(144,0,l),
(144,400,l),
(132,500,l),
(64,500,l),
(64,0,l)
);
},
{
closed = 1;
nodes = (
(144,366,o),
(194,422,o),
(264,422,cs),
(280,422,o),
(304,418,o),
(324,406,c),
(328,500,l),
(311,507,o),
(292,512,o),
(272,512,cs),
(188,512,o),
(126,435,o),
(124,328,c),
(144,288,l)
);
}
);
width = 340;
},
{
anchors = (
{
name = bottom;
pos = (104,0);
},
{
name = top;
pos = (192,500);
}
);
layerId = m004;
shapes = (
{
closed = 1;
nodes = (
(144,0,l),
(144,304,ls),
(144,417,o),
(244,450,o),
(324,410,c),
(328,504,l),
(261,523,o),
(199,505,o),
(163,462,cs),
(152,449,o),
(164,436,o),
(164,420,cs),
(164,404,o),
(152,392,o),
(136,392,cs),
(120,392,o),
(108,404,o),
(108,420,cs),
(108,430,o),
(113,439,o),
(124,445,cs),
(131,449,o),
(136,458,o),
(135,467,cs),
(132,500,l),
(64,500,l),
(64,0,l)
);
},
{
angle = 180;
pos = (204,360);
ref = inkstem_M;
},
{
pos = (4,0);
ref = inkstem_S;
},
{
pos = (170,217);
ref = inkstem_S;
}
);
width = 340;
},
{
anchors = (
{
name = bottom;
pos = (104,0);
},
{
name = top;
pos = (192,500);
}
);
associatedMasterId = m004;
layerId = "77575B6F-9C57-42E3-A625-260AF91BD7E0";
name = "26 giu 22, 13:34";
shapes = (
{
closed = 1;
nodes = (
(144,0,l),
(144,400,l),
(132,500,l),
(64,500,l),
(64,0,l)
);
},
{
closed = 1;
nodes = (
(144,366,o),
(194,422,o),
(264,422,cs),
(280,422,o),
(304,418,o),
(324,406,c),
(328,500,l),
(311,507,o),
(292,512,o),
(272,512,cs),
(188,512,o),
(126,435,o),
(124,328,c),
(144,288,l)
);
}
);
width = 340;
}
);
metricLeft = n;
note = "Rivedere orecchio";
unicode = 114;
}
{
color = 10;
glyphname = s;
kernLeft = s;
kernRight = s;
layers = (
{
anchors = (
{
name = bottom;
pos = (236,0);
},
{
name = top;
pos = (228,500);
}
);
layerId = "8007C042-6FBA-4E49-99B8-8B738A4EBE86";
shapes = (
{
closed = 1;
nodes = (
(352,-12,o),
(432,50,o),
(432,136,cs),
(432,308,o),
(134,264,o),
(134,372,cs),
(134,410,o),
(172,438,o),
(226,438,cs),
(286,438,o),
(330,403,o),
(332,354,c),
(416,376,l),
(405,455,o),
(328,512,o),
(224,512,cs),
(120,512,o),
(48,454,o),
(48,372,cs),
(48,204,o),
(344,248,o),
(344,136,cs),
(344,94,o),
(300,64,o),
(244,64,cs),
(172,64,o),
(116,112,o),
(112,172,c),
(24,148,l),
(32,56,o),
(120,-12,o),
(240,-12,cs)
);
}
);
width = 456;
},
{
anchors = (
{
name = bottom;
pos = (250,0);
},
{
name = top;
pos = (252,500);
}
);
layerId = "ADDE491E-C0C4-4659-943C-53377B387F47";
shapes = (
{
closed = 1;
nodes = (
(379,-12,o),
(468,53,o),
(468,144,cs),
(468,308,o),
(184,272,o),
(184,360,cs),
(184,383,o),
(204,398,o),
(234,398,cs),
(274,398,o),
(300,374,o),
(300,336,c),
(456,368,l),
(452,452,o),
(366,512,o),
(242,512,cs),
(126,512,o),
(44,456,o),
(44,372,cs),
(44,212,o),
(320,244,o),
(320,152,cs),
(320,124,o),
(298,106,o),
(264,106,cs),
(217,106,o),
(186,136,o),
(184,182,c),
(20,148,l),
(27,54,o),
(124,-12,o),
(252,-12,cs)
);
}
);
width = 488;
},
{
anchors = (
{
name = bottom;
pos = (268,0);
},
{
name = top;
pos = (266,500);
}
);
layerId = "0CF550E6-48ED-4BA5-8C66-195B58FED074";
shapes = (
{
closed = 1;
nodes = (
(413,-12,o),
(504,51,o),
(504,148,cs),
(504,316,o),
(226,276,o),
(226,352,cs),
(226,369,o),
(239,380,o),
(260,380,cs),
(290,380,o),
(310,360,o),
(312,328,c),
(492,356,l),
(484,448,o),
(388,512,o),
(256,512,cs),
(128,512,o),
(40,454,o),
(40,364,cs),
(40,204,o),
(316,230,o),
(316,158,cs),
(316,140,o),
(299,128,o),
(272,128,cs),
(234,128,o),
(214,152,o),
(212,192,c),
(16,148,l),
(24,52,o),
(128,-12,o),
(268,-12,cs)
);
}
);
width = 520;
},
{
anchors = (
{
name = bottom;
pos = (270,0);
},
{
name = top;
pos = (266,500);
}
);
associatedMasterId = "0CF550E6-48ED-4BA5-8C66-195B58FED074";
layerId = "66359A2C-8D80-455B-BC0D-09BCA3431E42";
name = "18 feb 22, 10:25";
shapes = (
{
closed = 1;
nodes = (
(406,-12,o),
(504,52,o),
(504,148,cs),
(504,312,o),
(224,282,o),
(224,350,cs),
(224,365,o),
(237,374,o),
(256,374,cs),
(284,374,o),
(304,356,o),
(308,328,c),
(492,360,l),
(488,448,o),
(393,512,o),
(262,512,cs),
(130,512,o),
(42,452,o),
(42,364,cs),
(42,204,o),
(320,230,o),
(320,158,cs),
(320,140,o),
(302,128,o),
(274,128,cs),
(238,128,o),
(212,147,o),
(208,184,c),
(16,148,l),
(24,52,o),
(126,-12,o),
(266,-12,cs)
);
}
);
width = 520;
},
{
anchors = (
{
name = bottom;
pos = (236,0);
},
{
name = top;
pos = (228,500);
}
);
layerId = m004;
shapes = (
{
closed = 1;
nodes = (
(352,-12,o),
(432,50,o),
(432,136,cs),
(432,308,o),
(134,264,o),
(134,372,cs),
(134,410,o),
(172,438,o),
(226,438,cs),
(286,438,o),
(330,403,o),
(332,354,c),
(416,376,l),
(405,455,o),
(328,512,o),
(224,512,cs),
(120,512,o),
(48,454,o),
(48,372,cs),
(48,204,o),
(344,248,o),
(344,136,cs),
(344,94,o),
(300,64,o),
(244,64,cs),
(172,64,o),
(116,112,o),
(112,172,c),
(24,148,l),
(32,56,o),
(120,-12,o),
(240,-12,cs)
);
},
{
angle = 90;
pos = (-34,-75);
ref = inkcurve_L;
scale = (1,-1);
},
{
angle = -90;
pos = (-52,575);
ref = inkcurve_L;
},
{
pos = (-14,-144);
ref = inkstem_S;
},
{
pos = (253,167);
ref = inkstem_S;
},
{
pos = (-9,122);
ref = inkstem_S;
},
{
pos = (286,-114);
ref = inkstem_S;
},
{
angle = 71.50019;
pos = (502,62);
ref = inkstem_L;
}
);
width = 456;
}
);
metricRight = "=|";
unicode = 115;
}
